<svg viewBox="0 0 1249 591" xmlns="http://www.w3.org/2000/svg" xml:space="preserve" fill-rule="evenodd" clip-rule="evenodd" stroke-linejoin="round" stroke-miterlimit="2"><path d="M482 268c-26 0-42-18-42-44 0-25 16-43 41-43 17 0 33 8 37 29h-21c-2-7-7-11-16-11-13 0-20 11-20 26s8 25 21 25c9 0 15-4 17-11h20c-3 19-18 29-37 29Zm117-86v85h-20v-35h-30v35h-20v-85h20v33h30v-33h20Zm87 49c0 26-16 37-36 37s-36-11-36-37v-49h20v50c0 10 6 18 16 18s16-8 16-18v-50h20v49ZM472 383c-20 0-32-13-32-30h19c0 8 5 14 14 14 5 0 10-3 10-8 0-6-5-9-16-13-13-5-24-11-24-26 0-16 12-25 28-25 19 0 29 12 29 27h-17c-1-6-5-10-12-10-5 0-9 2-9 7s4 7 14 12c16 6 27 12 27 28s-13 24-31 24Zm75-27-6 1c-10 0-14 3-14 7 0 3 3 5 7 5 6 0 12-5 13-13Zm22 11v15h-3c-6 0-12-2-14-8-5 5-12 9-21 9-14 0-22-6-22-18 0-13 10-19 27-20l11-1v-1c0-6-4-9-9-9-6 0-9 5-9 8h-18c1-13 11-22 27-22 15 0 27 8 27 25v17c0 3 1 5 4 5Zm27 15h-19v-61h19v61Zm-21-78c0-7 5-12 12-12 6 0 11 5 11 12 0 5-5 11-11 11-7 0-12-6-12-11Zm95 44v34h-19v-31c0-10-5-14-12-14-6 0-12 4-12 14v31h-19v-61h15l3 7h1c3-3 7-8 19-8 14 0 24 10 24 28Zm37 35c-12 0-21-5-21-21v-26h-12v-14h4c7 0 10-4 10-8v-8h17v15h15v15h-15v24c0 5 2 7 5 7l6-2 4 14c-3 2-8 4-13 4Zm35-39h26c-1-5-6-10-13-10-6 0-11 3-13 10Zm43 18c-3 13-15 21-29 21-20 0-32-13-32-32s14-31 30-31c17 0 33 9 31 37h-43c1 7 5 11 14 11 5 0 10-2 12-6h17Z" fill="#7d7d7d" fill-rule="nonzero"/><path fill="#7d7d7d" d="M793 336h44v15h-44z"/><path d="M868 365c6 0 9-4 9-11v-57h19v58c0 18-11 28-27 28-18 0-28-11-28-28h19c0 6 3 10 8 10Zm38-11v-33h19v30c0 10 5 15 12 15 6 0 11-4 11-15v-30h19v61h-15l-2-8h-2c-3 4-7 9-18 9-14 0-24-10-24-29Zm97 29c-16 0-26-8-27-22h18c0 6 5 8 9 8s7-1 7-5c0-3-3-5-11-7-9-2-22-5-22-18 0-12 11-19 25-19 15 0 24 8 25 20h-17c-1-4-4-6-9-6-3 0-5 1-5 4s3 4 11 6c13 4 22 9 22 20 0 13-11 19-26 19Zm60 0c-12 0-20-5-20-21v-26h-12v-14h4c6 0 9-4 9-8v-8h17v15h16v15h-16v24c0 5 2 7 6 7l6-2 3 14c-3 2-7 4-13 4Zm41-1h-19v-61h19v61Zm-21-78c0-7 5-12 12-12 6 0 11 5 11 12 0 5-5 11-11 11-7 0-12-6-12-11Zm95 44v34h-19v-31c0-10-5-14-12-14-6 0-12 4-12 14v31h-19v-61h15l3 7h1c3-3 7-8 19-8 14 0 24 10 24 28Zm28-4h25c-1-5-5-10-13-10-6 0-10 3-12 10Zm42 18c-2 13-15 21-29 21-20 0-32-13-32-32s14-31 30-31c17 0 33 9 31 37h-43c1 7 6 11 14 11 5 0 10-2 12-6h17Zm-775 99v7h-32v-48h8v41h24Zm30-14c0-5-4-9-9-9s-9 4-10 9h19Zm6 5h-25c0 6 4 10 10 10 4 0 7-1 9-5h6c-1 8-8 11-15 11-11 0-17-7-17-18 0-10 7-17 17-17 9 0 16 6 15 19Zm41 16c-11 0-17-7-17-17 0-11 7-18 17-18 9 0 15 5 16 13h-7c-1-4-4-7-9-7-6 0-10 5-10 12 0 6 3 11 10 11 5 0 8-3 9-6h7c-1 7-7 12-16 12Zm47-21c0-5-4-9-9-9-6 0-9 4-10 9h19Zm6 5h-25c0 6 3 10 10 10 4 0 7-1 8-5h7c-1 8-8 11-15 11-11 0-17-7-17-18 0-10 7-17 16-17s17 6 16 19Zm38-4v20h-7v-19c0-7-4-10-9-10-4 0-8 3-8 10v19h-7v-35h6l1 5c2-2 5-5 11-5 7 0 13 5 13 15Zm20 20c-5 0-9-2-9-9v-20h-7v-5h2c4 0 6-2 6-5v-4h6v8h9v6h-9v19c0 3 2 4 4 4l3-1 1 6-6 1Zm32-35v7l-3-1c-5 0-10 4-10 12v17h-7v-35h5l2 5c2-3 5-5 10-5h3Zm29 14c0-5-3-9-9-9-5 0-9 4-10 9h19Zm7 5h-26c0 6 4 10 10 10 4 0 7-1 9-5h7c-2 8-9 11-16 11-10 0-17-7-17-18 0-10 7-17 17-17 9 0 17 6 16 19Zm56-5v21h-7v-18c0-7-3-11-9-11-4 0-8 3-8 10v19h-7v-49h7v18h1c1-2 5-4 10-4 8 0 13 5 13 14Zm35 4c0-7-5-12-11-12s-10 5-10 12c0 6 4 11 10 11s11-5 11-11Zm-29-1c0-10 8-17 18-17s18 7 18 18c0 10-8 17-18 17s-18-7-18-18Zm54 18c-8 0-14-4-14-11h7c0 4 4 6 7 6 4 0 6-2 6-4 0-4-3-5-7-6-5-2-12-4-12-10s6-10 13-10c8 0 12 4 12 10h-6c0-3-3-5-7-5-2 0-5 2-5 4 0 3 3 4 8 6 6 2 11 4 11 11 0 6-5 9-13 9Zm46-17c0-7-4-12-10-12-5 0-9 5-9 12 0 6 4 11 9 11 6 0 10-5 10-11Zm7 0c0 10-7 17-16 17-5 0-8-2-10-5v19h-7v-49h5l1 5h1c2-3 5-5 10-5 9 0 16 7 16 18Zm14 17h-7v-35h7v35Zm-8-44c0-3 2-5 4-5 3 0 5 2 5 5 0 2-2 4-5 4-2 0-4-2-4-4Zm29 44c-5 0-9-2-9-9v-20h-7v-5h2c4 0 6-2 6-5v-4h6v8h8v6h-8v19c0 3 1 4 3 4l3-1 2 6-6 1Zm32-14v-2h-5c-7 1-10 3-10 6s2 5 5 5c5 0 10-3 10-9Zm10 8v6h-2c-3 0-6-1-7-5-2 3-7 5-11 5-7 0-12-3-12-9 0-8 6-11 15-12h7v-1c0-5-3-8-7-8-5 0-7 4-7 6h-7c1-6 6-11 14-11s14 4 14 13v13c0 2 1 3 3 3Z" fill="#7d7d7d" fill-rule="nonzero"/><path fill="#7d7d7d" d="M981 419h7v49h-7z"/><path d="M1003 468h-7v-35h7v35Zm-8-44c0-3 2-5 5-5 2 0 4 2 4 5 0 2-2 4-4 4-3 0-5-2-5-4Zm41 23c-1-5-4-9-10-9-5 0-8 4-9 9h19Zm6 5h-26c1 6 4 10 11 10 4 0 7-1 8-5h7c-2 8-8 11-15 11-11 0-17-7-17-18 0-10 7-17 16-17s17 6 16 19Zm27-19v7l-3-1c-5 0-10 4-10 12v17h-7v-35h6l1 5c2-3 5-5 11-5h2Zm-629 89v-20h8v19c0 7 3 10 8 10 4 0 8-3 8-10v-19h7v35h-6l-1-5c-2 2-4 5-11 5s-13-5-13-15Zm70-6v21h-7v-19c0-7-4-10-8-10s-8 3-8 9v20h-8v-35h6l1 4h1c1-2 4-5 10-5 8 0 13 6 13 15Zm15 21h-7v-35h7v35Zm-8-44c0-3 2-5 5-5 2 0 4 2 4 5 0 2-2 4-4 4-3 0-5-2-5-4Zm48 9-12 35h-10l-12-35h7l10 28 10-28h7Zm28 14c0-5-3-9-9-9-5 0-8 4-9 9h18Zm7 5h-26c1 6 4 10 11 10 3 0 7-1 8-5h7c-2 7-8 11-15 11-11 0-17-7-17-18 0-10 7-18 16-18s17 6 16 20Zm27-20v8l-3-1c-5 0-10 4-10 12v17h-7v-35h5l2 5c2-3 5-6 10-6h3Zm18 36c-9 0-14-5-14-12h6c1 5 4 7 8 7 3 0 5-2 5-5s-3-4-7-5c-5-2-11-4-11-11 0-6 5-10 12-10 8 0 12 5 13 11h-7c0-3-3-5-6-5s-5 1-5 4 2 4 7 5c6 2 11 5 11 11 0 7-5 10-12 10Zm26 0h-7v-35h7v35Zm-8-44c0-3 2-5 5-5 2 0 4 2 4 5 0 2-2 4-4 4-3 0-5-2-5-4Zm29 44c-5 0-9-2-9-10v-19h-7v-5h3c3 0 5-2 5-5v-5h6v9h9v6h-9v19c0 3 2 4 4 4l3-1 1 6-6 1Zm32-15v-1h-5c-6 1-10 3-10 6s3 5 6 5c4 0 9-4 9-10Zm10 9v6h-1c-4 0-6-2-7-5-3 3-7 5-12 5-7 0-12-3-12-10s6-10 16-11h6v-1c0-5-2-8-6-8-5 0-7 3-8 6h-6c0-6 5-12 13-12s14 5 14 14v12c0 3 1 4 3 4Zm13 6h-7v-35h7v35Zm-8-44c0-3 2-5 4-5 3 0 5 2 5 5 0 2-2 4-5 4-2 0-4-2-4-4Zm36 8v8l-3-1c-5 0-9 4-9 12v17h-8v-35h6l1 5h1c1-3 4-6 10-6h2Zm29 15c0-5-3-9-9-9-5 0-8 4-9 9h18Zm7 5h-26c1 6 4 10 11 10 3 0 7-1 8-5h7c-2 7-8 11-15 11-11 0-17-7-17-18 0-10 7-18 16-18s17 6 16 20Zm75-5v21h-8v-21c0-5-3-8-6-8-4 0-7 3-7 8v21h-8v-20c0-6-3-9-6-9-4 0-8 3-8 8v21h-7v-35h6l1 4c2-2 5-5 10-5s8 4 10 7c2-3 5-6 11-6 7 0 12 4 12 14Zm32 0c0-5-4-9-9-9s-9 4-10 9h19Zm-12-18-7-9h8l4 9h-5Zm19 23h-26c0 6 4 10 10 10 4 0 7-1 9-5h7c-2 7-9 11-16 11-10 0-17-7-17-18 0-10 7-18 17-18 9 0 16 6 16 20Zm26-20v8l-3-1c-5 0-9 4-9 12v17h-8v-35h6l1 5h1c2-3 4-6 10-6h2Zm30 15c-1-5-4-9-10-9-5 0-8 4-9 9h19Zm6 5h-26c1 6 4 10 11 10 4 0 7-1 8-5h7c-2 7-8 11-15 11-11 0-17-7-17-18 0-10 7-18 16-18s17 6 16 20Z" fill="#7d7d7d" fill-rule="nonzero"/><path fill="#7d7d7d" d="M993 512h25v6h-25z"/><path d="M1049 516c0-5-4-9-9-9-6 0-9 4-10 9h19Zm6 5h-25c0 6 3 10 10 10 4 0 7-1 9-5h6c-1 7-8 11-15 11-11 0-17-7-17-18 0-10 7-18 16-18s17 6 16 20Zm38-5v21h-7v-19c0-7-4-10-9-10-4 0-8 3-8 9v20h-7v-35h6l1 4c2-2 5-5 11-5 7 0 13 6 13 15Zm18-14h9v6h-9v29h-7v-29h-7v-6h7v-4c0-7 4-10 9-10l8 2-2 6-4-2c-3 0-4 2-4 5v3Zm34 20v-1h-5c-6 1-9 3-9 6s2 5 5 5c5 0 9-4 9-10Zm10 9v6h-1c-3 0-6-2-7-5-3 3-7 5-12 5-6 0-12-3-12-10s7-10 16-11h6v-1c0-5-2-8-6-8-5 0-7 3-7 6h-7c1-6 6-12 14-12s13 5 13 14v12c0 3 1 4 3 4Zm37-15v21h-7v-19c0-7-4-10-9-10-4 0-8 3-8 9v20h-7v-35h6l1 4c2-2 5-5 11-5 7 0 13 6 13 15Zm20 21c-5 0-9-2-9-10v-19h-7v-5h2c4 0 6-2 6-5v-5h6v9h8v6h-8v19c0 3 2 4 4 4l3-1 1 6-6 1ZM222 99l11-1c14-3 28-10 38-20 34-34 21-58 10-69-6-6-15-9-25-9-16 0-35 8-48 21-22 23-28 53-12 68 6 6 15 10 26 10Zm-10 107c13 0 28-5 37-14 17-17 20-41 6-55-13-13-48-2-62 11a37 37 0 0 0-14 26c0 9 4 18 10 24 5 5 13 8 23 8Z" fill="#7d7d7d" fill-rule="nonzero"/><path d="M134 274c34-5 45-12 50-15 8-4 22-13 18-25-3-8-13-8-31-6-19 3-44 8-70 7-13-1-36-7-37-26-1-6 0-15 8-25 23-31 56-39 77-49l14-9c9-8 13-22 8-31-3-6-11-14-35-8-40 10-93 31-121 75-18 28-17 53-11 66 13 30 47 44 67 46 16 2 39 4 63 0Z" fill="#7d7d7d" fill-rule="nonzero"/><path d="M387 161c-3-24-14-46-35-64-17-14-46-16-56-7-6 7-7 16-1 25 22 29 30 54 26 74-4 28-17 48-64 66l-48 15-36 11c-9 4-14 12-13 20 2 6 7 12 23 12h5c25-2 98-13 135-37 65-43 68-82 64-115ZM151 484c-1-46 5-99-5-123-8-17-35-30-52-26-7 2-23 8-22 33 0 38 19 145 28 179 5 21 16 38 28 38h1c4 0 8-1 14-11 10-18 8-67 8-90Zm147 27c-6-39-17-93-28-122-10-28-20-49-47-45-13 1-28 5-35 16-5 7-5 16-2 26 24 69 69 179 89 197 2 2 9 8 16 8l7-2c9-5 10-19 5-50l-5-28Z" fill="#7d7d7d" fill-rule="nonzero"/></svg>