<svg viewBox="0 0 1821 377" xmlns="http://www.w3.org/2000/svg" xml:space="preserve" fill-rule="evenodd" clip-rule="evenodd" stroke-linejoin="round" stroke-miterlimit="2"><path d="M564 353V120h43v197h87v36H564Zm256 0H711v-36h102c15 0 28-13 28-29-1-40-60-27-101-53a62 62 0 0 1-30-53c0-34 28-62 62-62h103v37h-97c-14 0-24 12-24 25-6 29 70 37 84 43 27 9 47 34 47 63 0 36-30 65-65 65Zm511 0V120h-43v154l-91-154h-42v233h42V199l91 154h43ZM1 353h44l31-158 49 158h52l49-158 32 158h44l-50-233h-51l-50 164-50-164H50L1 353Zm895-116c0-67 54-123 120-123s119 56 119 123-53 122-119 122-120-55-120-122Zm120 84c43 0 76-38 76-84s-33-84-76-84c-42 0-77 38-77 84s35 84 77 84Zm-713-84c0-68 54-123 119-123 66 0 120 55 120 123 0 67-54 122-120 122s-119-55-119-122Zm119 84c43 0 78-38 78-84 0-47-35-84-78-84-42 0-76 37-76 84 0 46 34 84 76 84Zm1279-58 2 1h4l1 1 4 5 6 6-1 2 1 6 1 1-11 26 3 2s9-17 10-22l1 1 1 5 2 1 3-6 9-5 4-7 2 4 3 5 1 4 3-6c3 3 6 5 10 5h1l25 6c8 2 16 9 17 10l2-1-3-6-4-7v-3l-1-3-3-9c-1-4-7-13-9-16-1-2-3-3-7-5l5-1-6-2 3-3 2-3 2-3-4 1h-6l7-4c5-3 8-4 15-4 8 0 11 2 14 4h1c2 1 3 2 7 10l2-1-3-10c-2-4-6-9-14-11h-18l-3 1h1c2-2 5-8 8-10l1-1 6-10 2-2c4-5 5-8 6-11v-1l5-16h-2v1l-4 8-7 9-7 7-5 4-10 7-6 6-4 1c5-3 8-8 10-17v-1l-1-1-2-1c8-4 10-9 11-19v-1l-1-2c-1-1-5 1-11 4h-1l-7 6h-1v1l-4 5-1-9h1c2 0 4 1 10-5 9-5 12-11 12-23l-3-2c-1 0-5 1-10 5l-7 8-3 6c-2-2-2-4-2-5h2c2-2 6-5 11-13 3-4 4-11 4-18v-5l-2-3-3-20-4 1v1l3 18-4 5-2 3-2 3 1-11c0-3-5-16-9-19l-2-24v-1l-4 1v1l2 22c-3 3-6 16-6 21v1l9 14v2l-4-5c-2-2-7-6-11-6l-4-22-4 1 4 21-1 4c0 4 4 13 5 13l11 9 6 3v4l-2-3-8-7c-7-4-10-5-11-4l-2 2c0 8 2 13 6 17l-5-1-1 2v1c0 5 1 10 3 14-1-1-2-2-3-1l-2 1-1 10c0 2 0 6 2 8l-6-3-1 2-2 9 1 6-2-1-2 1-3 11c0 3 1 6 3 8l-6-3-1 2-3 11c-1 1-2 1-2 3l-3 4Zm38-62 3 1c5 3 8 3 10 3l-5 11-2-7-6-8Zm10-12-1-1h5l1 7c-1-2-2-4-5-6Zm12 20-7 3-1 1 2-6h3l1 2h2Zm-15 37v1h-2l-6 6 2-8 6 1Zm-16-6c3 2 5 2 7 2l-4 7-1-6-2-3Zm7-17 7 3-3 7c0-2-1-6-3-8l-1-2Zm23 3-1 1c-3 0-6 1-11 4l-3 2 3-6c1 0 4 1 12-1Z" fill="#7e7e7e"/><path d="M1744 136c-1-3 3-20 5-20 3 0 7 14 8 18 2 3-2 16-3 17-2 0-10-12-10-15Z" fill="#989898"/><path d="M1754 169s-12-6-16-13c-5-4-6-12-5-14 1 0 11 3 20 17l1 3h2v-8c3-5 11-19 13-19 4 2 2 19-1 23 0 0-7 11-14 13v-2Z" fill="#989898"/><path d="m1754 178-1 1s-4-10-21-18c0 0-2 13 8 19 8 5 10 5 11 5h4v2s4-2 4 0c1 0 4 0 8-4 4-3 13-7 10-22 0 0-2 0-11 9 0 0-5 4-7 12l-1 2h-3l-1-6Zm2 26 9-11c3-3 15-9 17-9 0 0 0 9-6 15 0 0-5 5-12 6h-8v-1Zm-2-2s-1-7-6-12c0 0-9-9-17-10 0 0-1 11 6 16 0 0 11 10 17 6Z" fill="#989898"/><path d="m1749 221-3-1s-1-9-5-14c0 0-7-8-11-10 0 0-4 10 0 16 0 0 4 7 10 10l4 1 5 2s3 1 12-2c0 0 11-2 13-17 0 0-2-1-15 6 0 0-5 2-8 7l-2 2Z" fill="#989898"/><path d="M1756 230s-7 1-13 7h-2l-2-1s1-5-4-11c0 0-5-8-12-13 0 0-3 8-1 13 0 0 2 8 11 14l5 1h2v1s2 3 6 3l3-7 7-7Zm-25 18s-2-7-5-11l-8-9s-6 11 1 19l5-1-1-2 2-1s2 4 6 5Zm-17 1-3-4s-3 8-2 9l5-5Zm23 8-5-5-5-4s-8 1-11 4c0 0-10 6-11 9 0 0 3 0 7 3s11 1 11 0c0 0-5 14-3 18l5 12s2-4 5-6c0 0 9-4 10-12h3s0 5 2 6l3 4s3-4 3-9c0 0 1-7-2-11l1-1h1s-3-4-8-5l4-1s-5-3-9-2h-1Z" fill="#989898"/><path d="m1720 268-7-1 5 6 2-5Zm26-19v2s-4 1-7 4h-1l8-6Zm6 4h-6l-3 2s5 1 7 3c0 0 0-3 2-5Zm3 8s-3 0-3-4l3-6 2 5s3 5-2 5Zm7-9-3 1v-1s-1-3 4-6c-2 2-2 4-1 6Zm3 1-1-4 3-1 3-1-1 4-1 2h-3Zm10 2-4-2 1-4h3s2 2 3 0l-3 6Zm1 2-3-1-3-1-3 5 2 1s3 0 7-4Zm-16 3v-5h8s-3 6-8 5Zm0 3s1 0 0 0l5-2 6 3-5 2-3-1-3-2Zm0-17s9-9 20-11c0 0 9-4 24-1 0 0 8 2 11 10 0 0-6-7-17-8 0 0-14-2-26 10l-1-3s-3 3-5 2l-1-2-5 3Z" fill="#989898"/><path d="M1768 268s6-2 7-4l-3-1 5-3s7 3 10 10l5 9 7 23s-7-6-19-8l-20-4s-7-2-9-5c0 0 4-8 2-16h2s3 2 8 2l5 3 2-3-2-3Z" fill="#989898"/><path d="M1768 175v2l-9 7h-2v-1l9-8h2Zm-22 1 9 7v1h-2l-8-7v-1h1Zm-2 18 9 7v2h-2l-9-7v-2h2Zm24 3-1 2-11 5h-2l1-1 11-6h2Zm-29 15 7 9v2l-1-1-8-8v-2h2Zm25 5-1 2-12 4-2-1 1-1 12-4h2Zm-30 9 7 11-1 2h-1l-7-12v-1h2Zm22 10-1 2-12 2h-1l1-2 11-2h2Zm-44 23 6-2h8l-3-1h-3l-1-1 2-1h2l5 1v1l4 2h3l3-2v3s1 3 4 5l1 1 4 4 1 1c0 1 2 4 1 6l-1 1-1-1v-1l-1-4-2-2-1 1h-1l-1-1v-3h-1l-3-5c-3 2-6 5-6 7 0 1-1 3 1 6v1h-2l-1-1v3l-3 8-1 1-1-2c1-1 2-3 2-7l3-10 4-7-6-1h-9l-5 2h-2l1-2Zm40-126 2 17-1 1-1-1-2-17 1-1 1 1Zm-5 22 8 11v1h-1l-9-10v-2h2Zm18-2 1 2-5 11-1 1-1-1 5-12 1-1Zm-2 114c5 0 10 4 11 7h1l3 4 6 6 7 3 1 2h-1l-8-4-7-6-3-3v-1c-2-1-6-6-10-6l-1-1 1-1Z" fill="#7f7f7f"/><path d="M1753 251h-5l1-7 2-6 12-12 9-1s1-4 14-12c0 0 13-9 18-17 0 0-2 9-13 22l-13 15s-11 2-22 13h-2l-1 5Zm4 12s-1 2 3 2l3 2 2 1v1l-5-1-4-3s-1-2 1-2Z" fill="#989898"/><path d="m1470 259-3-3-2-11-2-2-4 3 2-8-2-11-3-1-3 1 1-6-1-9-2-2-5 3 2-8-2-10-1-1c-1-1-2 0-3 1 2-4 3-8 3-14v-1l-1-2-5 1c4-4 5-9 5-17l-1-2c-2-1-5 0-11 4l-8 7-3 3 1-4 6-3 11-9s5-9 5-13l-1-4 3-21-4-1-3 22c-5 0-9 4-11 6l-5 5v-2l9-14v-1c0-5-3-18-5-21l2-22v-1l-4-1v1l-2 24c-4 3-10 16-10 19l3 11-3-3-2-3-4-5 2-18 1-1-4-1-3 20-2 3-1 5c0 7 2 14 4 18 5 8 11 11 13 13v5l-4-6-7-8h-1c-5-4-8-5-10-5l-1 2c-2 12 2 18 10 23 6 6 9 5 12 5v9l-5-5-1-1-8-5c-6-4-10-6-12-5l-1 2v1c1 10 5 15 12 19l-3 1v2c2 9 4 14 10 17l-4-1-7-6-10-7-4-4-8-7-7-9-3-8v-1h-3l6 16v1c1 3 2 6 6 11l1 2 7 10 1 1 8 10-2-1h-19c-8 2-11 7-13 11-2 3-3 6-3 10l2 1c4-8 5-9 7-10 3-2 6-4 15-4 7 0 9 1 16 4l5 4h-5l-5-1 3 3c0 2 3 3 3 3l2 3-7 2 5 1h1c-4 2-7 3-8 5l-8 16-3 9-1 3-1 3-2 7-4 6 3 1c1-1 8-8 16-10l25-6h2c2 0 6-2 9-5l3 7v-5s1-3 4-5l2-4c0 2 3 5 5 7l7 5 4 6 2-1 1-5v-1l10 22 4-2-12-26 1-1c2-2 2-4 2-6v-2l5-6 3-5 2-1h4l2-1-3-4Zm-41-50-3 7-4-11c2 0 5 0 10-3l2-1-5 8Zm-9-14v-7h6l-2 1-4 6Zm-4 14 1-2h1l2 6-1-1-6-3h3Zm17 36 4 8-7-6h-2v-1l5-1Zm9-2-2 6-3-7c2 0 4 0 7-2l-2 3Zm-7-18-2 8-3-7 8-3-3 2Zm-9 2 2 6-3-2c-4-3-8-4-9-4h-1v-1c7 2 9 1 11 1Z" fill="#7f7f7f"/><path d="M1430 136c1-3-3-20-5-20-3 0-8 14-8 18-1 3 2 16 3 17 1 0 10-12 10-15Z" fill="#989898"/><path d="M1420 169s11-6 17-13c3-4 5-12 4-14-1 0-11 3-20 17l-1 3h-2l-1-8c-1-5-11-19-13-19-3 2-1 19 2 23 0 0 6 11 13 13l1-2Z" fill="#989898"/><path d="m1419 178 2 1s4-10 21-18c0 0 1 13-8 19-8 5-11 5-11 5h-5v2s-2-2-3 0c0 0-5 0-9-4-4-3-11-7-10-22 0 0 2 0 12 9 0 0 5 4 8 12v2h3v-6Zm-1 26-10-11c-2-3-13-9-16-9 0 0-1 9 5 15 0 0 6 5 13 6h8v-1Zm2-2s0-7 6-12c0 0 9-9 17-10 0 0 0 11-6 16 0 0-12 10-17 6Z" fill="#989898"/><path d="m1425 221 2-1s2-9 5-14c0 0 8-8 12-10 0 0 4 10 0 16 0 0-4 7-10 10l-5 1-5 2s-2 1-11-2c0 0-11-2-13-17 0 0 2-1 15 6 0 0 5 2 8 7l2 2Z" fill="#989898"/><path d="M1418 230s6 1 12 7h2l2-1s0-5 5-11c0 0 5-8 12-13 0 0 2 8 0 13 0 0-2 8-10 14l-4 1h-3v1s-2 3-7 3l-3-7-6-7Zm24 18s2-7 6-11c0 0 6-9 8-9 0 0 6 11-2 19l-4-1v-2l-2-1s-2 4-6 5Zm17 1 4-4 2 9-6-5Zm-21 8 3-5 6-4s8 1 12 4c0 0 9 6 10 9 0 0-4 0-7 3s-11 1-11 0c0 0 4 14 2 18l-4 12s-2-4-5-6c0 0-9-4-11-12h-2l-2 6-3 4s-4-4-4-9c0 0 0-7 3-11l-2-1s3-4 7-5l-3-1s5-3 10-2h1Z" fill="#989898"/><path d="m1454 268 7-1-6 6-1-5Zm-26-19v2l6 4h1l-7-6Zm-6 4h5l4 2s-5 1-7 3c0 0 0-3-2-5Zm-3 8s3 0 2-4l-3-6-2 5s-1 5 3 5Zm-8-9 4 1 1-1s1-3-6-6c2 2 2 4 1 6Zm-2 1v-4l-2-1-3-1v4l2 2h3Zm-10 2 4-2-1-4h-3s-3 2-3 0l3 6Zm-1 2 3-1 3-1 2 5-1 1s-3 0-7-4Zm15 3v-5h-7s3 6 7 5Zm0 3c2 0 0 0 0 0l-5-2-5 3c1 1 2 2 5 2l2-1 3-2Zm2-17s-11-9-20-11c0 0-11-4-25-1 0 0-8 2-12 10 0 0 6-7 18-8 0 0 13-2 26 10v-3s4 3 6 2v-2l7 3Z" fill="#989898"/><path d="m1405 268-7-4 3-1-4-3s-7 3-11 10l-4 9-8 23s8-6 21-8l20-4s6-2 7-5c0 0-4-8-1-16h-2s-2 2-9 2l-5 3-1-3 1-3Z" fill="#989898"/><path d="M1406 175v2l9 7h2v-1l-10-8h-1Zm22 1-9 7v1h1l9-7v-1h-1Zm2 18-9 7v2h1l9-7v-2h-1Zm-24 3v2l12 5h1v-1l-12-6h-1Zm29 15-8 9v2l2-1 8-8v-2h-2Zm-25 5 1 2 12 4 1-1v-1l-13-4h-1Zm30 9-7 11v2h2l7-12-1-1h-1Zm-22 10 1 2 12 2h1l-1-2-12-2h-1Zm44 23s-3-2-7-2h-8l4-1h3v-1l-1-1h-2l-5 1-1 1-4 2h-3l-1-2-1 3s0 3-4 5l-1 1-4 4-1 1-2 6 1 1 1-1v-1l2-4v-1l2-1 1 1h1v-1l1-3 5-5 5 7-1 6v1h2v-1l1 3 2 8 2 1v-2l-2-7-2-10-5-7 7-1h8l6 2h1v-2Zm-41-126-1 17 1 1 1-1 1-17-1-1-1 1Zm6 22-9 11v1h2l9-10v-2h-2Zm-18-2-1 2 5 11 2 1 1-1-6-12-1-1Zm1 114c-5 0-9 4-11 7-2 1-3 2-3 4l-7 6c-2 2-7 3-7 3l-1 2h2l8-4 6-6 3-3 1-1c1-1 5-6 9-6l1-1-1-1Z" fill="#7f7f7f"/><path d="M1421 251h4v-7l-2-6-13-12-8-1s-2-4-15-12c0 0-12-9-17-17 0 0 1 9 12 22l13 15s12 2 22 13h2l2 5Zm-4 12s0 2-2 2l-4 2-2 1-1 1 7-1 3-3-1-2Z" fill="#989898"/><path d="M1623 65v17l29 2c10 1 15 12 16 17l32 74v1l-32 77c-4 8-8 13-16 15 0 0-37 5-65 5-29 0-66-5-66-5-9-2-13-8-16-15l-1-4-31-73 32-75c3-9 9-15 16-17l30-2V65l-43 4c-6 1-12 7-15 16l-38 90 38 91v1c3 10 8 14 15 15 0 0 44 5 79 5 34 0 76-5 79-5 8-2 12-7 15-16l38-91-38-90c-3-8-10-14-16-16-4-2-18-3-33-4h-9Z" fill="#7b7b7b"/><path d="M1583 130v-22l-20-19-1 21 21 20Z" fill="#989898"/><path d="M1582 126v-17l-17-17-1 17 18 17Zm3-19v26l-3-2-21-20v-1l1-21v-3l3 2 19 19h1Z" fill="#7f7f7f" fill-rule="nonzero"/><path d="M1583 98V76l-20-18-1 20 21 20Z" fill="#989898"/><path d="M1582 95V77l-17-16-1 17 18 17Zm3-19v26l-3-2-21-20v-2l1-21v-3l3 2 19 19 1 1Z" fill="#7f7f7f" fill-rule="nonzero"/><path d="M1583 67V46l-20-20-1 21 21 20Z" fill="#989898"/><path d="M1582 63V47l-17-17-1 16 18 17Zm3-18v26l-3-3-21-20v-1l1-21v-4l3 3 19 20h1Z" fill="#7f7f7f" fill-rule="nonzero"/><path d="M1591 130v-22l20-19 1 21-21 20Z" fill="#989898"/><path d="M1589 133v-26h1l20-19 2-2v3l1 21v1l-21 20-3 2Zm3-24v17l18-17-1-17-17 17Z" fill="#7f7f7f" fill-rule="nonzero"/><path d="M1591 98V76l20-18 1 20-21 20Z" fill="#989898"/><path d="M1589 102V76l1-1 20-19 2-2v3l1 21v2l-21 20-3 2Zm3-25v18l18-17-1-17-17 16Z" fill="#7f7f7f" fill-rule="nonzero"/><path d="M1591 67V46l20-20 1 21-21 20Z" fill="#989898"/><path d="M1589 71V45h1l22-23v4l1 21v1l-21 20-3 3Zm3-24v16l18-17-1-16-17 17Z" fill="#7f7f7f" fill-rule="nonzero"/><path d="M1587 40s16-18 0-37c-17 19 0 37 0 37Z" fill="#989898"/><path d="M1587 37c3-4 11-17 0-32-12 15-4 28 0 32Zm1-35c17 20 0 39 0 39l-1 1-2-1s-17-19 0-39l2-1 1 1Z" fill="#7f7f7f" fill-rule="nonzero"/><path d="M1514 239h21l16-77 24 77h24l24-77 15 77h22l-24-112h-25l-24 78-24-78h-25l-24 112Zm-103 100 1 2-16 30c3 2 9 5 22 5 14 0 21-4 23-5v-4c-18-2-24-8-25-10l-1-1 9-36-6 1-18-2 11 20Zm339-18-5-1 8 36-1 1c-1 2-7 8-25 9v5c2 1 8 5 23 5 13 0 19-3 22-5l-17-30 13-22-18 2Z" fill="#7f7f7f"/><path d="M1471 295c-3 1-12 5-25 5h-13l-14 55s6 8 25 8h2c20 0 26-8 26-8v-7l-12-6 11-47Zm278 60-14-55h-13c-16-1-23-5-25-6l13 48-14 7v6s6 8 26 8h2c19 0 25-8 25-8Zm-116-22c-3 1-5 4-5 8 2 6 5 9 8 8 3 0 4-4 3-7 0-5-3-9-6-9Zm-38 6c-2 2-4 4-4 8 1 4 5 5 7 5s6-1 5-5c0-4-4-6-8-8Zm4-7c2-1 3-3 3-7 0-2-2-4-5-4s-5 3-5 5 3 4 7 6Z" fill="#7f7f7f"/><path d="M1692 294c-10 4-41 14-107 14s-98-12-110-18l-1 6-10 44 9 4c18 8 56 20 112 20 54 0 92-12 110-19l11-5-14-46Zm-152 56-1 1h-3l-18-3c-1 0-3 0-2-1l1-2h4c2 0 3-1 4-3l4-21c0-3-3-3-5-3l-1 1-1-1v-4l18-1-6 31 1 3c1 2 6 2 5 3Zm37-28-18 33-9-1 19-28h-10c-4 0-5 4-5 3l-1-1v-9l2-1 22 1v3Zm21 34c-9 0-16-4-16-10 0-5 6-8 9-9-4-3-8-6-8-9-1-7 7-10 14-10s14 2 14 8c0 5-6 7-8 8 4 3 10 5 11 11 0 6-7 11-16 11Zm38-3c-9 1-16-3-17-13-2-11 4-23 22-27l1 1-1 3c-11 2-13 10-14 15l8-3c8-1 12 3 13 10 1 8-5 13-12 14Z" fill="#7f7f7f"/><path d="M1597 321c3 0 5 2 5 4 0 4-1 6-3 7-4-2-7-4-7-6s2-5 5-5Zm1 31c-2 0-6-1-7-5 0-4 2-6 4-8 4 2 8 4 8 8 1 4-3 5-5 5Zm38-3c-3 1-6-2-8-8 0-4 2-7 5-8 3 0 6 4 6 9 1 3 0 7-3 7Z" fill="#7f7f7f"/></svg>