<svg viewBox="0 0 295 99" xmlns="http://www.w3.org/2000/svg" xml:space="preserve" fill-rule="evenodd" clip-rule="evenodd" stroke-linejoin="round" stroke-miterlimit="2"><path d="m161 1-16 3 35 11 12-2v-1L161 1Zm-56 16c-24 0-36 17-36 35 0 15 8 33 35 33l32 13 17-3v-1l-31-10h-4c12-3 24-17 24-32 0-18-11-35-37-35ZM1 19v41c0 17 13 25 29 25 20 0 29-12 29-26V19H48v36c0 10-3 22-17 22-8 0-15-5-15-17V19H1Zm172 0-29 65h11l8-19h24l7 19h16l-30-65h-7Zm51 0-9 65h11l4-43 20 43h5l19-43 4 43h16l-9-65h-9l-22 44-21-44h-9Zm-119 4c16 0 22 14 21 29 0 15-8 27-21 27S84 67 84 52c1-15 6-29 21-29Zm69 11 10 24h-19l9-24Z" fill="#7e7e7e" fill-rule="nonzero"/></svg>