<svg viewBox="0 0 6357 1635" xmlns="http://www.w3.org/2000/svg" xml:space="preserve" style="fill-rule:evenodd;clip-rule:evenodd;stroke-linejoin:round;stroke-miterlimit:2"><path d="M196.161.679C87.824.679 0 88.503 0 196.84 0 305.176 87.824 393 196.161 393c108.336 0 196.161-87.824 196.161-196.16C392.322 88.503 304.497.679 196.161.679Zm0 23.302c46.172 0 89.581 17.98 122.23 50.629 32.649 32.648 50.629 76.057 50.629 122.23 0 46.172-17.98 89.581-50.629 122.23-32.649 32.648-76.058 50.629-122.23 50.629-46.173 0-89.581-17.981-122.231-50.629-32.649-32.649-50.629-76.058-50.629-122.23 0-46.173 17.98-89.582 50.629-122.23 32.65-32.649 76.058-50.629 122.231-50.629Z" style="fill:#7e7e7e;fill-rule:nonzero" transform="translate(0 -2.83) scale(4.16667)"/><path d="M207.811 146.729c0 21.207 17.254 38.46 38.461 38.46h48.968V98.137h-87.429v48.592Z" style="fill:#7e7e7e;fill-rule:nonzero" transform="translate(0 -2.83) scale(4.16667)"/><path d="M246.272 208.49c-34.056 0-61.762-27.706-61.762-61.761V98.137H97.082V258.46c0 21.18 16.589 33.412 37.411 38.922 20.827 5.5 62.128 16.421 62.128 16.421s40.374-10.921 61.207-16.421c20.822-5.51 37.412-17.742 37.412-38.922v-49.97h-48.968Z" style="fill:#a6a6a6;fill-rule:nonzero" transform="translate(0 -2.83) scale(4.16667)"/><path d="M487.033 309.077h-21.139V208.482h34.26l21.869 69.687 22.014-69.687h32.948v100.595h-21.139v-77.414l-24.055 77.414h-20.702l-24.056-77.705v77.705Zm154.186-23.107c3.157-3.547 4.738-7.993 4.738-13.34 0-5.442-1.556-9.914-4.665-13.413-3.112-3.498-7.144-5.248-12.101-5.248-4.957 0-9.016 1.75-12.173 5.248-3.16 3.499-4.739 7.971-4.739 13.413 0 5.347 1.579 9.793 4.739 13.34 3.157 3.549 7.216 5.32 12.173 5.32 4.859 0 8.868-1.771 12.028-5.32Zm-32.001 20.41c-6.027-3.353-10.766-7.994-14.214-13.923-3.451-5.927-5.176-12.538-5.176-19.827 0-7.385 1.725-14.019 5.176-19.9 3.448-5.88 8.187-10.497 14.214-13.85 6.026-3.354 12.684-5.03 19.973-5.03 7.29 0 13.923 1.676 19.9 5.03 5.978 3.353 10.716 7.97 14.215 13.85 3.499 5.881 5.249 12.515 5.249 19.9 0 7.289-1.75 13.9-5.249 19.827-3.499 5.929-8.237 10.57-14.215 13.923-5.977 3.353-12.61 5.03-19.9 5.03-7.289 0-13.947-1.677-19.973-5.03Zm132.025-65.241c4.521 4.763 6.781 11.179 6.781 19.244v48.694h-22.161v-42.716c0-3.594-.924-6.534-2.769-8.819-1.847-2.284-4.812-3.427-8.893-3.427-3.987 0-7.097 1.191-9.332 3.572-2.236 2.383-3.352 5.371-3.352 8.965v42.425h-22.161v-72.895h21.723v7.436c2.624-2.916 5.854-5.248 9.695-6.998 3.838-1.75 7.945-2.624 12.32-2.624 7.581 0 13.631 2.383 18.149 7.143Zm43.139 68.521c-5.444 0-9.453-1.287-12.027-3.863-2.577-2.575-3.864-6.634-3.864-12.174v-40.529h-13.267v-16.329c4.666-.193 8.285-1.116 10.862-2.769 2.574-1.651 4.324-4.033 5.248-7.144.923-3.109 1.433-7.239 1.53-12.392h16.766v21.722h17.058v16.912h-16.474v33.677c0 1.848.364 3.135 1.093 3.863.729.73 2.016 1.094 3.864 1.094h11.517v17.932h-22.306Zm82.575-74.79v23.91a33.683 33.683 0 0 0-5.249-.436c-5.929 0-10.911 1.556-14.943 4.664-4.035 3.111-6.05 8.068-6.05 14.87v31.199h-22.16v-72.895h21.577v12.392c2.719-4.275 6.389-7.629 11.006-10.059 4.616-2.428 9.55-3.645 14.798-3.645h1.021Zm52.512-6.852h-20.41l12.246-19.536h27.846l-19.682 19.536Zm-20.046 26.534c-3.062 2.333-4.982 5.492-5.759 9.476h33.24c-.68-3.984-2.528-7.143-5.539-9.476-3.014-2.333-6.561-3.499-10.643-3.499-4.472 0-8.237 1.166-11.299 3.499Zm-6.05 22.743c.679 4.666 2.599 8.408 5.759 11.226 3.157 2.82 6.973 4.228 11.444 4.228 4.083 0 7.264-.729 9.55-2.187 2.282-1.458 4.104-3.645 5.466-6.56h22.452c-1.167 5.152-3.524 9.817-7.071 13.995-3.549 4.18-7.97 7.461-13.266 9.841-5.299 2.38-11.008 3.572-17.131 3.572-7.777 0-14.579-1.654-20.411-4.957-5.831-3.303-10.35-7.895-13.558-13.777-3.207-5.879-4.811-12.561-4.811-20.046 0-7.385 1.651-14.019 4.957-19.9 3.303-5.88 7.92-10.497 13.85-13.85 5.927-3.354 12.684-5.03 20.265-5.03 7.676 0 14.36 1.726 20.046 5.176 5.686 3.451 10.034 8.188 13.048 14.214 3.012 6.027 4.52 12.829 4.52 20.41 0 1.362-.051 2.577-.146 3.645h-54.963Zm113.947 8.747c3.01-3.499 4.52-7.968 4.52-13.412 0-5.344-1.53-9.791-4.59-13.34-3.06-3.547-7.07-5.321-12.029-5.321-4.957 0-8.966 1.75-12.027 5.248-3.062 3.499-4.593 7.971-4.593 13.413 0 5.444 1.531 9.913 4.593 13.412 3.061 3.5 7.07 5.248 12.027 5.248 5.049 0 9.089-1.748 12.099-5.248Zm3.94-49.86h22.16v72.895h-22.16v-8.309c-2.33 3.111-5.37 5.637-9.11 7.58-3.746 1.944-7.95 2.917-12.615 2.917-6.512 0-12.296-1.677-17.349-5.031-5.055-3.353-8.991-7.895-11.809-13.631-2.82-5.733-4.228-12.148-4.228-19.244 0-7.191 1.554-13.8 4.666-19.828 3.109-6.025 7.337-10.788 12.683-14.287 5.345-3.499 11.226-5.248 17.641-5.248 4.47 0 8.43.947 11.881 2.842 3.45 1.895 6.2 4.399 8.24 7.508v-8.164Zm37.46-27.7h22.16v100.595h-22.16zm-557.111-27.817c-7.951-4.357-14.223-10.438-18.82-18.246-4.597-7.804-6.895-16.736-6.895-26.792 0-9.96 2.298-18.892 6.895-26.794 4.597-7.901 10.869-14.053 18.82-18.46 7.949-4.404 16.712-6.609 26.29-6.609 8.62 0 16.497 1.702 23.633 5.101 7.133 3.401 13.049 8.214 17.743 14.437 4.69 6.227 7.804 13.411 9.338 21.55h-23.562c-1.82-6.321-5.1-11.278-9.841-14.869-4.74-3.592-10.511-5.388-17.311-5.388-5.365 0-10.225 1.293-14.581 3.88-4.359 2.585-7.783 6.227-10.272 10.917-2.492 4.694-3.735 10.057-3.735 16.091 0 5.939 1.243 11.255 3.735 15.947 2.489 4.694 5.913 8.357 10.272 10.989 4.356 2.637 9.216 3.952 14.581 3.952 6.512 0 12.116-1.653 16.809-4.957 4.691-3.304 8.045-7.973 10.056-14.007h23.561c-1.629 7.951-4.79 14.941-9.482 20.975-4.693 6.034-10.584 10.68-17.67 13.935-7.089 3.255-14.847 4.885-23.274 4.885-9.578 0-18.341-2.178-26.29-6.537Zm133.922-18.389c3.111-3.495 4.669-7.876 4.669-13.145 0-5.362-1.533-9.769-4.598-13.217-3.066-3.448-7.039-5.172-11.923-5.172-4.885 0-8.885 1.724-11.997 5.172-3.113 3.448-4.668 7.855-4.668 13.217 0 5.269 1.555 9.65 4.668 13.145 3.112 3.498 7.112 5.244 11.997 5.244 4.787 0 8.739-1.746 11.852-5.244Zm-31.534 20.113c-5.94-3.304-10.609-7.876-14.007-13.719-3.401-5.842-5.1-12.356-5.1-19.539 0-7.277 1.699-13.814 5.1-19.61 3.398-5.794 8.067-10.344 14.007-13.648 5.937-3.305 12.498-4.956 19.682-4.956 7.183 0 13.719 1.651 19.61 4.956 5.889 3.304 10.559 7.854 14.007 13.648 3.448 5.796 5.172 12.333 5.172 19.61 0 7.183-1.724 13.697-5.172 19.539-3.448 5.843-8.118 10.415-14.007 13.719-5.891 3.304-12.427 4.956-19.61 4.956-7.184 0-13.745-1.652-19.682-4.956Zm69.229-96.469h21.838v99.127h-21.838zm36.618 0h21.838v99.127h-21.838zm60.064 45.397c-3.017 2.299-4.908 5.412-5.674 9.338h32.755c-.671-3.926-2.492-7.039-5.459-9.338-2.97-2.299-6.465-3.448-10.488-3.448-4.406 0-8.117 1.149-11.134 3.448Zm22.341-26.147h-20.113l-19.395-19.25h27.583l11.925 19.25Zm-28.302 48.558c.669 4.598 2.561 8.285 5.675 11.062 3.111 2.78 6.871 4.166 11.277 4.166 4.023 0 7.158-.718 9.41-2.154 2.249-1.437 4.045-3.592 5.387-6.465h22.124c-1.149 5.077-3.472 9.675-6.967 13.791-3.498 4.12-7.854 7.352-13.073 9.697-5.222 2.347-10.847 3.52-16.881 3.52-7.663 0-14.366-1.63-20.113-4.884-5.747-3.255-10.2-7.781-13.36-13.576-3.161-5.794-4.741-12.378-4.741-19.754 0-7.277 1.627-13.814 4.884-19.61 3.255-5.794 7.805-10.344 13.648-13.648 5.841-3.305 12.499-4.956 19.97-4.956 7.564 0 14.15 1.701 19.753 5.1 5.603 3.401 9.888 8.069 12.858 14.007 2.968 5.939 4.453 12.642 4.453 20.112 0 1.342-.049 2.539-.143 3.592h-54.161Zm112.027 6.824c3.111-3.398 4.669-7.636 4.669-12.714 0-5.172-1.533-9.433-4.597-12.786-3.067-3.351-7.039-5.028-11.924-5.028-4.982 0-9.029 1.677-12.14 5.028-3.113 3.353-4.669 7.614-4.669 12.786s1.58 9.434 4.741 12.787c3.16 3.353 7.183 5.028 12.068 5.028 4.788 0 8.739-1.7 11.852-5.101Zm4.526-47.337h20.255v66.66c0 7.183-1.557 13.383-4.668 18.604-3.114 5.219-7.496 9.195-13.146 11.925-5.652 2.729-12.21 4.094-19.682 4.094-10.153 0-18.294-2.324-24.422-6.968-6.131-4.647-9.818-10.703-11.062-18.174h21.118c.766 2.202 2.419 4.023 4.957 5.46 2.536 1.436 5.769 2.155 9.697 2.155 5.363 0 9.577-1.533 12.642-4.598 3.065-3.066 4.598-7.279 4.598-12.641v-6.034c-2.492 3.066-5.746 5.531-9.769 7.398-4.022 1.868-8.429 2.801-13.217 2.801-6.418 0-12.093-1.555-17.024-4.668-4.934-3.111-8.764-7.375-11.494-12.787-2.729-5.409-4.094-11.468-4.094-18.173 0-6.703 1.509-12.905 4.526-18.604 3.017-5.697 7.134-10.223 12.355-13.577 5.219-3.351 10.99-5.028 17.311-5.028 4.501 0 8.57.862 12.211 2.586 3.639 1.724 6.609 4.023 8.908 6.896v-7.327Zm58.181 18.102c-3.017 2.299-4.909 5.412-5.675 9.338h32.755c-.67-3.926-2.491-7.039-5.458-9.338-2.971-2.299-6.465-3.448-10.488-3.448-4.406 0-8.117 1.149-11.134 3.448Zm-5.962 22.411c.669 4.598 2.561 8.285 5.675 11.062 3.111 2.78 6.871 4.166 11.277 4.166 4.023 0 7.158-.718 9.411-2.154 2.248-1.437 4.044-3.592 5.386-6.465h22.124c-1.149 5.077-3.472 9.675-6.967 13.791-3.498 4.12-7.854 7.352-13.073 9.697-5.222 2.347-10.847 3.52-16.881 3.52-7.663 0-14.366-1.63-20.113-4.884-5.746-3.255-10.199-7.781-13.36-13.576-3.16-5.794-4.741-12.378-4.741-19.754 0-7.277 1.627-13.814 4.885-19.61 3.254-5.794 7.804-10.344 13.647-13.648 5.842-3.305 12.5-4.956 19.97-4.956 7.564 0 14.151 1.701 19.754 5.1 5.602 3.401 9.887 8.069 12.857 14.007 2.968 5.939 4.454 12.642 4.454 20.112 0 1.342-.05 2.539-.144 3.592h-54.161Zm175.551 31.319h-75.42V85.92h23.13v78.87h52.29v20.257Zm55.73-22.699c2.97-3.448 4.45-7.853 4.45-13.217 0-5.266-1.51-9.648-4.52-13.146-3.02-3.494-6.97-5.243-11.85-5.243-4.89 0-8.84 1.724-11.86 5.172-3.01 3.448-4.52 7.855-4.52 13.217 0 5.364 1.51 9.769 4.52 13.217 3.02 3.448 6.97 5.172 11.86 5.172 4.97 0 8.95-1.724 11.92-5.172Zm3.88-49.133h21.84v71.832h-21.84v-8.189c-2.3 3.066-5.29 5.555-8.98 7.47-3.69 1.915-7.83 2.874-12.43 2.874-6.41 0-12.11-1.653-17.09-4.956-4.98-3.305-8.86-7.781-11.64-13.433-2.78-5.65-4.17-11.971-4.17-18.964 0-7.086 1.53-13.598 4.6-19.538 3.06-5.937 7.23-10.631 12.5-14.079 5.27-3.447 11.06-5.172 17.38-5.172 4.41 0 8.31.934 11.71 2.801 3.4 1.868 6.11 4.335 8.12 7.399v-8.045Zm48.14 65.151c-7.81-5.89-12.34-13.91-13.58-24.063h22.7c1.63 4.502 4.26 7.782 7.9 9.841 3.64 2.06 7.9 3.088 12.79 3.088 4.4 0 8.04-.909 10.92-2.729 2.87-1.818 4.31-4.26 4.31-7.327 0-3.16-1.44-5.578-4.31-7.255-2.88-1.675-7.81-3.136-14.8-4.382l-7.9-1.436c-8.62-1.628-15.69-4.813-21.19-9.554-5.51-4.741-8.26-11.181-8.26-19.322 0-5.938 1.62-11.301 4.88-16.091 3.26-4.787 7.83-8.547 13.72-11.277 5.89-2.729 12.62-4.095 20.19-4.095 11.2 0 20.25 2.802 27.15 8.405 6.89 5.603 11.2 13.385 12.93 23.345h-22.41c-2.78-8.139-8.72-12.212-17.82-12.212-4.4 0-8.04.959-10.92 2.874-2.87 1.917-4.31 4.406-4.31 7.47 0 3.067 1.32 5.316 3.95 6.752 2.64 1.437 7.07 2.779 13.29 4.023l7.9 1.58c9.68 1.917 17.36 5.173 23.06 9.769 5.7 4.598 8.55 11.112 8.55 19.539 0 6.13-1.63 11.614-4.88 16.449-3.26 4.837-7.83 8.62-13.72 11.349-5.89 2.73-12.77 4.095-20.62 4.095-11.88 0-21.72-2.945-29.52-8.836Zm128.4-16.018c2.97-3.448 4.46-7.853 4.46-13.217 0-5.266-1.51-9.648-4.53-13.146-3.02-3.494-6.97-5.243-11.85-5.243-4.89 0-8.84 1.724-11.85 5.172-3.02 3.448-4.53 7.855-4.53 13.217 0 5.364 1.51 9.769 4.53 13.217 3.01 3.448 6.96 5.172 11.85 5.172 4.98 0 8.95-1.724 11.92-5.172Zm3.88-49.133h21.84v71.832h-21.84v-8.189c-2.3 3.066-5.29 5.555-8.98 7.47-3.69 1.915-7.83 2.874-12.42 2.874-6.42 0-12.12-1.653-17.1-4.956-4.98-3.305-8.86-7.781-11.64-13.433-2.78-5.65-4.16-11.971-4.16-18.964 0-7.086 1.53-13.598 4.59-19.538 3.07-5.937 7.23-10.631 12.5-14.079 5.27-3.447 11.06-5.172 17.39-5.172 4.4 0 8.3.934 11.7 2.801 3.4 1.868 6.11 4.335 8.12 7.399v-8.045Zm36.98-27.295h21.84v99.127h-21.84zm38.6 0h23.13v99.127h-23.13zm63.34 45.397c-3.02 2.299-4.91 5.412-5.68 9.338h32.76c-.67-3.926-2.49-7.039-5.46-9.338-2.97-2.299-6.46-3.448-10.49-3.448-4.4 0-8.11 1.149-11.13 3.448Zm-5.96 22.411c.67 4.598 2.56 8.285 5.67 11.062 3.11 2.78 6.87 4.166 11.28 4.166 4.02 0 7.16-.718 9.41-2.154 2.25-1.437 4.04-3.592 5.39-6.465h22.12c-1.15 5.077-3.47 9.675-6.97 13.791-3.49 4.12-7.85 7.352-13.07 9.697-5.22 2.347-10.85 3.52-16.88 3.52-7.66 0-14.37-1.63-20.11-4.884-5.75-3.255-10.2-7.781-13.36-13.576-3.16-5.794-4.75-12.378-4.75-19.754 0-7.277 1.63-13.814 4.89-19.61 3.25-5.794 7.8-10.344 13.65-13.648 5.84-3.305 12.5-4.956 19.97-4.956 7.56 0 14.15 1.701 19.75 5.1 5.6 3.401 9.89 8.069 12.86 14.007 2.97 5.939 4.45 12.642 4.45 20.112 0 1.342-.05 2.539-.14 3.592h-54.16Z" style="fill:#7e7e7e;fill-rule:nonzero" transform="translate(0 -2.83) scale(4.16667)"/></svg>