<svg xmlns="http://www.w3.org/2000/svg" xmlns:xlink="http://www.w3.org/1999/xlink" xml:space="preserve" style="fill-rule:evenodd;clip-rule:evenodd;stroke-linejoin:round;stroke-miterlimit:2" viewBox="0 0 256 47">
  <defs>
    <path id="a" d="M40.3 40.3h190.5v34H40.3z" clip-rule="nonzero"/>
    <path id="c" d="M0 10.5V0h1.5v9.2h4.9v1.3H0Z" style="fill:#7e7e7e;fill-rule:nonzero"/>
    <path id="d" d="M0 13.9h-2.5L-4 6.3-7 14h-.9l-2.9-7.8-1.6 7.6h-2.5l3-14.1h1.3l3.2 9.5 3-9.5H-3l3 14Z" style="fill:#7e7e7e;fill-rule:nonzero"/>
    <path id="e" d="M0-.2C0-2.2.6-4 1.7-5.3c1.1-1.4 2.6-2 4.5-2 2.1 0 3.7.5 4.8 1.8 1.1 1.2 1.7 3 1.7 5.3a8 8 0 0 1-1.8 5.4 6.1 6.1 0 0 1-4.9 2c-2 0-3.4-.7-4.4-2A8.5 8.5 0 0 1 0-.2m2.7 0a8 8 0 0 0 .8 3.8c.6.9 1.4 1.3 2.5 1.3 1.3 0 2.3-.4 3-1.3.7-.9 1-2.2 1-3.8 0-3.3-1.3-5-3.8-5a3 3 0 0 0-2.6 1.4c-.6.9-1 2-1 3.6" style="fill:#7e7e7e;fill-rule:nonzero"/>
    <path id="f" d="m0 14.2-7-8.8V14h-2.5V0h1.2l6.9 8.5V0H1v14.2H0Z" style="fill:#7e7e7e;fill-rule:nonzero"/>
  </defs>
  <g transform="translate(-52.2 -52.4) scale(1.33333)">
    <clipPath id="b">
      <use xlink:href="#a" clip-rule="nonzero"/>
    </clipPath>
    <g clip-path="url(#b)">
      <path d="M-17-17c-9.2 0-16.6 7.6-16.6 17s7.4 17 16.5 17C-7.9 17-.5 9.5-.5 0S-8-17-17.1-17" style="fill:#b3b3b3;fill-rule:nonzero;stroke:#b3b3b3;stroke-width:.75px" transform="matrix(0 -1 -1 0 57.4 40.7)"/>
      <path d="M0-28.6c.3-.1 4.2-1 5.9 3.5 1.7 4.6 6.7 17 15.2 23.4C24.8 1 22.8-.6 22.8-.6l-.7 1s-1.3-1.4-2-1.8c-.7-.4-1.8-.2-2.1.2-.3.4-.2 1.3-2-.4-1.8-1.8-6.1-5-8.7-10.4-2.4-5.1-2.6-8.5-2.9-8.7-.3-.2-.3 0-.8 1.7-1 3.2-2.5 6-4.5 9.3-3.3 5.2-10.6 9-10.6 9S-3.9-8.4-1.2-14c2-4 3-5.5 3.2-6.7.2-1.2.1-1.3.4-2.2.2-.8.6-.9.4-1.7-.3-.8-.3-2.1-.9-2.4-.6-.3-1.2-.4-1.6-.9-.3-.5-.6-.8-.3-.8" style="fill:#7e7e7e;fill-rule:nonzero" transform="translate(52 69.4)"/>
      <path d="M0-28.6c.3-.1 4.2-1 5.9 3.5 1.7 4.6 6.7 17 15.2 23.4C24.8 1 22.8-.6 22.8-.6l-.7 1s-1.3-1.4-2-1.8c-.7-.4-1.8-.2-2.1.2-.3.4-.2 1.3-2-.4-1.8-1.8-6.1-5-8.7-10.4-2.4-5.1-2.6-8.5-2.9-8.7-.3-.2-.3 0-.8 1.7-1 3.2-2.5 6-4.5 9.3-3.3 5.2-10.6 9-10.6 9S-3.9-8.4-1.2-14c2-4 3-5.5 3.2-6.7.2-1.2.1-1.3.4-2.2.2-.8.6-.9.4-1.7-.3-.8-.3-2.1-.9-2.4-.6-.3-1.2-.4-1.6-.9-.3-.5-.6-.8-.3-.8Z" style="fill:none;fill-rule:nonzero;stroke:#7e7e7e;stroke-width:.65px;stroke-linejoin:miter;stroke-miterlimit:4" transform="translate(52 69.4)"/>
      <path d="m0-9.8-.5 1.3A4 4 0 0 0-2.8-9c-1 0-1.7.4-2.3 1.2-.5.7-.8 1.8-.8 3s.3 2.2.9 3c.5.7 1.3 1 2.3 1 1 0 1.8-.3 2.3-1L.4-.7C-.4.1-1.6.6-2.9.6-4.3.6-5.5 0-6.3-1a6 6 0 0 1-1.2-4 6 6 0 0 1 1.3-3.9c.9-1 2-1.5 3.4-1.5a7 7 0 0 1 2.8.5" style="fill:#7e7e7e;fill-rule:nonzero" transform="translate(96.7 54.8)"/>
      <path d="M0-.2A6 6 0 0 1 1.2-4C2-5 3-5.5 4.4-5.5c1.5 0 2.7.4 3.5 1.4C8.7-3.1 9-2 9-.1c0 1.7-.4 3-1.2 4-.8 1-2 1.5-3.5 1.5-1.4 0-2.5-.6-3.2-1.6A7 7 0 0 1 0-.2m1.6 0c0 1.2.2 2.2.7 3 .5.9 1.2 1.3 2.1 1.3 1 0 1.8-.4 2.3-1.1.6-.8.8-1.8.8-3.2 0-2.7-1-4-3.1-4-1 0-1.6.3-2.1 1-.5.8-.7 1.8-.7 3" style="fill:#7e7e7e;fill-rule:nonzero" transform="translate(98.2 50)"/>
      <use xlink:href="#c" style="fill:#7e7e7e;fill-rule:nonzero" transform="translate(108.8 44.6)"/>
      <use xlink:href="#c" style="fill:#7e7e7e;fill-rule:nonzero" transform="translate(116.4 44.6)"/>
      <path d="M0-4.7v3h3.5v1.2H0v3.8h5v1.2h-6.5V-6H5v1.3H0Zm1.8-2.1L0-9.2h1.5l1.2 2.4h-1Z" style="fill:#7e7e7e;fill-rule:nonzero" transform="translate(125.4 50.6)"/>
      <path d="m0-9-.6 1c-.8-.5-1.5-.8-2.2-.8-1.2 0-2 .4-2.7 1.2-.7.7-1 1.8-1 3 0 1.3.3 2.3 1 3C-5-.8-4-.4-3-.4c.8 0 1.4-.2 2-.7v-2.4h-1.6v-1.3h3v4.6L-1 .6l-2.1.3C-4.7.9-6 .4-6.8-.6c-.8-1-1.3-2.3-1.3-4 0-1.5.5-2.9 1.5-3.9A5 5 0 0 1-2.8-10c1.2 0 2 .3 2.8 1" style="fill:#7e7e7e;fill-rule:nonzero" transform="translate(139.4 54.4)"/>
      <path d="M0-8v3h3.5v1.2H0V0h5v1.3h-6.5V-9.2H5V-8H0Z" style="fill:#7e7e7e;fill-rule:nonzero" transform="translate(143.5 53.8)"/>
      <use xlink:href="#d" style="fill:#7e7e7e;fill-rule:nonzero" transform="translate(104 59.3)"/>
      <use xlink:href="#e" style="fill:#7e7e7e;fill-rule:nonzero" transform="translate(104.4 66.2)"/>
      <use xlink:href="#f" style="fill:#7e7e7e;fill-rule:nonzero" transform="translate(128.4 59)"/>
      <path d="M0-9.6V2.2h-2.6V-9.6h-4.6v-2.2h12v2.2H0Z" style="fill:#7e7e7e;fill-rule:nonzero" transform="translate(137.8 71)"/>
      <use xlink:href="#d" style="fill:#7e7e7e;fill-rule:nonzero" transform="translate(157.4 59.3)"/>
      <use xlink:href="#e" style="fill:#7e7e7e;fill-rule:nonzero" transform="translate(157.7 66.2)"/>
      <path d="m0 14.2-3.9-5.8h-1.6v5.8h-2.7V.2a67.2 67.2 0 0 0 4-.2c3.7 0 5.6 1.4 5.6 4.1C1.4 5 1 5.7.6 6.4c-.5.7-1.1 1.2-2 1.5L3 14.2H0ZM-5.5 2.3v3.9h1c1.2 0 2 0 2.5-.4.5-.3.7-.8.7-1.7 0-.7-.3-1.2-.8-1.4-.5-.3-1.4-.5-2.5-.5a7 7 0 0 0-.9.1" style="fill:#7e7e7e;fill-rule:nonzero" transform="translate(180.4 59)"/>
      <path d="M0-9.6v3.3h4.7v2.1H0V0h6.6v2.2h-9.2v-14h9.2v2.2H0Z" style="fill:#7e7e7e;fill-rule:nonzero" transform="translate(186.6 71)"/>
      <use xlink:href="#f" style="fill:#7e7e7e;fill-rule:nonzero" transform="translate(204.6 59)"/>
      <clipPath id="g">
        <use xlink:href="#a" clip-rule="nonzero"/>
      </clipPath>
      <g clip-path="url(#g)">
        <path d="m0-12.6-1 2c-.6-.5-1.6-.7-2.8-.7-1.3 0-2.3.5-3 1.4C-7.6-8.9-8-7.6-8-6s.4 2.6 1 3.5c.8 1 1.8 1.4 3 1.4A4 4 0 0 0-.8-2.6l1.2 2C-.6.4-2.2 1-4.2 1A6 6 0 0 1-9-1a7.8 7.8 0 0 1-1.7-5.3c0-2 .7-3.8 2-5.2a6.1 6.1 0 0 1 4.7-2c1.7 0 3 .3 4 1" style="fill:#7e7e7e;fill-rule:nonzero" transform="translate(218 72.4)"/>
        <path d="M0 2.5v5.8h-2.6V2.5l-4.9-8.3h2.8l3.4 6 3.5-6h2.7L0 2.5Z" style="fill:#7e7e7e;fill-rule:nonzero" transform="translate(226 64.9)"/>
      </g>
    </g>
  </g>
</svg>
