<?xml version="1.0" encoding="UTF-8" standalone="no"?>
<!DOCTYPE svg PUBLIC "-//W3C//DTD SVG 1.1//EN" "http://www.w3.org/Graphics/SVG/1.1/DTD/svg11.dtd">
<svg viewBox="0 40 2550 3260" xmlns="http://www.w3.org/2000/svg" xml:space="preserve" fill-rule="evenodd" clip-rule="evenodd" stroke-linejoin="round" stroke-miterlimit="2">
  <path fill="none" d="M0 0h2550v3300H0z"/>
  <clipPath id="a">
    <path d="M0 0h2550v3300H0z"/>
  </clipPath>
  <g clip-path="url(#a)">
    <path fill="url(#b)" d="M-17.51-37.21h2588.8v3366.39H-17.51z"/>
    <path d="m-81.28 2004.26 39.39-116.13 1766.36 190.23 26.13 140.63-1489.1-190.61 509.2 142.24 7.9 297.18-859.88-463.54Z" fill="url(#c)" transform="translate(-63.66)"/>
    <path d="m1364.17 2087.25 335.52 783.68 139.01 132.46-274.21-690.75-200.32-225.39Z" fill="url(#d)" transform="translate(-849.39 154.53)"/>
    <path d="m1379.47 2072.94-142.5 333.24 203.45 551.76 270.17-756.68-331.12-128.32Z" fill="url(#e)" transform="translate(-17.5)"/>
    <path d="m1210.76 2338.17 229.2 620.93 265.76-744.08 294.62-72.05-332.25 957.79 226.75 232.94-906.64 12.9 60.77-86.47-316.5-792.54 478.29-129.42Z" fill="url(#f)" transform="translate(-17.5)"/>
    <path d="M0-79.58-23.93-21.7c-1.84 4.74-3.58 9.22-5.26 13.62a858.5 858.5 0 0 0-15.05 42.1l73.2-11.5A1143.44 1143.44 0 0 1 45.73-28.3c1.87-5.28 3.8-10.67 5.84-16.35l26.36-68.95L0-79.58Z" fill="url(#g)" fill-rule="nonzero" transform="translate(1347.37 1023.69) scale(4.16667)"/>
    <path d="M0 15.15a1163.28 1163.28 0 0 1-15.64-37.18c-2.36-5.85-4.63-11.59-6.92-17.35a5779.29 5779.29 0 0 0-7.04-17.64l-72.66-10.72c2.17 4.96 4.23 9.78 6.3 14.58 2.04 4.77 4.08 9.52 6.2 14.37a1123 1123 0 0 0 6.6 14.9A871.44 871.44 0 0 0-75.7-7.8l25.47 56.96L28.04 82.5 0 15.15Z" fill="url(#h)" fill-rule="nonzero" transform="translate(1570.17 1873.31) scale(4.16667)"/>
    <path d="m0-517.64-48.9 53.7L55.31-261.68-53.23-54.2-5.2 0l127.55-262.19L0-517.63Z" fill="url(#i)" fill-rule="nonzero" transform="translate(736.57 2467.62) scale(4.16667)"/>
    <path d="m0-517.64-48.9 53.7L55.31-261.68-53.23-54.2-5.2 0l127.55-262.19L0-517.63Z" fill="url(#j)" fill-rule="nonzero" transform="translate(736.57 2467.62) scale(4.16667)"/>
    <path d="m0-366.38-78.04 177.71L3.69-2.27l-70.95 18.16-28.02-67.74a1084.28 1084.28 0 0 1-15.64-37.19c-2.36-5.85-4.63-11.58-6.92-17.35-2.3-5.8-4.61-11.62-7.04-17.64l-1.02.07c-1.8 6.36-3.7 12.59-5.71 18.86a908.94 908.94 0 0 1-6.44 19.19c-2.28 6.58-4.7 13.38-7.24 20.55-2.57 7.22-5.28 14.83-8.14 23l-31.75 88.44-115.38 29.55L-173-186.56-295.35-442l114.85 29.4 33.04 88.87c2.7 7.12 5.2 13.84 7.57 20.31a1711.55 1711.55 0 0 1 13.01 36.78c2.04 5.97 4.05 11.99 6.08 18.17l1 .08a1146.99 1146.99 0 0 1 16.78-50.81c1.87-5.29 3.8-10.67 5.83-16.35l26.37-68.96L0-366.38Z" fill="url(#k)" fill-rule="nonzero" transform="translate(1967.17 2152.5) scale(4.16667)"/>
    <path d="M935.1 3072.15a22.73 22.73 0 0 1-7.28-6.61 14.94 14.94 0 0 1-2.24-5.68c-.17-2.8.05-5.6.66-8.33a19.6 19.6 0 0 1 6.08-9.92l5.42-3.96a92.82 92.82 0 0 1 27.5-8.86l1.31-.13 1.33-.27 1.32-.13c1.33-.13 2.65-.31 3.96-.53a88.2 88.2 0 0 1 12.3-.52h2.11c.57.1 1.14.15 1.72.13h1.72c.44.07.88.11 1.32.13h.93c.3.08.6.13.92.13h.13l.14.27h.13l.26.13v.26h.13v.8l-.13.26h-.53v.26l-.26.14v.13l-.27.13-.4.4h-.12l-.14.13-.26.13-.66.66-.13.27h-.27v.26h-.13v.27l-.53.26-.13.26-.27.27-.26.13-.13.13a353.9 353.9 0 0 0-5.29 6.48 175.63 175.63 0 0 0-9.65 15.73c-1.27 2.78-2.46 5.6-3.57 8.46a23.38 23.38 0 0 0-1.85 7.54 23.93 23.93 0 0 0 0 3.96l.53 1.46.8 1.32.92 1.32a6.21 6.21 0 0 0 2.64 1.59l1.72.4h1.85a20.22 20.22 0 0 0 12.03-3.97c2.5-2.04 4.7-4.45 6.48-7.14a67.3 67.3 0 0 0 8.2-14.67l.65-2.65a47.58 47.58 0 0 0 2.65-11.5 22 22 0 0 0-.27-3.96v-.53c.02-.45-.02-.9-.13-1.32v-.53l-.26-.66-.14-.8c-.15-.5-.33-.98-.52-1.45l-.4-1.06a67.5 67.5 0 0 0-1.32-2.64v-.66l.4-.14c.35-.06.7-.15 1.05-.26h1.32l.4-.13h1.06c1.97-.06 3.93.21 5.81.79l2.38 1.19a9.65 9.65 0 0 1 4.76 5.68c.81 2.1 1.08 4.38.8 6.61v1.85l-.14.53c-.08.4-.13.8-.13 1.2-.1.61-.24 1.23-.4 1.84l-.26.53v.66l-.13.53-.27.53v.53a40.49 40.49 0 0 1-6.21 11.9 53.68 53.68 0 0 1-23.53 18.5 43.37 43.37 0 0 1-27.76 0 14.24 14.24 0 0 1-3.44-1.85c-1.05-.8-1.98-1.45-2.77-2.38a12.72 12.72 0 0 1-2.12-2.64l-1.05-2.9a13.2 13.2 0 0 1-.4-3.31 21.68 21.68 0 0 1 4.63-13.49c1.05-1.32 2.24-2.9 3.57-4.23 5.88-5.74 12.4-10.8 19.43-15.07l.66-.26.8-.4.52-.4.66-.26.53-.4.66-.26.26-.26h.4l.27-.14.26-.26.66-.26c.26-.19.52-.37.8-.53l.26-.14h.26l.27-.26.66-.26.66-.4.26-.13h.27l.26-.27h.13v-.26h.14v-.4l-.14-.13h-.26v-.13h-3.97l-.26.13h-.8a3.94 3.94 0 0 0-.65 0h-.53l-.66.13h-1.72l-.53.13h-.53c-6.02.69-11.98 1.8-17.85 3.3a85.4 85.4 0 0 0-18.5 8.07c-2.11 1.4-4.18 2.86-6.21 4.36-.82.53-1.58 1.15-2.25 1.85l-.8.8c-.12.1-.25.19-.4.26l-.78.8c-.24.25-.46.51-.67.79a68.46 68.46 0 0 1-3.04 3.96 28.3 28.3 0 0 0-1.98 4.63c.01.23-.03.46-.13.66-.28 1.71-.24 3.46.13 5.16l.66 1.58c.54.94 1.16 1.82 1.85 2.65a12.4 12.4 0 0 0 2.65 2.38l1.45.92v-.13l-1.32 1.06.26.13Zm120.02-18.64-.13-.26-.4-.14-.53-.26a9.01 9.01 0 0 1-.66-.4l-.26-.13h-.27l-.26-.13h-.13l-.14-.13h-.4l-.39-.14a7.4 7.4 0 0 0-1.32-.13 3.96 3.96 0 0 0-1.32 0l-.53.27h-.53a2.7 2.7 0 0 0-.53.26l-.4.27c-.26 0-.4.13-.66.4l-.4.26-.39.4-.8.79-.12.26-.27.4-.13.13-.13.26-.27.14v.26l-.26.13-.66.93a42.12 42.12 0 0 0-1.99 3.57 267.32 267.32 0 0 0-5.28 11.1 20.7 20.7 0 0 0-.8 3.97c-.02.57.02 1.15.14 1.71l.4.67 1.31 1.05.66.4c.58.05 1.15.1 1.72.13h1.85l.27-.13h.26l.4-.26h.4l.4-.27h.39c.3-.16.6-.29.92-.4l.4-.4h.4l.26-.12.13-.14h.27v-.13l.26-.13h.27l.4-.4-.14-1.85v-1.58l.13-.27.27-.4v-.26l.13-.13v-.66l.26-.14v-.4l.27-.12 8.33-17.72h-.27m5.95 20.1c-.4.8-.7 1.64-.92 2.5v.4c-.02.45.02.9.13 1.33l.4.4.52.39.66.4.8.26.66.13h2.64c2.5-.44 4.93-1.15 7.27-2.11l.53-.27h.27l.13-.13h.26l.27-.13v-.13l.4-.14.26-.26h.4l.26-.27c.16-.1.34-.2.53-.26h.26l.13-.26h.27l.26-.14.13-.13.93.8-.8.52c-.47.33-.95.64-1.45.93l-.79.4-1.59.66c-1.07.5-2.17.95-3.3 1.32-1.08.43-2.18.78-3.3 1.06l-.93.13c-.6.2-1.22.33-1.85.4h-2.25l-.13.13h-.27a2.72 2.72 0 0 0-.52 0l-.4.13h-1.46l-.4.13h-.92c-1.99 0-3.97-.13-5.95-.4l-.92-.26-1.32-.4-1.06-.66c-.7-.52-1.37-1.1-1.98-1.72l-.8.53a16 16 0 0 1-1.32.66l-.8.27-1.05.53h-.4l-.66.26-.79.27-1.06.26-.26.13-.4.13h-1.98l-.4.14c-.74.14-1.49.23-2.24.26h-4.9a14.1 14.1 0 0 1-7.93-2.38l-1.19-1.58-.53-1.72a16.6 16.6 0 0 1 0-4.1v-1.06c.24-.83.46-1.67.67-2.51l.4-.8.52-1.18a92.79 92.79 0 0 1 2.12-3.3l.66-.93.79-1.2.4-.39.4-.53c.21-.38.48-.74.79-1.06l1.85-1.85 1.98-1.58a35.28 35.28 0 0 1 6.6-3.84c1.76-.5 3.52-.94 5.3-1.32a28.9 28.9 0 0 1 10.57 0c.28.16.55.33.8.53.31.11.62.25.92.4l1.59 1.06 15.46-2.52-11.1 23.8.13-.13Z" fill="#fff" fill-rule="nonzero"/>
    <path d="m1092 3074.26-.13.67v.4l-.27.39v.26l-.26.4v.8c0 .44.04.88.13 1.31l.4.4 1.06.8.66.26h.66l.53.13h1.58c1.01-.2 2.03-.38 3.04-.53l1.59-.53a16.5 16.5 0 0 0 3.57-1.45l1.85-.8 2.11-1.05.8.8a34.93 34.93 0 0 1-6.08 3.16l-1.2.27c-1.42.4-2.83.84-4.22 1.32-.7.18-1.4.31-2.12.4h-.66a1.33 1.33 0 0 0-.4 0l-1.18.26h-1.72l-.27.13h-1.72l-.26.14h-.93c-2.87.03-5.73-.41-8.46-1.33l-1.32-.92c-.32-.3-.59-.67-.8-1.06-.26-.4-.39-.8-.39-1.32l-.13-1.32V3074l.13-.53v-.4l.4-.66v-.66h.13v-.26l.13-.13 17.98-41.25 16.26-2.64-20.49 46.66v.13Z" fill="#fff" fill-rule="nonzero"/>
    <path d="M1151.62 3031.83a68.1 68.1 0 0 0-3.97 3.3l-1.32.8c-.67.49-1.38.93-2.11 1.32 0 .27-.14.27-.27.4l-.4.13-.79.53-.26.13-.4.27c-.2.19-.43.36-.66.52l-.66.27-.13.13-.27.13v.14l-.53.26-.13.13h-.13l-.53.27v.13l-.4.13v.13h-.26l-1.59 1.06-.4.13-.39.27-.13.26-.4.13-.13.14-5.69-.27c.32-.2.6-.47.8-.8l.26-.39.4-.26.26-.4.4-.4.26-.4.27-.26.26-.4v-.13l.27-.13.13-.26.26-.13v-.27l.14-.13.26-.4s0-.26.26-.26v-.53l.4-.4v-.26l.27-.53.13-.4c.23-.32.4-.68.53-1.05 0-.27 0-.4.26-.67l.13-.66.27-.66.13-.66v-.26h15.6v.26Zm-26.84 37.8.66-.52c1.12-.8 2.19-1.69 3.18-2.65l.53-.26.4-.53.39-.26.53-.53.4-.53c.26 0 .4-.26.66-.4l1.32-1.32.13-.4.4-.13c0-.13 0-.26.26-.26l.4-.53.66-.66.13-.27.53-.52.13-.27.4-.53.53-.53.13-.4.26-.26.14-.26h.13l.13-.4.26-.26v-.27l.27-.26c.38-.63.69-1.3.92-1.98v-.27l.27-.13v-1.98l-.66-.66-.27-.14h-.13l-.53-.26a2.72 2.72 0 0 0-.53 0h-.92l-1.2.53c-.58.36-1.11.8-1.58 1.32l-.53.53-1.05 1.32a33.04 33.04 0 0 0-5.16 9.12c-.3.65-.56 1.31-.8 1.98l-.13.53c-.46.99-.86 2-1.19 3.04l-.13.66.66-.52m25.78 6.74-1.06.66-.92.53c-.18.03-.36.07-.53.13l-.4.26-.53.27-.4.13c-.26 0-.39 0-.52.26-.13.06-.26.1-.4.14l-.4.26-1.05.27-.4.26h-.4l-.52.26c-.77.23-1.52.49-2.25.8-.74.23-1.49.4-2.25.53-1.47.35-2.98.57-4.5.66-1.98.07-3.96.2-5.94.4h-1.32l-1.33.13h-5.15l-.13-.14h-.93a28.02 28.02 0 0 1-7.67-1.85l-1.45-.8c-.44-.35-.8-.8-1.06-1.31l-.53-1.46a8.17 8.17 0 0 1-.13-2.5v-.67l.13-.26v-.4l.14-.66v-1.2l.13-.65c.1-.2.14-.44.13-.66l.4-.93.26-1.06.66-1.45.66-1.59a37 37 0 0 1 3.97-5.94 9.93 9.93 0 0 1 2.25-2.52 34.66 34.66 0 0 1 6.08-3.96l3.57-1.2a36.21 36.21 0 0 1 10.57-.92c1.25.15 2.48.37 3.7.66l1.32.67 1.06.79.8 1.06c.41.72.64 1.54.66 2.38v.4h-.27v.79a3.97 3.97 0 0 1-.66 2.11l-1.32 2.12-1.85 2.11a28.82 28.82 0 0 1-5.55 3.83 59.08 59.08 0 0 1-11.9 5.3v1.05l-.13.4v2.5l.53 1.06.52.93.93.8 1.19.65 1.32.53 1.59.27c1.23.13 2.47.13 3.7 0 3.17-.2 6.29-.86 9.25-1.99a56.16 56.16 0 0 0 7.4-3.17v-.13l.93 1.06Z" fill="#fff" fill-rule="nonzero"/>
    <path d="m1161.14 3079.02-.27.8v.52h.66l.13-.26.4-.4.13-.26.27-.26.13-.27.26-.4.27-.66.53-.92c.54-.99 1.02-2 1.45-3.04l2.12-3.7a60.65 60.65 0 0 0 2.38-3.44 44.78 44.78 0 0 0 2.37-3.17l1.2-1.59v-.13c.1-1.48.5-2.92 1.18-4.23.6-1.5 1.5-2.84 2.65-3.97a18.39 18.39 0 0 1 3.44-2.64l1.98-.8 2.11-.26h.4c.44 0 .89.05 1.32.13l1.59.53.53.4.26.53.27.13v1.72l-.53.53h-.14l-.13.26-.26.13-.66.66h-.14l-.66.53c-.26 0-.4.27-.66.4l-1.05.8-1.99 1.31-.66.53-.4.27-.4.4c-.68.49-1.34 1.02-1.97 1.58l-1.2.93-1.05.79v3.04c0 .4.13.92.4 1.32l.66 1.06c.13.4.52.66.92.92.27.4.66.67 1.06.8l1.32.66 1.32.26h3.84l.66-.13c.87-.22 1.75-.4 2.64-.53l.4 1.72h-.53l-.4.13a1.1 1.1 0 0 1-.4.13h-.66v.14H1186a27.51 27.51 0 0 1-3.97-.4 14.15 14.15 0 0 1-6.48-3.7 12.8 12.8 0 0 1-1.98-3.04h-.13l-.27.26-.26.14c0 .26-.26.4-.4.52a3.5 3.5 0 0 0-.4.53 5 5 0 0 1-.79.93c-.14.16-.27.34-.4.53l-.52.53-.8 1.32-.92 1.32a52.31 52.31 0 0 1-2.64 3.97l-1.59 2.64v.26h-.26v.53l-.27.27-.26.53-.27.26v.13l-.13.27-.26.13-.53.8-.4.12c0 .14 0 .27-.26.4h-.27l-.26.26c-.43.14-.88.23-1.32.27h-.27c-.79.12-1.58.17-2.38.13-.88.01-1.76-.03-2.64-.13h-1.06c-1-.29-1.96-.64-2.9-1.06l-.93-.8-.66-.78-.53-1.06v-2.65l.26-.52v-.27l.27-.66c0-.26 0-.53.26-.66v-1.06l.13-.4 8.46-19.03 16-2.64-12.96 28.81h.14Z" fill="#fff" fill-rule="nonzero"/>
    <path d="M1213.35 3031.57c1.04.28 2.05.63 3.04 1.05l1.32.8a5.42 5.42 0 0 1 1.72 2.25c.48.8.75 1.7.8 2.64 0 .4 0 .92-.27 1.32a9.75 9.75 0 0 1-1.32 2.38c-.13.4-.53.66-.93 1.06a9.27 9.27 0 0 1-6.08 1.98l-1.32-.13a38 38 0 0 1-1.85-.4c-1-.32-1.94-.81-2.78-1.45l-1.05-1.06c-.6-.7-1.05-1.5-1.33-2.38a5.8 5.8 0 0 1 0-2.64l.53-1.32.8-1.2 1.05-1.05a10.18 10.18 0 0 1 5.95-1.98v-.14c.66 0 1.32 0 1.72.27m-10.18 42.56v.27l-.13.4v.13l-.13.26-.14.4v.4l-.26.39v1.59c0 .26 0 .4.26.52l.27.53.53.4.4.26 1.45.4c.79.1 1.59.1 2.38 0 .62-.08 1.23-.16 1.85-.26l.66-.27.66-.13.66-.26c.85-.34 1.68-.7 2.51-1.06l.53-.27c.37-.2.72-.41 1.06-.66l.66-.26.53-.27h.13l.4-.4.53-.26h.26l.53-.26c.22-.24.5-.42.8-.53l.92.66a26.03 26.03 0 0 1-7.14 3.97c-1.58.5-3.17.99-4.76 1.45l-2.38.4-2.64.13a42.8 42.8 0 0 1-10.31-.66l-1.99-.4-1.45-.8a3.98 3.98 0 0 1-1.06-1.05l-.53-1.19-.13-1.32v-1.06l.13-.13v-.13l.14-.4v-1.85l.26-.13 9.25-20.23 16.13-2.64-10.84 24.32Z" fill="#fff" fill-rule="nonzero"/>
    <path d="m1235.16 3069.64.66-.53c.83-.58 1.62-1.2 2.38-1.85.43-.37.87-.72 1.32-1.06l.4-.53.53-.26.4-.53.52-.53.53-.4.53-.53.4-.26.26-.26.13-.27 1.33-1.32.53-.66.26-.27.13-.26.53-.53.8-1.06c.13-.25.3-.47.52-.66v-.26h.13c0-.27.14-.27.27-.4l.26-.53c.4-.9.85-1.78 1.33-2.64l.13-.66v-1.2l-.13-.12v-.14l-.27-.13v-.13l-.26-.13v-.13l-.27-.14h-.26l-.13-.13-.4-.13h-1.32a7.01 7.01 0 0 0-2.78 1.85l-1.19 1.19-.53.66a32.56 32.56 0 0 0-4.5 7.67c-.4 1.16-.83 2.3-1.31 3.43l-.27.53a22.3 22.3 0 0 0-1.32 3.84v-.27l.66-.26m25.78 6.6-1.06.67-.93.53c-.32.1-.63.23-.92.4l-.4.26-.53.13c-.13 0-.26 0-.4.26-.16.07-.34.11-.52.14l-.4.26-.53.13-.4.14-.39.26h-.53l-.53.26c-.72.23-1.42.5-2.11.8-.74.22-1.49.4-2.25.53a24.3 24.3 0 0 1-4.5.66 77.3 77.3 0 0 0-6.07.4h-1.33l-1.32.13h-5.02l-.27-.14h-.92a30.82 30.82 0 0 1-5.82-1.05l-1.85-.8-1.32-.8c-.5-.34-.9-.79-1.19-1.31l-.4-1.32a8.42 8.42 0 0 1 0-2.52v-1.32l.14-.53v-1.32l.26-.66a1.6 1.6 0 0 0 0-.66c.27-.26.27-.53.4-.93l.4-1.05.65-1.46.67-1.58a38.57 38.57 0 0 1 3.7-5.95l2.5-2.51a33.23 33.23 0 0 1 6.09-3.97l3.44-1.19a37 37 0 0 1 10.57-.92c1.25.15 2.48.37 3.7.66l1.32.66 1.06.8.8 1.05.52 1.19v2.25a5.9 5.9 0 0 1-.79 2.11c-.26.8-.8 1.32-1.32 2.12-.4.79-1.06 1.32-1.85 2.11a28.79 28.79 0 0 1-5.42 3.83 57.8 57.8 0 0 1-11.9 5.3v.39l-.13.4v.66l-.13.26v2.25l.53 1.05.52.93.93.8 1.32.65c.27.27.8.4 1.32.53l1.46.27c1.27.14 2.56.14 3.83 0 2.33-.19 4.64-.63 6.87-1.32a43.2 43.2 0 0 0 9.79-3.97l.79 1.06h-.13Zm73.5 12.43a3.98 3.98 0 0 0-.8 0h-.66c-.43.12-.88.2-1.32.27h-.53l-.53.13c-.45.02-.9.11-1.32.26l-1.06.14-1.06.26c-1.15.2-2.3.47-3.43.8l-.53.13-.4.13-1.06.4-.92.4c-.46.17-.9.4-1.32.65l-.8.8-.52.92c-.16.42-.2.88-.14 1.32l.14.4.26.4s.13.26.4.26l.26.13h.27l.52.27a10.94 10.94 0 0 0 4.63-.26c1.17-.32 2.29-.8 3.3-1.46a17.5 17.5 0 0 0 3.57-2.65c1.27-1.2 2.5-2.43 3.7-3.7h-.66m-22.47-24.06c1.58-.46 3.17-.9 4.76-1.32 1.48-.45 2.94-.98 4.36-1.58 2.24-.8 4.44-1.68 6.61-2.65l3.18-1.06c7.6-3.26 14.8-7.43 21.41-12.42l2.64-2.9 1.46-3.05c.34-.98.52-2 .53-3.04a5.85 5.85 0 0 0-1.72-4.1l-1.32-1.19-1.59-.92-1.85-.66a16.4 16.4 0 0 0-7-.26h-.67l-.66.12-.53.14-.66.13-.53.13-.66.27h-.66l-1.32.52-.53.14-.66.26a38.33 38.33 0 0 0-9.25 5.16 44.97 44.97 0 0 0-9.79 9.65c-1 1.68-2.01 3.35-3.04 5.02-.84 1.83-1.64 3.68-2.38 5.55-1 2.82-1.66 5.75-1.98 8.73v-.4l1.85-.4m55.13-12.82-6.75 17.18-.4 1.2-.26.4v.12h-.13v.53l-.13.13v.4h-.13l-.53 1.06-.27.8-.4.78-.52.67-.8 1.32a28.89 28.89 0 0 1-2.11 3.3c-.26 0-.4.27-.53.53l-.4.26-1.05 1.06-.8.53h-.13v.13h-.13v.14c2.2-.27 4.41-.58 6.6-.93a63.2 63.2 0 0 0 12.57-3.7c2.01-.71 4-1.5 5.94-2.38v1.32l-3.56 1.85a50.56 50.56 0 0 1-7.14 3.04c-2.4.84-4.78 1.73-7.14 2.65-2.54.73-5.1 1.4-7.67 1.98l-3.96.8-.4.12-.26.27-.4.26-.27.14a3 3 0 0 1-.66.52 2 2 0 0 1-.66.53l-.79.4-1.32 1.06-.66.4-.93.52-.8.53c-.85.52-1.73 1-2.64 1.45l-.79.53-.92.53c-.55.35-1.13.66-1.72.93l-.53.26-.53.13c-.12.1-.26.2-.4.27-.17.05-.35.1-.52.13l-.4.27-.4.13-1.06.4-.92.26c-.86.33-1.74.6-2.64.8l-.67.12h-.4c-.33.14-.69.23-1.05.27a6.5 6.5 0 0 1-1.32.13h-1.32c-1.21.02-2.42-.16-3.57-.53-.6-.25-1.13-.6-1.59-1.06l-.53-.66-.4-.79c-.12-.7-.08-1.43.14-2.12l.8-1.32 1.05-1.05 1.72-.93a21.33 21.33 0 0 1 3.7-1.72c1.62-.5 3.26-.98 4.89-1.45l.4-.27c.67-.08 1.33-.2 1.98-.4.95-.27 1.93-.49 2.9-.65 1.27-.13 2.5-.4 3.7-.8h.67v-.4l.26-.4v-.12l.27-.13v-.27l.4-.8v-.26h.13c0-.26.13-.26.26-.4v-.26l.27-.26v-.4l.26-.4v-.26l.13-.26v-.4c.25-.42.47-.87.66-1.32l.14-.27v-.26l.13-.27v-.26l.13-.13.26-.53v-.27l.27-.52.13-.14v-.26l.13-.26a29.77 29.77 0 0 1-5.95 3.56 50.33 50.33 0 0 1-10.04 3.3 62.68 62.68 0 0 1-19.17.4 27.13 27.13 0 0 1-6.34-2.5c-1.06-.53-1.86-1.2-2.65-1.86a11.9 11.9 0 0 1-3.17-4.76c-.4-.92-.53-1.85-.8-2.9a5 5 0 0 1-1.05.13c-.65.15-1.32.24-1.98.26l-.4.14h-.53l-.66.26h-.66a6.1 6.1 0 0 1-1.59.26h-4.23l1.32-3.17h1.2c.43.12.87.2 1.32.27h1.98v-.14h1.85l.26-.13h1.72l.13-.13h.67l.26-.13h.53v-2.38l.13-.27v-.26h.13v-.27a14 14 0 0 1 1.32-4.49c.38-1.08.82-2.14 1.33-3.17a28.92 28.92 0 0 1 1.98-3.3l1.19-1.6a39.03 39.03 0 0 1 4.23-5.28 65.56 65.56 0 0 1 11.24-8.86 76.28 76.28 0 0 1 30.4-10.57c2.77-.53 5.42-.8 8.2-.8h.52l.14-.13h1.98c1.86.03 3.72.21 5.55.53 1.49.32 2.95.76 4.36 1.32l1.46.93c.52.26.79.66 1.05 1.19.4.26.66.8.8 1.32l.13 1.45c0 .4 0 .8-.27 1.06l-.4 1.2-.65 1.05-.66 1.19c-.3.47-.66.92-1.06 1.32-.27 0-.4.26-.66.53l-.66.66c-1.15.98-2.34 1.9-3.57 2.78l-.13.26h-.27l-.13.26-.27.14-.13.13h-.13l-.26.26c-3.37 2.28-6.8 4.44-10.31 6.48l-3.97 2.12a120.91 120.91 0 0 1-12.3 5.81c-2.25.91-4.5 1.84-6.74 2.78l-2.64 1.05-2.64.93-2.38.8-2.65.79c-1.6.4-3.18.84-4.76 1.32l-2.37.8v2.24l.26.53c0 .27.04.54.13.8 0 .65.27 1.31.4 1.7.64 1.8 1.53 3.5 2.64 5.03l1.46 1.32c.53.53 1.19.8 1.85 1.06 1.53.53 3.14.8 4.76.8h1.32l.4-.14a8.9 8.9 0 0 0 1.71-.13l.93-.13c.74-.2 1.49-.38 2.25-.53l.4-.13 1.71-.53a84.08 84.08 0 0 0 6.87-2.91l1.59-.8a22.6 22.6 0 0 0 3.04-1.98h.13l.27-.26h.13l.13-.13h.13l.14-.13v-.14h.26l.13-.13 6.88-17.71 17.45-2.91Z" fill="#fff" fill-rule="nonzero"/>
    <path d="m1390.48 3069.64 1.32-1.06.8-.53a18.4 18.4 0 0 0 1.72-1.59l.52-.26.4-.53.4-.26.53-.53.4-.53c.26 0 .39-.26.65-.4l.8-.79.53-.53.13-.26.4-.27.26-.26.4-.53.66-.66.13-.27.8-.79c.43-.73.92-1.44 1.45-2.11l.13-.27.26-.26v-.27l.27-.26c.38-.62.7-1.29.92-1.98v-.27l.27-.13.13-.66v-1.2l-.53-.52a.65.65 0 0 0-.26-.26l-.14-.14h-.26l-.13-.13-.4-.13h-1.45l-1.2.53c-.59.35-1.12.8-1.58 1.32l-.53.66-.53.53-.53.66a28.28 28.28 0 0 0-3.7 6.35l-.79 1.32-.66 1.32-.27.92c-.15.45-.33.9-.52 1.33l-.14.4a22.2 22.2 0 0 0-1.32 3.83v-.27l.66-.26m25.78 6.6-1.06.67-.92.53c-.32.1-.63.23-.93.4l-.53.26-.4.13c-.26 0-.4 0-.52.26l-.4.14-.4.26-1.05.27-.4.26h-.4l-.53.26c-.76.22-1.51.49-2.24.8l-1.06.26-1.19.27a24.3 24.3 0 0 1-4.5.66c-1.98.06-3.97.2-5.94.4h-1.32l-1.33.13H1386l-.13-.14h-.93a30.93 30.93 0 0 1-5.82-1.05l-1.85-.8-1.45-.8-1.06-1.31-.53-1.46a8.17 8.17 0 0 1-.13-2.5v-.67l.13-.26v-.4l.14-.53v-.8c-.01-.44.03-.88.13-1.31l.13-.27v-.4l.4-.92.26-1.06c.98-2.04 1.99-4.07 3.04-6.08l2.12-2.9c.7-.93 1.5-1.77 2.38-2.52a33.42 33.42 0 0 1 6.08-3.96l3.57-1.2a37 37 0 0 1 10.57-.92c1.24.16 2.48.38 3.7.66l1.32.66 1.06.8.8 1.05c.4.73.64 1.55.66 2.38v.4h-.27v.8a3.97 3.97 0 0 1-.66 2.1l-1.32 2.12-1.85 2.12a27.54 27.54 0 0 1-5.55 3.83 58.01 58.01 0 0 1-11.9 5.29v1.06l-.13.4v2.5l.52 1.06.53.93.93.8 1.19.65 1.32.53 1.59.26c1.23.14 2.47.14 3.7 0a30.8 30.8 0 0 0 7-1.32c3.36-.94 6.6-2.28 9.65-3.96l.93 1.05v.14Z" fill="#fff" fill-rule="nonzero"/>
    <path d="m1426.83 3079.02-.26.8v.52h.66l.13-.26.27-.13.13-.27c.1-.12.19-.25.26-.4v-.12l.14-.14.13-.26.26-.4.27-.66c.49-.67.93-1.38 1.32-2.11.87-1.88 1.8-3.73 2.77-5.56a69.2 69.2 0 0 0 3.57-5.02l1.33-1.59 1.05-1.58v-.13c.1-1.48.5-2.92 1.2-4.23.57-1.5 1.48-2.86 2.64-3.97a17.7 17.7 0 0 1 3.43-2.64l1.99-.8 2.11-.26h.4c.44 0 .88.05 1.32.13l.93.27.66.26.53.4.4.53v.13l.26.53v1.05l-.27.14v.4h-.26v.26h-.27l-.13.26-.26.13-.66.66h-.14l-.66.53-.66.4-1.06.8-1.98 1.31-.66.53-.4.27-.26.4c-.74.48-1.45 1-2.12 1.58-.78.52-1.53 1.1-2.24 1.72v3.04c0 .4.13.92.4 1.32l.65 1.06.93.92c.26.4.66.67 1.06.8l1.32.66 1.32.26h4.1l.53-.13c.87-.22 1.75-.4 2.64-.53l.4 1.72h-.53l-.4.13a1.1 1.1 0 0 1-.4.13h-.65v.14h-1.99a27.49 27.49 0 0 1-4.1-.4 14 14 0 0 1-6.47-3.7c-.8-.92-1.47-1.94-1.99-3.04h-.13l-.92.92c-.16.16-.29.34-.4.53a8 8 0 0 1-.8.93c-.14.16-.27.34-.39.53l-.53.53c-2.16 3.08-4.2 6.25-6.08 9.51v.27l-.26.13-.53 1.06-.13.13-.14.26-.53.53-.26.4-.4.13c0 .13 0 .27-.26.4h-.26l-.27.26c-.43.14-.87.23-1.32.27h-.27a25.98 25.98 0 0 1-5.02 0h-1.06c-.99-.29-1.96-.64-2.9-1.06l-.93-.8-.66-.79-.53-1.05v-2.52l.27-.52v-.27l.26-.66c0-.26 0-.53.26-.66v-1.06l.14-.4 8.46-19.03 16.12-2.64-13.08 28.81h-.14Z" fill="#fff" fill-rule="nonzero"/>
    <path d="m1487.38 3066.46.13-.4.26-.52.14-.53.26-.4.26-.52.14-.4c.11-.36.24-.71.4-1.06l.13-.53.13-.4v-.26c.12-.31.25-.62.4-.92v-.4l.26-.53v-2.64l.13-.27v-1.05c.05-.66.05-1.33 0-1.99l-1.19-2.38c-.13-.26-.26-.4-.53-.4l-.53-.39h-1.32c-.19.11-.37.24-.53.4-.26 0-.4.26-.53.53l-.4.66-.26.92-.4 1.2v5.41l.27.27v.13l.13.92.27.8.13.79.26.8.8 1.84c.24.7.55 1.36.92 1.99v-.14l.27-.53m-8.46-15.33-10.58 23.13-.26.67-.4.66v.4c0 .26-.13.39-.26.39v.53l-.14.4v1.45l.14.66.4.53.52.4.4.4.8.26c.46.15.95.23 1.45.26l1.71-.13a4.3 4.3 0 0 0 1.72-.53l.8-.27.79-.4a91.2 91.2 0 0 0 3.04-2.24l.8-.66a14.4 14.4 0 0 0 1.84-1.98 27.14 27.14 0 0 0 3.04-4.1l.53-.66.4-.66.13-.27.26-.26.14-.27.26-.4a17.7 17.7 0 0 1-1.85-2.64 21.31 21.31 0 0 1-2.64-5.68c-.19-1.1-.23-2.2-.14-3.3v-1.86c.14-1.12.6-2.17 1.33-3.04a9.76 9.76 0 0 1 2.11-2.24l1.46-.66a13.9 13.9 0 0 1 3.56-.66c1.22 0 2.43.23 3.57.66l1.46.79 1.32 1.06.93 1.32c.4.4.52.92.79 1.45.94 3.3.6 6.84-.93 9.92a37.38 37.38 0 0 1-1.85 3.57 88.26 88.26 0 0 1-2.5 3.96c.2.1.43.2.65.27l.4.26h.26l1.99.8.79.26 1.32.4h.66l.66.26.66.13h.8l.66.13h4.62l-.26 1.99h-1.98c-.2.13-.43.22-.66.26h-.93l-.4-.13h-.52l-.27-.13h-.26l-.66-.14-.4-.13c-.72-.1-1.43-.28-2.12-.53a23.15 23.15 0 0 1-4.62-2.11l-.66-.27-.4-.26-.26-.13h-.14v.13l-.13.13h-.13v.13l-.27.27h-.26v.13c-1.46 1.33-3 2.57-4.63 3.7l-.92.66a25.1 25.1 0 0 1-5.82 3.17 32.5 32.5 0 0 1-6.6 1.72c-5.01.82-10.12.68-15.08-.4a4.3 4.3 0 0 1-1.85-.52 5.29 5.29 0 0 1-2.24-2.12l-.4-1.32-.13-1.45v-.93l.13-.53.26-.53v-.66l.14-.66c.11-.54.3-1.08.52-1.58l7.94-17.72 16.39-2.64v.13Z" fill="#fff" fill-rule="nonzero"/>
    <path d="M1540.25 3053.51c-.13 0-.26 0-.4-.26l-.52-.27-.4-.13-.26-.26h-.27l-.4-.27h-.26l-.26-.13-.14-.13h-.52l-.27-.14a7.52 7.52 0 0 0-1.32-.13 3.96 3.96 0 0 0-1.32 0l-.53.27h-.53c-.23.05-.45.14-.66.26l-.4.27c-.2.08-.39.22-.53.4l-.53.26-.13.26-.26.13v.27c-.27 0-.27 0-.4.26l-.26.27-.14.26h-.13l-.13.4-.26.13v.26l-.27.14-.13.26-.13.13a8 8 0 0 0-.66.93l-.66 1.05-.67 1.33-1.98 3.57a68.77 68.77 0 0 1-2.25 4.62 51.02 51.02 0 0 0-2.5 7.14c-.12.88-.08 1.78.12 2.64 0 .27.27.53.4.67l.53.52.66.53.66.4c.62.06 1.24.1 1.85.13h1.85l.14-.13h.4c.24-.16.5-.29.79-.4h.26l.4-.26h.4c.2-.1.43-.2.65-.27v-.13c.27 0 .27-.13.4-.26h.4l.13-.13.26-.14h.14l.13-.13.26-.13h.27l.13-.27h.13l.13-.13-.26-1.85v-1.19l.13-.4.13-.26.14-.4v-.26l.26-.13v-.66l.26-.27v-.26l.14-.13 8.46-17.72h-.4m6.08 20.1-.4.66-.13.53-.13.4-.13.26c-.1.2-.14.43-.13.66v.4c-.03.44.02.88.13 1.32l.4.4.52.39c.13.26.4.26.66.4l.66.26.8.13h2.5c2.73-.5 5.4-1.29 7.94-2.38h.13l.27-.13h.26l.27-.26.26-.14h.26v-.26h.53l.4-.27c.17-.1.34-.2.53-.26h.13l.27-.26h.26v-.14l.26-.13.8.8-.8.52-.66.53c-1.45.93-3 1.68-4.62 2.25-2.47 1-5.04 1.71-7.67 2.11h-2.25l-.13.14h-.93l-.4.13h-1.31l-.53.13h-.93c-1.99 0-3.97-.13-5.95-.4l-.79-.26-1.32-.4c-.4-.2-.8-.42-1.2-.66a15.7 15.7 0 0 1-1.84-1.72l-.8.53c-.47.25-.95.47-1.45.66l-.8.27-.12.13-.8.4h-.53c-.22.07-.44.16-.66.26l-.66.27-1.06.26-.26.13-.4.13h-1.98l-.4.14c-.78.15-1.58.23-2.38.26h-4.75l-2.12-.26a14 14 0 0 1-5.82-2.25l-1.32-1.32-.4-1.85a18.5 18.5 0 0 1 0-5.16l.14-1.06.13-.26v-.26l.4-.93.4-.8c0-.39.26-.79.52-1.18a64.12 64.12 0 0 1 5.16-7.4l.4-.53c.26 0 .4-.27.52-.4l.93-.93c.53-.66 1.32-1.19 1.85-1.58a36.3 36.3 0 0 1 6.6-3.84c2.62-.73 5.26-1.3 7.94-1.71 2.66-.16 5.32.02 7.93.52.32.1.63.24.93.4.31.12.62.25.92.4.5.33.99.68 1.46 1.06l15.46-2.52-10.97 23.8v-.13Z" fill="#fff" fill-rule="nonzero"/>
    <path d="M1587.44 3031.57c1.04.27 2.06.63 3.04 1.05l1.33.8 1.05 1.06a7 7 0 0 1 1.32 2.37c.25.87.25 1.79 0 2.65l-.52 1.32-.8 1.19-1.05 1.06a9.13 9.13 0 0 1-5.95 1.98l-1.32-.13c-.67-.12-1.33-.25-1.99-.4a8.97 8.97 0 0 1-2.64-1.45 7.41 7.41 0 0 1-2.38-3.44 5.01 5.01 0 0 1 0-2.64c0-.53.26-.93.53-1.32l.66-1.2 1.06-1.05a9.92 9.92 0 0 1 6.08-1.98v-.14c.53 0 1.05 0 1.58.27m-10.18 42.56v.66l-.26.14v.26c-.08.26-.13.52-.13.8l-.27.39v1.59c.19.34.36.7.53 1.05l.53.4.53.26 1.32.4c.8.1 1.6.1 2.38 0 1.07-.19 2.12-.4 3.17-.66l.66-.26c.85-.34 1.69-.69 2.52-1.06l.53-.27c.36-.2.71-.41 1.05-.66.3-.14.62-.27.93-.4l.26-.13h.13a2 2 0 0 1 .93-.66h.26l.53-.26c.22-.24.5-.42.8-.53l.92.66a26.02 26.02 0 0 1-7 3.97c-1.58.5-3.17.99-4.76 1.45l-2.51.4-2.65.13c-3.45.2-6.91-.03-10.3-.66l-2-.4-1.45-.8a3.98 3.98 0 0 1-1.05-1.05l-.53-1.19-.13-1.32v-1.06l.13-.13v-.13l.13-.4v-1.85l.26-.13 9.26-20.23 16.12-2.64-10.84 24.32Z" fill="#fff" fill-rule="nonzero"/>
    <path d="m1615.47 3059.6.4-.4.26-.4c.32-.47.67-.91 1.06-1.32l.13-.14.13-.26v-.26l.26-.4.27-.53.13-.53v-1.32c.06-.44.06-.88 0-1.32l-.26-.27v-.53h-.14l-.13-.26a6.4 6.4 0 0 0-.53-.4l-.53-.4-.4-.13c-.3-.03-.6-.03-.92 0l-.4.14c-.19.1-.36.24-.52.4l-.27.26v.26l-.26.27-.13.26v3.04c-.02.23.03.46.13.66v.4l.13.26.53 1.59c.24.61.46 1.23.66 1.85v-.13l.4-.27m-11.9 19.57h.13l.4-.4.26-.13.27-.27.13-.26.26-.13v-.13l.14-.27v-.26l.26-.14v-1.19l.27-.13v-1.19l-.14-.26v-.27l-.13-.66c0-.26 0-.4-.26-.66v-.26l-.14-.4-.26-.4v-.52a23.9 23.9 0 0 1-1.06-2.12l-.26.27h-.13l-.27.13v.13l-.13.13-.27.13v.14l-.52.26-.27.27h-.26v.13l-.27.13h-.13l-.26.26-.14.27h-.26v.13l-.26.13-.14.13h-.26c-.2.16-.38.34-.53.53l-.53.27-.4.4h-.26l-.53.4-.4.26-.26.26-.8.4-.39.4h-.13v.13l-.27.13-.13.13 8.33 3.97v.13m28.29-3.04-.4.4-.26.13-.13.13-.27.13-.13.13h-.27l-.13.27-2.24 1.05a84 84 0 0 1-4.37 1.99l-1.05.4-1.2.26-.66.13-.66.26c-.93.1-1.85.22-2.77.4a24.6 24.6 0 0 1-3.7.27h-1.72a4 4 0 0 1-1.06-.27h-1.45c-.3-.15-.6-.24-.93-.26h-.92l-1.06-.14c-.96-.26-1.93-.48-2.91-.66h-.53l-.26.14h-.4l-.13.13c-.26.07-.53.12-.8.13l-.52.13h-.4l-.26.13h-1.86v.14h-.13l-.26.13h-.93v.13h-.53l-.26.13h-.53v.14h-.4c-.5.02-1-.07-1.45-.27l-.53-.26a.66.66 0 0 1-.4-.4l-.4-.4a3.18 3.18 0 0 1-.65-1.32v-.66h-.13v-.26h-.14v-.8l-.13-.26v-.8h.13v-.92l.27-.26.26-.14.4-.26.4-.4.13-.26.53-.4.66-.4.79-.52h.13l.13-.27h.27v-.13h.26l.27-.13.13-.13.26-.14.27-.26.26-.13.4-.4.53-.26.66-.66.4-.14.26-.26 1.06-.8.26-.13.13-.26.53-.53c.15-.06.29-.15.4-.26l.26-.27h.14l.4-.26.12-.27h.27v-.13l-.13-.66c-.16-.34-.3-.7-.4-1.06v-.4l-.13-.4v-.52l-.13-.4v-4.5l.66-2.24 1.19-2.11c.94-1.34 2.1-2.5 3.43-3.44l2.38-1.19 2.65-.66c1.4-.2 2.82-.25 4.23-.13l.92.13c.4 0 .66.26.93.4l.66.4.53.65.4.66c.25.54.39 1.13.39 1.72v.4l-.13.4v.52l-.27.53-.26.93c-.25.45-.51.89-.8 1.32l-.79 1.06c-.29.32-.6.63-.92.92-.45.6-.94 1.18-1.46 1.72v.27l.27.4.26.79.27.4.26.26.13.53.27.26v.53l.26.4.13.4.27.39.13.8.27.65v2.25a7.4 7.4 0 0 1-.67 3.3c-.64 1-1.44 1.9-2.37 2.65a16.41 16.41 0 0 1-4.1 2.38 24.2 24.2 0 0 1-5.55 1.85l.66.26.66.13h.66c.36.1.72.23 1.06.4h.52l.67.13h5.42l1.05-.13 1.32-.13c.81-.1 1.6-.28 2.38-.53l2.25-.66 1.59-.66c1.64-.71 3.28-1.46 4.89-2.25l1.06-.53.92-.66.93.93h.13Z" fill="#fff" fill-rule="nonzero"/>
  </g>
  <defs>
    <linearGradient id="b" x1="0" y1="0" x2="1" y2="0" gradientUnits="userSpaceOnUse" gradientTransform="matrix(1509.69 3525.46 -4584.39 1963.15 481.3 -84.47)">
      <stop offset="0" stop-color="#982298"/>
      <stop offset=".15" stop-color="#6b5293"/>
      <stop offset=".3" stop-color="#4b6d80"/>
      <stop offset=".6" stop-color="#197541"/>
      <stop offset="1" stop-color="#00650d"/>
    </linearGradient>
    <linearGradient id="c" x1="0" y1="0" x2="1" y2="0" gradientUnits="userSpaceOnUse" gradientTransform="rotate(-168.11 579.08 1117.9) scale(955.924)">
      <stop offset="0" stop-opacity=".36"/>
      <stop offset=".53" stop-opacity=".1"/>
      <stop offset="1" stop-opacity="0"/>
    </linearGradient>
    <linearGradient id="d" x1="0" y1="0" x2="1" y2="0" gradientUnits="userSpaceOnUse" gradientTransform="scale(1279.68 682.964) rotate(-90 2.78 1.58)">
      <stop offset="0" stop-opacity="0"/>
      <stop offset=".45" stop-opacity=".04"/>
      <stop offset="1" stop-opacity=".12"/>
    </linearGradient>
    <linearGradient id="e" x1="0" y1="0" x2="1" y2="0" gradientUnits="userSpaceOnUse" gradientTransform="matrix(0 -869.527 1629.25 0 1547.79 2947.7)">
      <stop offset="0" stop-opacity="0"/>
      <stop offset=".47" stop-opacity=".07"/>
      <stop offset="1" stop-opacity=".25"/>
    </linearGradient>
    <linearGradient id="f" x1="0" y1="0" x2="1" y2="0" gradientUnits="userSpaceOnUse" gradientTransform="scale(1010.9 1053.69) rotate(-90 2.23 .84)">
      <stop offset="0" stop-color="#447426" stop-opacity=".13"/>
      <stop offset=".53" stop-color="#6bb836" stop-opacity=".13"/>
      <stop offset="1" stop-color="#7ad23c" stop-opacity=".13"/>
    </linearGradient>
    <linearGradient id="g" x1="0" y1="0" x2="1" y2="0" gradientUnits="userSpaceOnUse" gradientTransform="matrix(0 -127.463 127.463 0 26.57 21)">
      <stop offset="0" stop-color="#438c94"/>
      <stop offset="1" stop-color="#aa57b2"/>
    </linearGradient>
    <linearGradient id="h" x1="0" y1="0" x2="1" y2="0" gradientUnits="userSpaceOnUse" gradientTransform="rotate(90 8.47 -45.1) scale(136.69)">
      <stop offset="0" stop-color="#004941"/>
      <stop offset=".46" stop-color="#32673a"/>
      <stop offset="1" stop-color="#407038"/>
    </linearGradient>
    <linearGradient id="i" x1="0" y1="0" x2="1" y2="0" gradientUnits="userSpaceOnUse" gradientTransform="rotate(90 256.21 -261.43) scale(517.639)">
      <stop offset="0" stop-color="#194b19"/>
      <stop offset=".32" stop-color="#174617"/>
      <stop offset=".49" stop-color="#0d270d"/>
      <stop offset=".58" stop-color="#413343"/>
      <stop offset=".69" stop-color="#703e75"/>
      <stop offset="1" stop-color="#84428a"/>
    </linearGradient>
    <linearGradient id="j" x1="0" y1="0" x2="1" y2="0" gradientUnits="userSpaceOnUse" gradientTransform="rotate(90 256.21 -261.43) scale(517.639)">
      <stop offset="0" stop-color="#4e864e"/>
      <stop offset=".32" stop-color="#4a7b4e"/>
      <stop offset=".41" stop-color="#415d4f"/>
      <stop offset=".49" stop-color="#363b50"/>
      <stop offset=".58" stop-color="#664a78"/>
      <stop offset=".69" stop-color="#93579d"/>
      <stop offset="1" stop-color="#a55cac"/>
    </linearGradient>
    <linearGradient id="k" x1="0" y1="0" x2="1" y2="0" gradientUnits="userSpaceOnUse" gradientTransform="rotate(-123.35 -4.52 .84) scale(516.284)">
      <stop offset="0" stop-color="#66c864"/>
      <stop offset=".5" stop-color="#7da078"/>
      <stop offset="1" stop-color="#c12bb2"/>
    </linearGradient>
  </defs>
</svg>
