<svg viewBox="0 0 90 90" xmlns="http://www.w3.org/2000/svg" xml:space="preserve" style="fill-rule:evenodd;clip-rule:evenodd;stroke-linecap:round;stroke-linejoin:round;stroke-miterlimit:1.5"><circle cx="45.04" cy="45.04" r="43.85" style="fill:#fff;stroke:#000;stroke-width:2px"/><path d="M15.16 58.2a17.22 17.22 0 0 1-3.32-2.4c-.46-.45-.86-.9-1.23-1.32a11.97 11.97 0 0 1-2.28-4.1 6.53 6.53 0 0 1-.3-1.56 22.8 22.8 0 0 1-.07-1.69c0-1.64.19-3.18.56-4.61a14.72 14.72 0 0 1 4.67-7.5 22.26 22.26 0 0 1 4.12-2.9 70.4 70.4 0 0 1 9.83-4.23 65.3 65.3 0 0 1 10.76-2.65c.33-.04.66-.07.98-.12.33-.04.66-.1.99-.18l.98-.13a81.11 81.11 0 0 1 4.92-.5l1.93-.08a58.6 58.6 0 0 0 1.88-.09 79.85 79.85 0 0 1 3.56-.13h1.6a5.74 5.74 0 0 0 1.3.13h1.29a7.56 7.56 0 0 0 1.1.12h.68a2.72 2.72 0 0 0 .61.13c.09 0 .13 0 .16.03l.09.09c.04 0 .08.02.12.06.08.04.14.07.15.1.03 0 .05.07.1.14v.1c0 .02.02.03.06.03v.3a.54.54 0 0 0-.1.13.25.25 0 0 0-.02.12c0 .04-.01.09-.04.12-.01.04-.07.09-.15.13 0 .04 0 .07-.03.1a.14.14 0 0 1-.1.02c0 .04-.01.07-.05.1a.4.4 0 0 0-.13.08l-.12.13h-.06c0 .04-.02.07-.06.09a.45.45 0 0 0-.12.1l-.1.08a.13.13 0 0 1-.09.04l-.1.09-.02.09a.77.77 0 0 1-.16.12l-.15.12-.15.16a.83.83 0 0 0-.16.21.64.64 0 0 1-.15.13.82.82 0 0 0-.16.12l-.09.1c-.02.02-.05.02-.09.02l-.1.1-.02.09a.87.87 0 0 1-.15.12 1.1 1.1 0 0 0-.16.12l-.15.16a.78.78 0 0 0-.15.21l-.16.13a.81.81 0 0 0-.15.12l-1.38 1.5a26.9 26.9 0 0 0-1.39 1.63c-.45.53-.89 1.1-1.32 1.72a133.21 133.21 0 0 0-2.55 3.79c-.41.63-.8 1.27-1.17 1.93a77.8 77.8 0 0 0-4.49 8.3 38.3 38.3 0 0 1-.9 2.18 21 21 0 0 0-.76 2.12 23.55 23.55 0 0 0-1.17 3.93 14.66 14.66 0 0 0-.3 3.2c0 .54.01 1.03.06 1.48.04.45.14.86.3 1.23.17.37.34.72.53 1.04a4.75 4.75 0 0 0 2.73 2.15c.37.17.8.28 1.26.34a15.32 15.32 0 0 0 7.78-1.26 12.4 12.4 0 0 0 2.86-1.75c.88-.72 1.75-1.54 2.61-2.49a47.84 47.84 0 0 0 4.37-5.84c.61-1.02 1.2-2.07 1.78-3.14a30.55 30.55 0 0 0 1.54-3.31 22.48 22.48 0 0 0 1.35-3.88l.34-.95a32.67 32.67 0 0 0 1.1-4.58c.1-.57.2-1.12.28-1.66a22.47 22.47 0 0 0 .25-2.88 7.29 7.29 0 0 0-.13-1.36c0-.12 0-.24-.03-.34-.02-.1-.03-.21-.03-.34a3.72 3.72 0 0 0-.12-.98c0-.12-.03-.27-.07-.43a44.1 44.1 0 0 1-.27-1.08 13.9 13.9 0 0 0-.31-.86 5.43 5.43 0 0 0-.4-1.01 42.25 42.25 0 0 0-.61-1.17.78.78 0 0 0-.13-.18c0-.04 0-.06-.03-.06-.02 0-.03-.03-.03-.07a.47.47 0 0 1-.1-.12.28.28 0 0 1-.02-.12.45.45 0 0 1-.1-.13.24.24 0 0 1-.02-.12v-.18c0-.04 0-.08.03-.13a.55.55 0 0 1 .4-.27 5.32 5.32 0 0 0 .8-.19l.6-.09h.35c.1 0 .22-.02.34-.06h.8a13.76 13.76 0 0 1 4.36.68c.62.24 1.2.52 1.78.83a6 6 0 0 1 1.54 1.13 7.32 7.32 0 0 1 2.03 3.14 10 10 0 0 1 .55 1.97 12.8 12.8 0 0 1 .16 2.67c-.03.14-.03.28-.03.4 0 .17-.01.32-.03.46-.03.14-.04.3-.04.46 0 .17 0 .32-.03.46l-.03.4a4.26 4.26 0 0 0-.12.92l-.12.47c-.04.14-.07.3-.07.45l-.12.47-.12.46-.12.46a1.2 1.2 0 0 0-.07.4l-.12.46-.12.4a30.7 30.7 0 0 1-4.61 8.98 40.73 40.73 0 0 1-3.44 4.17 50.01 50.01 0 0 1-4.25 4 37.85 37.85 0 0 1-4.85 3.38 28.75 28.75 0 0 1-5.23 2.4 32.9 32.9 0 0 1-5.47 1.38 35.88 35.88 0 0 1-9.44.25 47.2 47.2 0 0 1-3.22-.52c-1.03-.25-2-.59-2.92-1.02-.92-.43-1.8-.91-2.61-1.44a17.99 17.99 0 0 1-2.1-1.79 9.65 9.65 0 0 1-1.53-1.96 9.2 9.2 0 0 1-.83-2.25c-.18-.8-.28-1.65-.28-2.55a15.37 15.37 0 0 1 1.54-6.83 23.6 23.6 0 0 1 1.97-3.31 27.2 27.2 0 0 1 2.7-3.26 82.31 82.31 0 0 1 3.2-3.04 56.4 56.4 0 0 1 3.32-2.8c1.1-.9 2.25-1.76 3.44-2.58a82.19 82.19 0 0 1 4.6-2.95l.5-.25.56-.24c.16-.08.31-.18.46-.28.14-.1.3-.2.46-.28l.46-.24.46-.25.25-.12.24-.12c.04 0 .1-.03.18-.07l.25-.12.46-.24.46-.25.16-.12.21-.13a.5.5 0 0 0 .19-.06l.24-.12.47-.25.46-.24a.3.3 0 0 0 .12-.03.54.54 0 0 0 .12-.1.5.5 0 0 1 .18-.06c.05 0 .08 0 .1-.03l.09-.1a.2.2 0 0 1 .12-.05l.06-.06.06-.06v-.07h.07v-.18h-.07a2.9 2.9 0 0 0-.12-.12h-.18c-.04 0-.06-.02-.06-.07H56.7a1.6 1.6 0 0 1-.46.07h-1.32c-.05.04-.08.06-.12.06h-.68c-.17 0-.32 0-.46.03l-.4.03a2 2 0 0 1-.46.06h-1.33c-.16.04-.3.06-.42.06h-.38a98.46 98.46 0 0 0-6.88.99c-1.1.2-2.21.43-3.32.67a64.56 64.56 0 0 0-6.64 1.9c-1.06.38-2.1.78-3.13 1.24a43.42 43.42 0 0 0-5.84 2.83c-.62.32-1.21.66-1.78 1l-1.73 1.08a48.98 48.98 0 0 0-2.95 2.22 9.6 9.6 0 0 0-1.35 1.1l-.34.28-.27.28-.28.27c-.1.1-.22.2-.34.28-.16.2-.34.4-.52.59-.19.18-.36.38-.53.58a6.1 6.1 0 0 0-.45.52l-.47.59c-.28.32-.54.65-.77.98l-.64.99c-.17.28-.33.58-.5.89-.16.3-.3.62-.42.95-.12.24-.21.48-.28.7a5.5 5.5 0 0 1-.21.65 1.08 1.08 0 0 1-.12.49 10.38 10.38 0 0 0-.13 1.72c0 .41.02.82.06 1.23a7.08 7.08 0 0 0 .7 2.34 9.6 9.6 0 0 0 2.3 3 16 16 0 0 0 1.06.84c.37.27.76.5 1.17.7v-.11l-.92.85Z" style="fill-rule:nonzero"/></svg>