<svg viewBox="0 0 800 800" xmlns="http://www.w3.org/2000/svg" xml:space="preserve" fill-rule="evenodd" clip-rule="evenodd" stroke-linejoin="round" stroke-miterlimit="2"><path d="M186 257H26c-8 0-13 6-13 13v516c0 7 5 13 13 13h160c7 0 13-6 13-13V270c0-7-6-13-13-13ZM106 1a106 106 0 1 0 0 212 106 106 0 0 0 0-212Zm489 244c-65 0-112 27-141 59v-34c0-7-6-13-13-13H287c-7 0-13 6-13 13v516c0 7 6 13 13 13h160c7 0 13-6 13-13V531c0-86 23-120 83-120 66 0 71 54 71 124v251c0 7 6 13 13 13h160c7 0 13-6 13-13V503c0-128-24-258-205-258Z" fill="#146885" fill-rule="nonzero"/></svg>