<svg viewBox="0 0 535 55" xmlns="http://www.w3.org/2000/svg" xml:space="preserve" style="fill-rule:evenodd;clip-rule:evenodd;stroke-linejoin:round;stroke-miterlimit:2"><path d="M7.2 34.5a17.2 17.2 0 0 1-5.5-5A11.3 11.3 0 0 1 0 25.2a22.8 22.8 0 0 1 .5-6.3 14.8 14.8 0 0 1 4.6-7.5l4.1-3A70.2 70.2 0 0 1 30 1.7l1-.1 1-.2 1-.1a52.5 52.5 0 0 0 3-.4 66.7 66.7 0 0 1 9.3-.4h1.6a5.8 5.8 0 0 0 1.3.1h1.3a7.6 7.6 0 0 0 1 .1h.7a2.7 2.7 0 0 0 .7.1h.1l.1.2h.1l.2.1v.2h.1v.6l-.1.2H52v.2l-.2.1v.1l-.2.1-.1.1-.1.1-.1.1h-.1l-.1.1-.2.1-.2.2-.1.1-.2.2-.1.2h-.2V4H50v.2l-.2.1-.2.1-.1.2-.2.2-.2.1-.1.1a267.4 267.4 0 0 0-4 4.9 133 133 0 0 0-7.3 11.9 114 114 0 0 0-2.7 6.4 17.7 17.7 0 0 0-1.4 5.7 18 18 0 0 0 0 3L34 38l.6 1 .7 1a4.7 4.7 0 0 0 2 1.2l1.3.3H40a15.3 15.3 0 0 0 6.2-1.3c1-.4 2-1 2.9-1.7a24.2 24.2 0 0 0 4.9-5.4A50.9 50.9 0 0 0 60.2 22l.5-2a36 36 0 0 0 2-8.7 16.7 16.7 0 0 0-.2-3v-.4a3.7 3.7 0 0 0-.1-1v-.4l-.2-.5-.1-.6a12.6 12.6 0 0 0-.4-1.1l-.3-.8a50.7 50.7 0 0 0-1-2V1l.3-.1a5.3 5.3 0 0 0 .8-.2h1l.3-.1h.8a13.7 13.7 0 0 1 4.4.6l1.8.9a7.3 7.3 0 0 1 3.6 4.3 10.3 10.3 0 0 1 .6 5v1.4l-.1.4a4.3 4.3 0 0 0-.1.9 20.1 20.1 0 0 1-.3 1.4l-.2.4v.5l-.1.4-.2.4v.4a30.5 30.5 0 0 1-4.7 9 40.6 40.6 0 0 1-17.8 14 32.8 32.8 0 0 1-21 0c-1-.4-1.8-.8-2.6-1.4-.8-.6-1.5-1.1-2.1-1.8a9.6 9.6 0 0 1-1.6-2l-.8-2.2a10 10 0 0 1-.3-2.5 16.4 16.4 0 0 1 3.5-10.2c.8-1 1.7-2.2 2.7-3.2A82.3 82.3 0 0 1 43 5.9l.5-.2.6-.3.4-.3.5-.2.4-.3.5-.2.2-.2h.3l.2-.1.2-.2.5-.2a10.1 10.1 0 0 1 .6-.4l.2-.1h.2l.2-.2.5-.2.5-.3.2-.1h.2l.2-.2h.1V2h.1v-.3l-.1-.1H50v-.1h-3l-.2.1h-.6a3 3 0 0 0-.5 0h-.4l-.5.1h-1.3l-.4.1h-.4a98.5 98.5 0 0 0-13.5 2.5 64.6 64.6 0 0 0-14 6.1 109.1 109.1 0 0 0-4.7 3.3 9.4 9.4 0 0 0-1.7 1.4l-.3.3-.3.3a2 2 0 0 1-.3.2l-.6.6a7 7 0 0 0-.5.6 51.8 51.8 0 0 1-2.3 3A21.5 21.5 0 0 0 3 23.6a1 1 0 0 1-.1.5A10.4 10.4 0 0 0 3 28l.5 1.2a13.3 13.3 0 0 0 1.4 2 9.4 9.4 0 0 0 2 1.8l1.1.7v-.1l-1 .8ZM98 20.4l-.1-.2-.3-.1-.2-.1-.2-.1a7 7 0 0 1-.5-.3l-.2-.1h-.2l-.2-.1H96l-.1-.1h-.3l-.3-.1a5.6 5.6 0 0 0-1-.1 3 3 0 0 0-1 0l-.4.2h-.4a2 2 0 0 0-.4.2l-.3.2c-.2 0-.3.1-.5.3l-.3.2a7 7 0 0 0-.3.3l-.2.2-.2.2-.2.2-.1.2-.2.3-.1.1-.1.2-.2.1v.2l-.2.1-.5.7a31.9 31.9 0 0 0-1.5 2.7 202 202 0 0 0-4 8.4 16 16 0 0 0-.6 3 5.5 5.5 0 0 0 .1 1.3l.3.5.5.4.5.4.5.3a35.2 35.2 0 0 0 1.3.1h1.4l.2-.1h.2l.3-.2h.3l.3-.2h.3a4.4 4.4 0 0 1 .7-.3l.1-.1.2-.2h.3l.2-.1.1-.1h.2v-.1l.2-.1h.2l.2-.2.1-.1-.1-1.4v-1.2l.1-.2.2-.3V35l.1-.1v-.5l.2-.1V34l.2-.1 6.3-13.4h-.2m4.5 15.2a9.4 9.4 0 0 0-.7 1.9v.3a3.7 3.7 0 0 0 .1 1l.3.3.4.3.5.3.6.2.5.1h2a27 27 0 0 0 5.5-1.6l.2-.1.2-.1h.2l.1-.1h.2l.2-.1V38l.3-.1.2-.2h.3l.2-.2a2 2 0 0 1 .4-.2h.2l.1-.2h.2l.2-.1.1-.1.7.6-.6.4a17 17 0 0 1-1.1.7l-.6.3-1.2.5a20.5 20.5 0 0 1-2.5 1 18.4 18.4 0 0 1-2.5.8l-.7.1a6.6 6.6 0 0 1-1.4.3h-1.7l-.1.1h-.2a2 2 0 0 0-.4 0l-.3.1h-1.1l-.3.1h-.7a34.5 34.5 0 0 1-4.5-.3l-.7-.2-1-.3-.8-.5a12.5 12.5 0 0 1-1.5-1.3l-.6.4a12.2 12.2 0 0 1-1 .5l-.6.2-.2.1-.2.1-.4.2h-.3l-.5.2-.6.2-.4.1-.4.1-.2.1-.3.1h-1.5l-.3.1a11.9 11.9 0 0 1-1.7.2H79a10.7 10.7 0 0 1-6-1.8l-.9-1.2-.4-1.3a12.6 12.6 0 0 1 0-3.1v-.8a77 77 0 0 0 .5-1.9l.3-.6.4-.9a79.8 79.8 0 0 1 1.6-2.5l.5-.7.6-.9.3-.3.3-.4a4 4 0 0 1 .6-.8l.4-.4.3-.3.3-.3.4-.4 1.5-1.2a26.7 26.7 0 0 1 5-2.9 55.6 55.6 0 0 1 4-1 21.9 21.9 0 0 1 8 0 4.2 4.2 0 0 1 .6.4 6.3 6.3 0 0 1 .7.3l.6.4.6.4 11.7-1.9-8.4 18Z" style="fill:#000;fill-rule:nonzero"/><path d="m125.9 36.1-.1.5v.3l-.2.3v.2l-.2.3v.6a4.5 4.5 0 0 0 .1 1l.3.3.4.3.4.3.5.2h.5l.4.1h1.2a44.1 44.1 0 0 1 2.3-.4l1.2-.4a12.2 12.2 0 0 0 2.7-1.1l1.4-.6 1.6-.8.6.6a26.4 26.4 0 0 1-4.6 2.4l-.9.2a56.6 56.6 0 0 0-3.2 1 12 12 0 0 1-1.6.3h-.5a1 1 0 0 0-.3 0l-.9.2h-1.3l-.2.1h-1.3l-.2.1h-.7a19.4 19.4 0 0 1-6.4-1l-1-.7a3 3 0 0 1-.6-.8c-.2-.3-.3-.6-.3-1l-.1-1v-1.7l.1-.4v-.3l.3-.5v-.5h.1V34l.1-.1 13.6-31.2 12.3-2L125.9 36Z" style="fill:#000;fill-rule:nonzero"/><path d="M171 4a52 52 0 0 0-3 2.5l-1 .6a13.9 13.9 0 0 1-1.6 1c0 .2-.1.2-.2.3l-.3.1-.3.2-.3.2-.2.1-.3.2a5 5 0 0 1-.5.4l-.5.2-.1.1-.2.1v.1l-.2.1-.2.1-.1.1h-.1l-.2.1-.2.1v.1l-.3.1v.1h-.2l-.3.2-.3.2-.3.2-.3.2-.3.1-.3.2-.1.2-.3.1-.1.1-4.3-.2a2 2 0 0 0 .6-.6l.2-.3.3-.2.2-.3.3-.3.2-.3.2-.2.2-.3v-.1l.2-.1.1-.2.2-.1V9l.1-.1.2-.3s0-.2.2-.2V8l.3-.3v-.2l.2-.4.1-.3a2.8 2.8 0 0 0 .4-.8c0-.2 0-.3.2-.5l.1-.5.2-.5.1-.5v-.2H171Zm-20.3 28.6.5-.4a21.5 21.5 0 0 0 2.4-2l.4-.2.3-.4.3-.2.4-.4.3-.4c.2 0 .3-.2.5-.3l.2-.2.2-.2.2-.2.2-.2.2-.2.1-.3.3-.1c0-.1 0-.2.2-.2l.3-.4.5-.5.1-.2.2-.2.2-.2.1-.2.3-.4.4-.4.1-.3.2-.2.1-.2h.1l.1-.3.2-.2v-.2l.2-.2a7.7 7.7 0 0 0 .7-1.5v-.2l.2-.1a175.7 175.7 0 0 0 0-1.3v-.2l-.1-.1-.1-.1-.1-.1-.1-.1-.1-.1-.2-.1h-.1l-.2-.1-.2-.1a2 2 0 0 0-.4 0h-.7l-.9.4a5.7 5.7 0 0 0-1.2 1l-.4.4-.4.5-.4.5a25 25 0 0 0-3.9 6.9 15 15 0 0 0-.6 1.5l-.1.4a18.4 18.4 0 0 0-.9 2.3l-.1.5.5-.4m19.5 5.1-.8.5-.7.4a3 3 0 0 0-.4.1l-.3.2-.4.2-.3.1c-.2 0-.3 0-.4.2a2 2 0 0 1-.3.1l-.3.2-.4.1-.4.1-.3.2h-.3l-.4.2a16 16 0 0 0-1.7.6 12.4 12.4 0 0 1-1.7.4 18.9 18.9 0 0 1-3.4.5 74.3 74.3 0 0 0-4.5.3h-1l-1 .1h-3.9l-.1-.1h-.7a21.2 21.2 0 0 1-5.8-1.4l-1.1-.6a3 3 0 0 1-.8-1l-.4-1.1a6.2 6.2 0 0 1-.1-1.9v-.5l.1-.2V35l.1-.5v-.9l.1-.5a1 1 0 0 0 .1-.5l.3-.7.2-.8.5-1.1.5-1.2a28 28 0 0 1 3-4.5c.4-.7 1-1.3 1.7-1.9a26.2 26.2 0 0 1 4.6-3l2.7-.9a27.4 27.4 0 0 1 8-.7 22.8 22.8 0 0 1 2.8.5l1 .5.8.6.6.8a3.8 3.8 0 0 1 .5 1.8v.3h-.2v.6a3 3 0 0 1-.5 1.6l-1 1.6-1.4 1.6a21.8 21.8 0 0 1-4.2 2.9 44.7 44.7 0 0 1-9 4v.8l-.1.3v1.9l.4.8.4.7.7.6.9.5 1 .4 1.2.2a13 13 0 0 0 2.8 0 23.7 23.7 0 0 0 7-1.5 42.6 42.6 0 0 0 5.6-2.4v-.1l.7.8Z" style="fill:#000;fill-rule:nonzero"/><path d="m178.2 39.7-.2.6v.4h.5l.1-.2a6.2 6.2 0 0 0 .3-.3l.1-.2.1-.1.1-.1.1-.2.2-.3.2-.5.4-.7a23.8 23.8 0 0 0 1.1-2.3l.8-1.4.8-1.4a45.5 45.5 0 0 0 1.8-2.6 33.7 33.7 0 0 0 1.8-2.4l.9-1.2v-.1a8 8 0 0 1 .9-3.2 8.8 8.8 0 0 1 2-3 14.1 14.1 0 0 1 2.6-2l1.5-.6 1.6-.2h.3a5.6 5.6 0 0 1 1 .1l.6.2.6.2.4.3.2.4.2.1v1.3l-.2.2-.2.2h-.1l-.1.2-.2.1-.1.1-.2.2-.2.2h-.1l-.5.4c-.2 0-.3.2-.5.3l-.8.6-.9.6-.6.4-.5.4-.3.2-.3.3a17.7 17.7 0 0 0-1.5 1.2l-.9.7-.8.6v2.3c0 .3.1.7.3 1l.5.8c.1.3.4.5.7.7.2.3.5.5.8.6l1 .5 1 .2h2.9l.5-.1a18.5 18.5 0 0 1 2-.4l.3 1.3a5 5 0 0 0-.4 0l-.3.1a1 1 0 0 1-.3.1h-.5v.1H197a20.8 20.8 0 0 1-3-.3 10.7 10.7 0 0 1-4.9-2.8 9.7 9.7 0 0 1-1.5-2.3h-.1l-.2.2-.2.1c0 .2-.2.3-.3.4a2 2 0 0 0-.3.4 4 4 0 0 1-.6.7 3 3 0 0 0-.3.4l-.4.4a97 97 0 0 0-.6 1l-.7 1a39.7 39.7 0 0 1-2 3l-1.2 2v.2h-.2v.4l-.2.2-.1.2-.1.2-.2.2v.1l-.1.2-.2.1-.2.3-.2.3-.3.1c0 .1 0 .2-.2.3h-.2l-.2.2a4.9 4.9 0 0 1-1 .2h-.2a9 9 0 0 1-1.8.1 16.2 16.2 0 0 1-2-.1h-.8a17.4 17.4 0 0 1-2.2-.8l-.7-.6-.5-.6-.4-.8v-2l.1-.2.1-.2v-.2l.2-.5c0-.2 0-.4.2-.5v-.8l.1-.3 6.4-14.4 12.1-2-9.8 21.8Z" style="fill:#000;fill-rule:nonzero"/><path d="M217.7 3.8a17.3 17.3 0 0 1 2.3.8l1 .6a4.1 4.1 0 0 1 1.3 1.7 4.3 4.3 0 0 1 .6 2c0 .3 0 .7-.2 1a7.4 7.4 0 0 1-1 1.8c-.1.3-.4.5-.7.8a6.3 6.3 0 0 1-2 1.1 7 7 0 0 1-2.6.4l-1-.1a26.3 26.3 0 0 1-1.4-.3 7 7 0 0 1-2.1-1.1l-.8-.8a5.1 5.1 0 0 1-1-1.8 4.4 4.4 0 0 1 0-2l.4-1 .6-.9.8-.8a7.7 7.7 0 0 1 4.5-1.5v-.1c.5 0 1 0 1.3.2M210 36v.2l-.1.3v.1l-.1.2-.1.3v.3l-.2.3v1.2c0 .2 0 .3.2.4l.2.4.4.3.3.2a215.3 215.3 0 0 0 1.1.3 7.1 7.1 0 0 0 1.8 0 36.3 36.3 0 0 0 1.4-.2l.5-.2.5-.1.5-.2a51.2 51.2 0 0 0 1.9-.8l.4-.2a7.2 7.2 0 0 0 .8-.5l.5-.2.2-.1.2-.1h.1l.3-.3.4-.2h.2l.4-.2a1.6 1.6 0 0 1 .6-.4l.7.5a19.7 19.7 0 0 1-5.4 3 127 127 0 0 1-3.6 1.1l-1.8.3-2 .1a32.4 32.4 0 0 1-7.8-.5L201 41l-1.1-.6a3 3 0 0 1-.8-.8l-.4-.9-.1-1v-.8l.1-.1v-.1l.1-.3V35l.2-.1 7-15.3 12.2-2L210 36Z" style="fill:#000;fill-rule:nonzero"/><path d="m234.2 32.6.5-.4a21.7 21.7 0 0 0 1.8-1.4 22.8 22.8 0 0 1 1-.8l.3-.4.4-.2.3-.4.4-.4.4-.3.2-.2.2-.2.3-.2.2-.2.1-.2.2-.2.2-.2.2-.2.4-.4.4-.5.2-.2.1-.2.2-.2.2-.2.3-.4.3-.4a1.8 1.8 0 0 1 .4-.5v-.2h.1c0-.2.1-.2.2-.3l.1-.2.1-.2a27.7 27.7 0 0 1 1-2l.1-.5v-.9l-.1-.1v-.1l-.2-.1V19l-.2-.1v-.1l-.2-.1h-.2l-.1-.1-.3-.1h-1a5.3 5.3 0 0 0-2.1 1.4l-.5.5-.4.4-.4.5a24.6 24.6 0 0 0-3.4 5.8 38.5 38.5 0 0 1-1 2.6l-.2.4a16.9 16.9 0 0 0-1 2.9v-.2l.5-.2m19.5 5-.8.5-.7.4a3.5 3.5 0 0 0-.7.3l-.3.2-.4.1c-.1 0-.2 0-.3.2a2 2 0 0 1-.4.1l-.3.2-.4.1-.3.1-.3.2h-.4l-.4.2a15.2 15.2 0 0 0-1.6.6 12.7 12.7 0 0 1-1.7.4 17.7 17.7 0 0 1-3.4.5 63.6 63.6 0 0 0-4.6.3h-1l-1 .1h-3.8l-.2-.1h-.7a23.3 23.3 0 0 1-4.4-.8l-1.4-.6-1-.6a3 3 0 0 1-.9-1l-.3-1a6.4 6.4 0 0 1 0-1.9v-1l.1-.4v-1l.2-.5a1.2 1.2 0 0 0 0-.5c.2-.2.2-.4.3-.7l.3-.8.5-1.1.5-1.2a29.1 29.1 0 0 1 2.8-4.5l1.9-1.9a25.1 25.1 0 0 1 4.6-3l2.6-.9a28 28 0 0 1 8-.7 26.3 26.3 0 0 1 2.8.5l1 .5.8.6.6.8.4.9v1.7c-.1.6-.3 1.1-.6 1.6-.2.6-.6 1-1 1.6-.3.6-.8 1-1.4 1.6a21.8 21.8 0 0 1-4.1 2.9 43.7 43.7 0 0 1-9 4v.3l-.1.3v.5l-.1.2v1.7l.4.8.4.7.7.6 1 .5c.2.2.6.3 1 .4l1.1.2a13 13 0 0 0 2.9 0 24 24 0 0 0 5.2-1 32.7 32.7 0 0 0 7.4-3l.6.8Zm55.6 9.4a3 3 0 0 0-.6 0h-.5a9.3 9.3 0 0 1-1 .2h-.4l-.4.1a3.5 3.5 0 0 0-1 .2l-.8.1-.8.2a27 27 0 0 0-2.6.6l-.4.1-.3.1-.8.3-.7.3a6 6 0 0 0-1 .5l-.6.6-.4.7a2 2 0 0 0-.1 1l.1.3.2.3s.1.2.3.2l.2.1h.2l.2.1.2.1a3.9 3.9 0 0 0 1 .1 8.3 8.3 0 0 0 2.5-.3 8.8 8.8 0 0 0 2.5-1.1 13.2 13.2 0 0 0 2.7-2 83.8 83.8 0 0 0 2.8-2.8h-.5m-17-18.2a156 156 0 0 1 3.6-1 35.4 35.4 0 0 0 3.3-1.2 72 72 0 0 0 5-2l2.4-.8a78 78 0 0 0 16.2-9.4l2-2.2 1.1-2.3a7 7 0 0 0 .4-2.3 4.4 4.4 0 0 0-1.3-3.1l-1-.9-1.2-.7-1.4-.5a14.1 14.1 0 0 0-3-.4 12.4 12.4 0 0 0-2.3.2h-.5l-.5.1a5 5 0 0 0-.4.1l-.5.1-.4.1-.5.2h-.5l-.5.2-.5.2-.4.1-.5.2a29 29 0 0 0-7 3.9 34 34 0 0 0-7.4 7.3 393.2 393.2 0 0 1-2.3 3.8 77 77 0 0 0-1.8 4.2 28.9 28.9 0 0 0-1.5 6.6V29l1.4-.3M334 19l-5.1 13-.1.3-.1.3-.1.3-.2.3v.1h-.1v.4l-.1.1v.3h-.1l-.4.8-.2.6-.3.6-.4.5-.6 1a21.9 21.9 0 0 1-1.6 2.5c-.2 0-.3.2-.4.4l-.3.2-.3.3-.5.5-.6.4h-.1v.1h-.1v.1a141.3 141.3 0 0 0 5-.7 47.6 47.6 0 0 0 9.5-2.8 57.8 57.8 0 0 0 4.5-1.8v1l-2.7 1.4a38.3 38.3 0 0 1-5.4 2.3 176.9 176.9 0 0 0-5.4 2A105 105 0 0 1 322 45l-3 .6-.3.1-.2.2-.3.2-.2.1a2.3 2.3 0 0 1-.5.4 1.7 1.7 0 0 1-.5.4l-.6.3-.5.4-.5.4-.5.3-.7.4-.6.4a26 26 0 0 1-2 1.1l-.6.4-.7.4a10.7 10.7 0 0 1-1.3.7l-.4.2-.4.1a2 2 0 0 1-.3.2 5 5 0 0 1-.4.1l-.3.2-.3.1-.8.3-.7.2a13 13 0 0 1-2 .6l-.5.1h-.3a2.8 2.8 0 0 1-.8.2 5.2 5.2 0 0 1-1 .1h-1a8.4 8.4 0 0 1-2.7-.4 3.8 3.8 0 0 1-1.2-.8l-.4-.5-.3-.6a3.3 3.3 0 0 1 .1-1.6l.6-1 .8-.8 1.3-.7a16.1 16.1 0 0 1 2.8-1.3 240.3 240.3 0 0 1 3.7-1.1l.3-.2a9.5 9.5 0 0 0 1.5-.3 20.2 20.2 0 0 1 2.2-.5 13 13 0 0 0 2.8-.6h.5v-.3l.2-.3v-.1l.2-.1v-.2l.2-.4.1-.2V42h.1c0-.2.1-.2.2-.3v-.2l.2-.2V41l.2-.3v-.2l.1-.2V40a8 8 0 0 0 .5-1l.1-.2v-.2l.1-.2v-.2l.1-.1.1-.2.1-.2v-.2l.1-.2.1-.2.1-.1v-.2l.1-.2a22.5 22.5 0 0 1-4.5 2.7 38.1 38.1 0 0 1-7.6 2.5 47.4 47.4 0 0 1-14.5.3 20.5 20.5 0 0 1-4.8-1.9c-.8-.4-1.4-.9-2-1.4a9 9 0 0 1-2.4-3.6c-.3-.7-.4-1.4-.6-2.2a3.8 3.8 0 0 1-.8.1 8.2 8.2 0 0 1-1.5.2l-.3.1h-.4l-.5.2h-.5a4.6 4.6 0 0 1-1.2.2h-3.2l1-2.4h.9a8 8 0 0 0 1 .2h1.5v-.1h1.4l.2-.1h1.3l.1-.1h.5l.2-.1h.4v-1.8l.1-.2V29h.1v-.2a10.6 10.6 0 0 1 1-3.4 21.8 21.8 0 0 1 1-2.4 22 22 0 0 1 1.5-2.5l.9-1.2c.9-1.4 2-2.7 3.2-4a49.6 49.6 0 0 1 8.5-6.7 57.7 57.7 0 0 1 23-8c2.1-.4 4.1-.6 6.2-.6h.4l.1-.1h1.5a27.1 27.1 0 0 1 4.2.4 20.5 20.5 0 0 1 3.3 1l1.1.7c.4.2.6.5.8.9.3.2.5.6.6 1L336 5c0 .3 0 .6-.2.8l-.3.9-.5.8-.5.9a6.1 6.1 0 0 1-.8 1c-.2 0-.3.2-.5.4l-.5.5a36.6 36.6 0 0 1-2.7 2.1l-.1.2h-.2l-.1.2-.2.1-.1.1h-.1l-.1.1-.1.1a135.6 135.6 0 0 1-7.8 4.9l-3 1.6a91.2 91.2 0 0 1-9.3 4.4 521.3 521.3 0 0 0-5.1 2.1l-2 .8-2 .7-1.8.6-2 .6a77 77 0 0 0-3.6 1l-1.8.6v1.7l.2.4a1.6 1.6 0 0 0 .1.6c0 .5.2 1 .3 1.3a15.1 15.1 0 0 0 2 3.8l1.1 1c.4.4.9.6 1.4.8a10.9 10.9 0 0 0 3.6.6h1l.3-.1a7 7 0 0 0 1.3-.1l.7-.1a28.4 28.4 0 0 1 1.7-.4l.3-.1 1.3-.4a63.9 63.9 0 0 0 5.2-2.2l1.2-.6a17.1 17.1 0 0 0 2.3-1.5h.1l.1-.1.1-.1h.1l.1-.1h.1l.1-.1v-.1h.2l.1-.1 5.2-13.4L334 19Z" style="fill:#000;fill-rule:nonzero"/><path d="m351.7 32.6.5-.4.5-.4.6-.4a13.3 13.3 0 0 0 1.3-1.2l.4-.2.3-.4.3-.2.4-.4.3-.4c.2 0 .3-.2.5-.3l.2-.2.2-.2.2-.2a12.1 12.1 0 0 0 .4-.4l.1-.2.3-.2.2-.2.3-.4.5-.5.1-.2.2-.2.2-.2.2-.2a15.4 15.4 0 0 1 1.1-1.6l.1-.2.2-.2v-.2l.2-.2a7.1 7.1 0 0 0 .7-1.5v-.2l.2-.1.1-.5v-.9l-.1-.1-.1-.1-.1-.1-.1-.1a.5.5 0 0 0-.2-.2l-.1-.1h-.2l-.1-.1-.3-.1h-1.1l-.9.4a5 5 0 0 0-1.2 1l-.4.5-.4.4-.4.5a21.4 21.4 0 0 0-2.8 4.8l-.6 1-.5 1-.2.7a13.8 13.8 0 0 1-.4 1l-.1.3a16.8 16.8 0 0 0-1 2.9v-.2l.5-.2m19.5 5-.8.5-.7.4a4 4 0 0 0-.7.3l-.4.2-.3.1c-.2 0-.3 0-.4.2l-.3.1-.3.2-.4.1-.4.1-.3.2h-.3l-.4.2a14.8 14.8 0 0 0-1.7.6l-.8.2-.9.2a17.5 17.5 0 0 1-3.4.5 64 64 0 0 0-4.5.3h-1l-1 .1h-3.9l-.1-.1h-.7a23.4 23.4 0 0 1-4.4-.8l-1.4-.6-1.1-.6-.8-1-.4-1.1a6.2 6.2 0 0 1-.1-1.9v-.5l.1-.2V35l.1-.4V34a4.2 4.2 0 0 1 .1-1l.1-.2v-.3l.3-.7.2-.8a140.7 140.7 0 0 1 2.3-4.6l1.6-2.2a12 12 0 0 1 1.8-1.9 25.3 25.3 0 0 1 4.6-3l2.7-.9a28 28 0 0 1 8-.7 27 27 0 0 1 2.8.5l1 .5.8.6.6.8a3.8 3.8 0 0 1 .5 1.8v.3h-.2v.6a3 3 0 0 1-.5 1.6l-1 1.6-1.4 1.6a20.8 20.8 0 0 1-4.2 2.9 43.9 43.9 0 0 1-9 4v.8l-.1.3v1.9l.4.8.4.7.7.6.9.5 1 .4 1.2.2a13 13 0 0 0 2.8 0 23.8 23.8 0 0 0 5.3-1 34.5 34.5 0 0 0 7.3-3l.7.8Z" style="fill:#000;fill-rule:nonzero"/><path d="m379.2 39.7-.2.6v.4h.5l.1-.2.2-.1.1-.2a2.5 2.5 0 0 0 .2-.3v-.1l.1-.1.1-.2.2-.3.2-.5a13.5 13.5 0 0 0 1-1.6 81.2 81.2 0 0 1 2.1-4.2 52.2 52.2 0 0 0 2.7-3.8l1-1.2.8-1.2v-.1a8.1 8.1 0 0 1 .9-3.2 8.3 8.3 0 0 1 2-3 13.4 13.4 0 0 1 2.6-2l1.5-.6 1.6-.2h.3a5.6 5.6 0 0 1 1 .1l.7.2.5.2.4.3.3.4v.1l.1.2.1.2v.8l-.2.1v.3h-.2v.2h-.2l-.1.2-.2.1-.1.1-.2.2-.2.2h-.1l-.5.4-.5.3-.8.6-.9.6-.6.4-.5.4-.3.2-.2.3a15.6 15.6 0 0 0-1.6 1.2 15.3 15.3 0 0 0-1.7 1.3v2.3c0 .3.1.7.3 1l.5.8.7.7c.2.3.5.5.8.6l1 .5 1 .2h3.1l.4-.1a22 22 0 0 1 2-.4l.3 1.3h-.4l-.3.1a1 1 0 0 1-.3.1h-.5v.1h-1.5a20.8 20.8 0 0 1-3.1-.3 10.6 10.6 0 0 1-4.9-2.8 10 10 0 0 1-1.5-2.3h-.1l-.2.2-.1.1-.4.4a2 2 0 0 0-.3.4 6 6 0 0 1-.6.7 3 3 0 0 0-.3.4l-.4.4a97 97 0 0 0-4.6 7.2v.2l-.2.1-.1.2-.1.2-.1.2-.1.2-.1.1-.1.2-.1.1-.3.3-.2.3-.3.1c0 .1 0 .2-.2.3h-.2l-.2.2a4.5 4.5 0 0 1-1 .2h-.2a9 9 0 0 1-1.8.1 16.3 16.3 0 0 1-2-.1h-.8a17.5 17.5 0 0 1-2.2-.8l-.7-.6-.5-.6-.4-.8V37l.1-.2.1-.2v-.2l.2-.5c0-.2 0-.4.2-.5v-.8l.1-.3 6.4-14.4 12.2-2-9.9 21.8Z" style="fill:#000;fill-rule:nonzero"/><path d="m425 30.2.1-.3.2-.4.1-.4.2-.3.2-.4.1-.3a8.8 8.8 0 0 1 .3-.8l.1-.4.1-.3v-.2a9 9 0 0 1 .3-.7v-.3l.2-.4v-2l.1-.2V22a9.8 9.8 0 0 0 0-1.5 160.1 160.1 0 0 0-.9-1.8c-.1-.2-.2-.3-.4-.3l-.4-.3h-1a2 2 0 0 0-.4.3c-.2 0-.3.2-.4.4l-.3.5-.2.7-.3.9V25l.2.2v.1l.1.7.2.6.1.6.2.6.3.7.3.7a8.8 8.8 0 0 0 .7 1.5v-.1l.2-.4m-6.4-11.6-8 17.5-.2.5-.3.5v.3c0 .2-.1.3-.2.3v.4l-.1.3v1.1l.1.5.3.4.4.3.3.3.6.2a4.3 4.3 0 0 0 1.1.2l1.3-.1c.4 0 .9-.2 1.3-.4l.6-.2.6-.3a83.8 83.8 0 0 0 2.3-1.7l.6-.5a11 11 0 0 0 1.4-1.5 20.5 20.5 0 0 0 2.3-3.1l.4-.5.3-.5.1-.2.2-.2.1-.2.2-.3a13.4 13.4 0 0 1-1.4-2 16.1 16.1 0 0 1-2-4.3 9.9 9.9 0 0 1-.1-2.5v-1.4a4.4 4.4 0 0 1 1-2.3 7.4 7.4 0 0 1 1.6-1.7l1.1-.5a11 11 0 0 1 2.7-.5 8 8 0 0 1 2.7.5l1.1.6 1 .8.7 1c.3.3.4.7.6 1.1a10.4 10.4 0 0 1-.7 7.5 28.4 28.4 0 0 1-1.4 2.7 67 67 0 0 1-1.9 3 4 4 0 0 0 .5.2l.3.2h.2l.5.2.5.2.5.2.6.2a20 20 0 0 0 1 .3h.5l.5.2.5.1h.6l.5.1h3.5l-.2 1.5h-1.5a1.3 1.3 0 0 1-.5.2h-.7l-.3-.1h-.4l-.2-.1h-.2l-.5-.1-.3-.1a8.7 8.7 0 0 1-1.6-.4 17.5 17.5 0 0 1-3.5-1.6l-.5-.2-.3-.2-.2-.1h-.1v.1l-.1.1h-.1v.1l-.2.2h-.2v.1a34.4 34.4 0 0 1-3.5 2.8l-.7.5a19 19 0 0 1-4.4 2.4 24.6 24.6 0 0 1-5 1.3 30.6 30.6 0 0 1-11.4-.3c-.5 0-1-.2-1.4-.4a4 4 0 0 1-1.7-1.6l-.3-1-.1-1.1v-.7l.1-.4.2-.4v-.5l.1-.5a5.9 5.9 0 0 1 .4-1.2l6-13.4 12.4-2Z" style="fill:#000;fill-rule:nonzero"/><path d="M465 20.4c-.1 0-.2 0-.3-.2l-.2-.1-.2-.1-.3-.1-.2-.2h-.2l-.3-.2h-.2l-.2-.1-.1-.1h-.4l-.2-.1a5.7 5.7 0 0 0-1-.1 3 3 0 0 0-1 0l-.4.2h-.4a2 2 0 0 0-.5.2l-.3.2a1 1 0 0 0-.4.3l-.4.2-.1.2-.2.1v.2c-.2 0-.2 0-.3.2l-.2.2-.1.2h-.1l-.1.3-.2.1v.2l-.2.1-.1.2-.1.1a6 6 0 0 0-.5.7l-.5.8-.5 1-.5.9-1 1.8a51.7 51.7 0 0 1-1.7 3.5 38.6 38.6 0 0 0-1.9 5.4 5.6 5.6 0 0 0 .1 2c0 .2.2.4.3.5l.4.4.5.4.5.3a28 28 0 0 0 1.4.1h1.4l.1-.1h.3a3.6 3.6 0 0 1 .6-.3h.2l.3-.2h.3a4.4 4.4 0 0 1 .5-.2v-.1c.2 0 .2-.1.3-.2h.3l.1-.1.2-.1h.1l.1-.1.2-.1h.2l.1-.2h.1l.1-.1-.2-1.4V36l.1-.3.1-.2.1-.3V35l.2-.1v-.5l.1-.1.1-.1V34l.1-.1 6.4-13.4h-.3m4.6 15.2-.3.5-.1.4-.1.3-.1.2a1.1 1.1 0 0 0-.1.5v.3a3.3 3.3 0 0 0 .1 1l.3.3.4.3c.1.2.3.2.5.3l.5.2.6.1h1.9a27.9 27.9 0 0 0 6-1.8h.1l.2-.1h.2l.1-.1.1-.1.2-.1h.2v-.2h.4l.3-.2a2 2 0 0 1 .4-.2h.1l.2-.2h.2V37l.2-.1.6.6-.6.4-.5.4A16.6 16.6 0 0 1 478 40a25.7 25.7 0 0 1-5.8 1.6h-1.7l-.1.1h-.7l-.3.1h-1l-.4.1h-.7a34.4 34.4 0 0 1-4.5-.3l-.6-.2-1-.3a15 15 0 0 1-.9-.5 11.8 11.8 0 0 1-1.4-1.3l-.6.4a10.3 10.3 0 0 1-1.1.5l-.6.2-.1.1-.2.1-.4.2h-.4a6 6 0 0 0-.5.2l-.5.2-.4.1-.4.1-.2.1-.3.1h-1.5l-.3.1a11.7 11.7 0 0 1-1.8.2H446l-1.6-.2A10.6 10.6 0 0 1 440 40l-1-1-.3-1.4a14 14 0 0 1 0-3.9l.1-.8.1-.2v-.2l.3-.7.3-.6c0-.3.2-.6.4-.9a48.6 48.6 0 0 1 3.9-5.6l.3-.4c.2 0 .3-.2.4-.3l.3-.3.4-.4c.4-.5 1-.9 1.4-1.2a27.3 27.3 0 0 1 5-2.9 51 51 0 0 1 6-1.3 24.4 24.4 0 0 1 6 .4 4.2 4.2 0 0 1 .7.3 9.4 9.4 0 0 1 .7.3 14.2 14.2 0 0 1 1.1.8l11.7-1.9-8.3 18Z" style="fill:#000;fill-rule:nonzero"/><path d="M500.7 3.8a16.3 16.3 0 0 1 2.3.8l1 .6.8.8a5.5 5.5 0 0 1 1 1.8 3.6 3.6 0 0 1 0 2l-.4 1-.6.9-.8.8a6.2 6.2 0 0 1-2 1.1 6.9 6.9 0 0 1-2.5.4l-1-.1a28 28 0 0 1-1.5-.3 6.8 6.8 0 0 1-2-1.1 5.6 5.6 0 0 1-1.8-2.6 3.8 3.8 0 0 1 0-2c0-.4.2-.7.4-1l.5-.9.8-.8a7.5 7.5 0 0 1 4.6-1.5v-.1c.4 0 .8 0 1.2.2M493 36v.5l-.2.1v.2a2.1 2.1 0 0 0-.1.6l-.2.3v1.2a26.2 26.2 0 0 1 .4.8l.4.3.4.2a442.5 442.5 0 0 1 1 .3 7.3 7.3 0 0 0 1.8 0 38 38 0 0 0 2.4-.5l.5-.2a38.6 38.6 0 0 0 1.9-.8l.4-.2a7.4 7.4 0 0 0 .8-.5 14.8 14.8 0 0 1 .7-.3l.2-.1h.1a1.4 1.4 0 0 1 .7-.5h.2l.4-.2a1.6 1.6 0 0 1 .6-.4l.7.5a19.7 19.7 0 0 1-5.3 3 118 118 0 0 1-3.6 1.1l-1.9.3-2 .1a32.5 32.5 0 0 1-7.8-.5L484 41l-1.1-.6a3 3 0 0 1-.8-.8l-.4-.9-.1-1v-.8l.1-.1v-.1l.1-.3V35l.2-.1 7-15.3 12.2-2L493 36Z" style="fill:#000;fill-rule:nonzero"/><path d="m521.9 25 .2-.2.1-.1.2-.3a8.4 8.4 0 0 1 .8-1l.1-.1.1-.2v-.2l.2-.3.2-.4.1-.4v-1a4 4 0 0 0 0-1l-.2-.2v-.4h-.1l-.1-.2a5 5 0 0 0-.4-.3l-.4-.3-.3-.1a3 3 0 0 0-.7 0l-.3.1a1.9 1.9 0 0 0-.4.3l-.2.2v.2l-.2.2-.1.2v2.3a1 1 0 0 0 .1.5v.3l.1.2.2.6.2.6a26 26 0 0 1 .5 1.4v-.1l.3-.2m-9 14.8h.1l.2-.2.1-.1.2-.1.2-.2.1-.2.2-.1v-.1l.1-.2v-.2l.2-.1v-.9l.2-.1v-.9l-.1-.2v-.2l-.1-.5c0-.2 0-.3-.2-.5v-.2l-.1-.3-.2-.3v-.4a17.8 17.8 0 0 1-.8-1.6l-.2.2h-.1l-.2.1v.1l-.1.1-.2.1v.1l-.4.2-.2.2h-.2v.1l-.2.1h-.1l-.2.2-.1.2h-.2v.1l-.2.1-.1.1h-.2a2.2 2.2 0 0 0-.4.4l-.2.1-.2.1-.1.1-.2.2h-.2l-.4.3-.3.2-.1.1-.1.1-.2.1-.4.2-.3.3h-.1v.1l-.2.1-.1.1 6.3 3v.1m21.4-2.3-.2.2-.1.1-.2.1-.1.1-.2.1-.1.1h-.2l-.1.2-1.7.8a63.5 63.5 0 0 1-3.3 1.5l-.8.3-.9.2-.5.1-.5.2a21.9 21.9 0 0 0-2.1.3 18.5 18.5 0 0 1-2.8.2h-1.3a3 3 0 0 1-.8-.2h-1.1a1.9 1.9 0 0 0-.7-.2h-.7l-.8-.1a26.4 26.4 0 0 0-2.2-.5h-.4l-.2.1h-.3l-.1.1a2.6 2.6 0 0 1-.6.1l-.4.1h-.3l-.2.1H509v.1h-.1l-.2.1h-.7v.1h-.4l-.2.1h-.4v.1h-.3a2.5 2.5 0 0 1-1.1-.2l-.4-.2a.5.5 0 0 1-.3-.3l-.3-.3a2.4 2.4 0 0 1-.5-1v-.5h-.1v-.2h-.1v-.6l-.1-.2V38h.1v-.7l.2-.2.2-.1.3-.2.3-.3.1-.2.4-.3.5-.3.6-.4h.1l.1-.2h.2V35h.2l.2-.1.1-.1.2-.1.1-.1.1-.1.2-.1.2-.2.1-.1.2-.1.2-.1.2-.2.3-.3.3-.1.2-.2.4-.3.4-.3.2-.1.1-.2.2-.2.2-.2a.9.9 0 0 0 .3-.2l.2-.2h.1l.3-.2.1-.2h.2v-.1l-.1-.5a6.1 6.1 0 0 1-.3-.8v-.3l-.1-.3v-.4l-.1-.3v-3.4l.5-1.7.9-1.6a10.7 10.7 0 0 1 2.6-2.6l1.8-.9 2-.5a14.3 14.3 0 0 1 3.2-.1l.7.1c.3 0 .5.2.7.3l.5.3.4.5.3.5a3.1 3.1 0 0 1 .3 1.3v.3l-.1.3v.4l-.2.4-.2.7a16.8 16.8 0 0 1-.6 1l-.3.4-.3.4a9.1 9.1 0 0 1-.7.7 14 14 0 0 1-1.1 1.3v.2l.2.3.1.3.1.3.2.3.2.2.1.4.2.2v.4l.2.3.1.3.2.3.1.6.2.5v1.7a5.6 5.6 0 0 1-.5 2.5 8.3 8.3 0 0 1-1.8 2 12.4 12.4 0 0 1-3.1 1.8 18.3 18.3 0 0 1-4.2 1.4l.5.2.5.1h.5a4.1 4.1 0 0 1 .8.3h.4l.5.1h4.1l.8-.1 1-.1a10 10 0 0 0 1.8-.4 49.4 49.4 0 0 1 1.7-.5l1.2-.5a89.6 89.6 0 0 0 3.7-1.7l.8-.4.7-.5.7.7Z" style="fill:#000;fill-rule:nonzero"/></svg>