<?xml version="1.0" encoding="UTF-8" standalone="no"?>
<!DOCTYPE svg PUBLIC "-//W3C//DTD SVG 1.1//EN" "http://www.w3.org/Graphics/SVG/1.1/DTD/svg11.dtd">
<svg viewBox="0 40 2550 3260" xmlns="http://www.w3.org/2000/svg" xml:space="preserve" fill-rule="evenodd" clip-rule="evenodd" stroke-linejoin="round" stroke-miterlimit="2">
  <g transform="translate(-5675.47)">
    <path fill="none" d="M5675.47 0h2550v3300h-2550z"/>
    <clipPath id="a">
      <path d="M5675.47 0h2550v3300h-2550z"/>
    </clipPath>
    <g clip-path="url(#a)">
      <path fill="url(#b)" d="M-17.51-37.21h2588.8v3366.39H-17.51z" transform="translate(5675.47)"/>
      <path fill="none" d="M5657.96-37.21h2588.8v3366.39h-2588.8z"/>
      <path d="M9578.47 2393.6c-234.82 38.45-498.89 168.94-668.96 422.56-131.02 195.38-132.36 435.14-132.36 589.32 0 154.19 276.83 37.06 276.83 37.06 21.24-99.43 12.45-238.53 103.67-423.02 91.21-184.48 324.2-493.2 684.37-493.2 15.16-127.77-29.99-170.95-263.55-132.72Z" fill="url(#c)" transform="translate(-2841.39 -29.18)"/>
      <path d="M10656.1 2316.18c-240.5 0-465.8 85.68-646.1 239.17-231.46 197.07-389.1 513.02-389.1 871.52s157.64 674.45 389.1 871.52c180.3 153.5 405.6 239.17 646.1 239.17 240.6 0 465.9-85.67 646.2-239.17 231.4-197.07 353.5-513.02 353.5-871.52s-122.1-674.45-353.5-871.52c-180.3-153.49-405.6-239.17-646.2-239.17Zm184.6 416.67c134.5 0 247.4 72.58 335.7 175.02 114.2 132.68 132 316.73 132 519 0 202.28-38.7 386.32-153 519-88.2 102.45-170 175.02-304.5 175.02s-248-72.57-336.3-175.02c-114.2-132.68-137.4-316.72-137.4-519 0-202.27 31-386.32 145.3-519 88.3-102.44 183.7-175.02 318.2-175.02Z" fill="url(#d)" transform="matrix(.80734 0 0 1 -1584.97 176)"/>
      <path d="M7310.59 1603.14c295.81-43.84 1121.26 128.31 1842.18 384.2 720.92 255.88 1066.03 499.23 770.25 543.08-295.8 43.84-1121.25-128.31-1842.17-384.2-720.92-255.88-1066.06-499.23-770.26-543.08Zm741.13 247.67c96.84-14.36 367.09 42.01 603.11 125.78 236.01 83.77 349.01 163.44 252.17 177.8-96.84 14.35-367.09-42.01-603.11-125.78-236.02-83.78-349.01-163.45-252.17-177.8Z" fill="url(#e)" transform="matrix(1 -.07135 0 1 -2781.39 658.42)"/>
      <path d="M0-116.46c-3.44-18-8.6-34.7-15.48-49.26-6.98-14.79-15.77-27.48-26.4-37.14-10.86-9.88-23.74-16.66-38.67-19.23a74.03 74.03 0 0 0-9.1-1.01c-3-.14-5.95-.09-8.84.16a63.7 63.7 0 0 0-16.86 3.78l-79.25 29.6a60.52 60.52 0 0 1 14.9-3.5 68.41 68.41 0 0 1 15.98.25 68.93 68.93 0 0 1 34.8 14.92c9.65 7.77 17.67 18.12 24.05 30.29 6.3 12 11.05 25.85 14.21 40.81a230.9 230.9 0 0 1 4.75 47.53 290.96 290.96 0 0 1-.78 21.15 250.63 250.63 0 0 1-2.35 19.92 199.93 199.93 0 0 1-4.95 22.52 163.61 163.61 0 0 1-3.34 10.41 143.7 143.7 0 0 1-3.91 9.8c-1.3 2.9-2.67 5.73-4.13 8.44-1.46 2.73-3 5.34-4.62 7.85a98.55 98.55 0 0 1-5.13 7.21 87.99 87.99 0 0 1-5.64 6.53 78.7 78.7 0 0 1-7.18 6.66 72.07 72.07 0 0 1-7.9 5.6 68.6 68.6 0 0 1-27.35 9.58 75.2 75.2 0 0 1-11.08.6 66.02 66.02 0 0 1-13.2-1.67 62.65 62.65 0 0 1-7.52-2.28l79.2 29.58a65 65 0 0 0 23.4 4.13 71.77 71.77 0 0 0 12.43-1.12 74.83 74.83 0 0 0 20.87-6.83 76.54 76.54 0 0 0 9.57-5.7 83.28 83.28 0 0 0 8.72-7.03 92.22 92.22 0 0 0 7.9-8.24c2.16-2.53 4.23-5.21 6.2-8.03 1.96-2.8 3.84-5.74 5.62-8.81 1.78-3.06 3.46-6.25 5.06-9.56a178.63 178.63 0 0 0 8.76-22.08c1.32-4.06 2.53-8.25 3.64-12.55a269.56 269.56 0 0 0 5.38-27.07A305.14 305.14 0 0 0 4.3-34.14a357.4 357.4 0 0 0 .85-25.33c0-19.88-1.74-39.14-5.15-57" fill="url(#f)" fill-rule="nonzero" transform="translate(7519.34 1701.15) scale(3.95897)"/>
      <path d="M7519.34 1240.07c-13.61-71.23-34.08-137.34-61.28-194.99-27.64-58.55-62.45-108.8-104.5-147.03-43.04-39.14-94-65.97-153.12-76.16a293.06 293.06 0 0 0-36-3.99 266.8 266.8 0 0 0-35.03.63 249.4 249.4 0 0 0-66.74 14.96l-313.76 117.23a239.6 239.6 0 0 1 59.03-13.89 258.18 258.18 0 0 1 31.14-1.4c10.52.16 21.22.93 32.1 2.36 52.96 6.9 98.86 27.77 137.8 59.11 38.17 30.74 69.9 71.74 95.18 119.89 24.94 47.54 43.75 102.35 56.28 161.59 12.45 58.86 18.8 122.47 18.8 188.17 0 14.33-.27 28.48-.79 42.44-.52 13.96-1.3 27.73-2.33 41.29a992.22 992.22 0 0 1-3.87 40.08 907.46 907.46 0 0 1-5.4 38.8 820.59 820.59 0 0 1-8.67 45.65 736.14 736.14 0 0 1-10.94 43.5 647.73 647.73 0 0 1-13.22 41.2 568.91 568.91 0 0 1-15.49 38.76 501.27 501.27 0 0 1-16.33 33.45 439.99 439.99 0 0 1-18.32 31.08 390.15 390.15 0 0 1-20.3 28.55 348.34 348.34 0 0 1-22.33 25.86 311.6 311.6 0 0 1-28.43 26.33 285.32 285.32 0 0 1-31.26 22.19 270.63 270.63 0 0 1-80.3 32.89 295.91 295.91 0 0 1-18.5 3.65 297.71 297.71 0 0 1-31.62 3.45c-7.32.4-14.56.5-21.71.33a261.38 261.38 0 0 1-42.08-4.46 250.08 250.08 0 0 1-30.18-7.77 249.03 249.03 0 0 1-9.79-3.43l313.55 117.13a257.32 257.32 0 0 0 45.24 12.33 263.58 263.58 0 0 0 47.42 3.99c8.04-.03 16.17-.42 24.39-1.16a307.8 307.8 0 0 0 66.11-13.4 293.27 293.27 0 0 0 41.33-16.92 303.02 303.02 0 0 0 37.86-22.57 329.72 329.72 0 0 0 34.52-27.8 371.69 371.69 0 0 0 31.31-32.62 425.5 425.5 0 0 0 24.53-31.8 486.87 486.87 0 0 0 22.25-34.9 560.68 560.68 0 0 0 20.02-37.83 642.28 642.28 0 0 0 17.83-40.57 734.26 734.26 0 0 0 16.88-46.85c5.2-16.08 10-32.65 14.38-49.68a969.5 969.5 0 0 0 11.89-52.34c3.54-17.84 6.68-36.13 9.41-54.82 2.22-15.25 4.18-30.77 5.86-46.54a1331.66 1331.66 0 0 0 6.72-97.51c.56-16.72.84-33.67.84-50.84 0-78.7-6.87-154.94-20.38-225.62" fill="none"/>
      <path d="M0 384.7c-11.66-15.1-21.7-32.48-29.93-51.8-8.35-19.6-14.8-41.08-19.16-64.03a391.28 391.28 0 0 1-6.65-72.96 420.3 420.3 0 0 1 1.9-39.78 382.82 382.82 0 0 1 5.59-37.67c1.75-8.68 3.8-17.13 6.13-25.35a310.07 310.07 0 0 1 7.79-23.83A282.53 282.53 0 0 1-25 47.12a256.04 256.04 0 0 1 10.77-20.37c4-6.8 8.26-13.27 12.75-19.4a209.14 209.14 0 0 1 14.04-17.2 190.4 190.4 0 0 1 15.18-14.92c5.21-4.57 10.6-8.77 16.17-12.6l-66 45.45a156.4 156.4 0 0 0-13.7 10.61 163.76 163.76 0 0 0-12.8 12.37 177.16 177.16 0 0 0-11.77 14.08A191.18 191.18 0 0 0-71 60.85a206.38 206.38 0 0 0-8.95 16.38 223.3 223.3 0 0 0-7.73 17.7 241.77 241.77 0 0 0-6.43 18.93c-1.92 6.52-3.6 13.2-5.04 20.06a278.17 278.17 0 0 0-4.59 29.72 304.9 304.9 0 0 0-1.56 31.3c0 19.97 1.85 39.24 5.47 57.5a241.27 241.27 0 0 0 15.8 50.83 192.46 192.46 0 0 0 24.9 41.79 156.5 156.5 0 0 0 32.47 31l65.2 46.01C24.33 412.05 11.41 399.5 0 384.7" fill="url(#g)" fill-rule="nonzero" transform="translate(6498.06 713.1) scale(3.95897)"/>
      <path d="M6498.06 2236.12c-46.16-59.81-85.9-128.6-118.5-205.1-33.06-77.59-58.55-162.6-75.83-253.47-17.4-91.56-26.34-188.43-26.34-288.85 0-26.81.63-53.37 1.9-79.64a1596 1596 0 0 1 5.63-77.84c2.5-25.6 5.6-50.87 9.3-75.76 3.68-24.85 7.96-49.32 12.82-73.4 6.93-34.32 15.03-67.8 24.26-100.34a1227.54 1227.54 0 0 1 30.84-94.35c11.3-30.3 23.64-59.56 36.98-87.73 13.26-28 27.48-54.9 42.64-80.63a916.98 916.98 0 0 1 50.48-76.8 828 828 0 0 1 55.6-68.08 753.79 753.79 0 0 1 60.1-59.08 694.1 694.1 0 0 1 63.98-49.9l-261.31 179.96a619.21 619.21 0 0 0-54.24 42 654.68 654.68 0 0 0-50.64 48.96 701.37 701.37 0 0 0-46.61 55.73 756.88 756.88 0 0 0-42.11 62.23 817.05 817.05 0 0 0-35.42 64.81 884 884 0 0 0-30.6 70.08 957.16 957.16 0 0 0-25.46 74.96 1032.7 1032.7 0 0 0-19.96 79.42c-3.99 19-7.5 38.33-10.54 57.93a1155.33 1155.33 0 0 0-7.63 59.7c-2.04 20.2-3.59 40.63-4.62 61.3a1255.9 1255.9 0 0 0-1.56 62.68c0 79.03 7.34 155.32 21.64 227.6 14.2 71.84 35.2 139.31 62.53 201.24 27.02 61.22 60.07 116.7 98.6 165.44 37.91 47.96 80.96 89.15 128.56 122.74l258.1 182.15c-56.24-39.7-107.36-89.35-152.59-147.96" fill="none"/>
      <path d="M0 325.83c14.63-2.52 27.33-9 38.1-18.6 10.52-9.36 19.28-21.76 26.26-36.48 6.87-14.48 12.07-31.32 15.54-49.87 3.44-18.41 5.21-38.66 5.21-60.17 0-19.88-1.74-39.14-5.15-57-3.44-17.99-8.6-34.69-15.48-49.25-6.98-14.79-15.77-27.48-26.4-37.14C27.23 7.44 14.35.66-.58-1.9-15.7-4.52-29.66-2.37-42.16 4c-12.82 6.54-24.03 17.46-33.32 32.1-9.46 14.91-16.85 33.54-21.9 55.06-5.1 21.73-7.77 46.2-7.77 72.46 0 26.45 2.76 50.81 7.98 72.25 5.17 21.23 12.7 39.4 22.29 53.83 9.4 14.16 20.7 24.6 33.53 30.77 12.5 6.01 26.4 7.94 41.35 5.36m1.73-414.5c28.85 7.62 53 20.6 72.9 37.3 19.03 16 34.47 35.64 46.53 57.71 11.72 21.44 20.42 45.48 26.16 71.07 5.66 25.23 8.52 52.33 8.52 80.38 0 33.33-3.4 63.64-9.81 90.77-6.52 27.57-16.26 52.3-28.95 73.78-13.1 22.17-29.53 41.21-49.12 56.52-20.5 16.02-44.74 28.17-72.61 35.54-30.06 7.95-58.65 8.25-85 1.47-27.73-7.14-52.62-22.02-73.71-43.66-21.93-22.5-39.4-51.9-51.5-86.66-12.37-35.5-18.88-75.87-18.88-119.03 0-45.42 7.18-87.46 20.48-124.13 13.01-35.86 31.61-65.86 54.53-88.63 22.01-21.87 47.66-36.74 75.76-43.84 26.64-6.73 55.2-6.4 84.7 1.4" fill="url(#h)" fill-rule="nonzero" transform="translate(7202.78 829.46) scale(3.95897)"/>
      <path d="M7202.78 2119.42c57.93-9.99 108.18-35.65 150.82-73.61 41.65-37.09 76.33-86.19 103.97-144.44 27.22-57.35 47.8-124 61.54-197.46 13.63-72.88 20.62-153.03 20.62-238.22 0-78.7-6.87-154.95-20.38-225.62-13.62-71.23-34.08-137.35-61.3-195-27.63-58.54-62.44-108.8-104.48-147.03-43.04-39.14-94-65.96-153.12-76.16-59.85-10.32-115.09-1.8-164.58 23.42-50.76 25.87-95.13 69.14-131.9 127.09-37.45 59.02-66.73 132.78-86.72 217.98-20.2 86.04-30.74 182.93-30.74 286.86 0 104.72 10.9 201.16 31.57 286.05 20.46 84.04 50.32 155.98 88.24 213.1 37.23 56.05 81.93 97.37 132.74 121.8 49.52 23.83 104.53 31.45 163.72 21.24m6.85-1641.03c114.22 30.2 209.82 81.57 288.6 147.73 75.34 63.28 136.47 141.07 184.22 228.44 46.4 84.9 80.84 180.05 103.56 281.37 22.4 99.89 33.72 207.16 33.72 318.2 0 131.98-13.44 251.96-38.83 359.38-25.8 109.15-64.35 207.02-114.62 292.09-51.85 87.75-116.91 163.14-194.46 223.76-81.16 63.43-177.13 111.54-287.45 140.71-119 31.47-232.2 32.63-336.48 5.81-109.83-28.25-208.35-87.2-291.86-172.86-86.82-89.04-155.99-205.45-203.9-343.06-48.94-140.53-74.74-300.37-74.74-471.26 0-179.8 28.43-346.24 81.11-491.43 51.5-141.96 125.15-260.7 215.88-350.87 87.14-86.6 188.69-145.47 299.91-173.57 105.5-26.65 218.54-25.33 335.34 5.56" fill="none"/>
    </g>
  </g>
  <path d="M927.65 3072.52a22.92 22.92 0 0 1-7.33-6.66 15.06 15.06 0 0 1-2.27-5.73 30.4 30.4 0 0 1 .67-8.4 19.73 19.73 0 0 1 6.13-10l5.46-4a93.6 93.6 0 0 1 27.73-8.92l1.33-.14 1.33-.26 1.34-.14c1.33-.14 2.67-.31 4-.53 4.1-.47 8.25-.64 12.39-.53h2.13c.57.1 1.15.15 1.73.13h1.74c.44.07.88.12 1.33.13h.93c.3.09.62.13.94.14h.13l.13.26h.14l.26.14v.26h.14v.8l-.14.27h-.53v.27l-.27.13v.13l-.26.14-.4.4h-.14l-.13.13-.27.13-.66.67-.14.26h-.26v.27h-.14v.27l-.53.26-.13.27-.27.27-.27.13-.13.13c-1.8 2.16-3.58 4.34-5.33 6.54a177.09 177.09 0 0 0-9.73 15.86 151.9 151.9 0 0 0-3.6 8.53 23.57 23.57 0 0 0-1.87 7.6 24.13 24.13 0 0 0 0 4l.54 1.46.8 1.33.93 1.33c.74.75 1.66 1.3 2.67 1.6l1.73.4h1.87a20.4 20.4 0 0 0 12.12-4 32.24 32.24 0 0 0 6.53-7.2 67.87 67.87 0 0 0 8.27-14.79l.66-2.66a47.98 47.98 0 0 0 2.67-11.6 22.3 22.3 0 0 0-.27-4v-.53c.02-.45-.02-.9-.13-1.33v-.54l-.27-.66-.13-.8c-.15-.5-.33-.99-.53-1.47l-.4-1.07c-.43-.9-.87-1.78-1.33-2.66v-.67l.4-.13a6.6 6.6 0 0 0 1.06-.27h1.33l.4-.13h1.07a18.4 18.4 0 0 1 5.86.8l2.4 1.2a9.73 9.73 0 0 1 4.8 5.73c.82 2.12 1.1 4.41.8 6.66v1.87l-.13.53c-.09.4-.13.8-.13 1.2a38.8 38.8 0 0 1-.4 1.87l-.27.53v.67l-.13.53-.27.54v.53a40.68 40.68 0 0 1-6.27 12 54.12 54.12 0 0 1-23.72 18.65 43.72 43.72 0 0 1-27.99 0 14.36 14.36 0 0 1-3.47-1.86c-1.06-.8-2-1.47-2.8-2.4a12.82 12.82 0 0 1-2.13-2.67l-1.06-2.93a13.3 13.3 0 0 1-.4-3.33 21.86 21.86 0 0 1 4.66-13.6c1.07-1.33 2.27-2.93 3.6-4.26a109.69 109.69 0 0 1 19.6-15.2l.66-.26.8-.4.53-.4.67-.27.53-.4.67-.27.27-.26h.4l.26-.14.27-.26.66-.27c.26-.19.53-.36.8-.53l.27-.13h.27l.26-.27.67-.27.67-.4.26-.13h.27l.27-.27h.13v-.26h.13v-.4l-.13-.14h-.27v-.13h-4l-.26.13h-.8a3.97 3.97 0 0 0-.67 0h-.53l-.67.14h-1.73l-.53.13h-.54c-6.06.69-12.08 1.8-17.99 3.33a86.12 86.12 0 0 0-18.66 8.13 145.91 145.91 0 0 0-6.26 4.4c-.83.53-1.59 1.16-2.27 1.87l-.8.8c-.12.1-.26.19-.4.26l-.8.8a9.3 9.3 0 0 0-.67.8c-.97 1.37-2 2.7-3.06 4-.8 1.5-1.47 3.05-2 4.67.01.22-.03.46-.13.66-.29 1.73-.24 3.5.13 5.2l.67 1.6c.53.94 1.16 1.84 1.86 2.66.77.93 1.67 1.74 2.67 2.4l1.46.94v-.14l-1.33 1.07.27.13Zm121.02-18.79-.13-.27-.4-.13-.54-.27a9.08 9.08 0 0 1-.66-.4l-.27-.13h-.27l-.26-.13h-.14l-.13-.14h-.4l-.4-.13a7.46 7.46 0 0 0-1.33-.13 4 4 0 0 0-1.33 0l-.54.26h-.53a2.4 2.4 0 0 0-.53.27l-.4.27c-.27 0-.4.13-.67.4l-.4.26-.4.4-.8.8-.13.27-.27.4-.13.13-.14.27-.26.13v.27l-.27.13-.67.94a42.47 42.47 0 0 0-2 3.6 279.63 279.63 0 0 0-5.33 11.19 21.4 21.4 0 0 0-.8 4c-.02.58.02 1.16.14 1.73l.4.67 1.33 1.06.67.4c.57.06 1.15.1 1.73.14h1.87l.26-.14h.27l.4-.26h.4l.4-.27h.4c.3-.16.6-.3.93-.4l.4-.4h.4l.27-.13.13-.14h.27v-.13l.26-.13h.27l.4-.4-.13-1.87v-1.6l.13-.26.27-.4v-.27l.13-.13v-.67l.27-.13v-.4l.26-.14 8.4-17.86h-.27m6 20.26c-.4.81-.71 1.66-.93 2.54v.4c-.02.44.03.9.13 1.33l.4.4.53.4.67.4.8.26.67.14h2.66a35.98 35.98 0 0 0 7.33-2.14l.54-.26h.26l.14-.14h.26l.27-.13v-.13l.4-.13.27-.27h.4l.26-.27c.17-.1.35-.2.54-.26h.26l.14-.27h.26l.27-.13.13-.14.94.8-.8.54c-.48.32-.97.64-1.47.93l-.8.4-1.6.66c-1.08.52-2.2.97-3.33 1.34-1.09.43-2.2.79-3.33 1.06l-.94.14c-.6.2-1.23.33-1.86.4H1056l-.13.13h-.27a2.74 2.74 0 0 0-.53 0l-.4.13h-1.47l-.4.14h-.93c-2 0-4.01-.14-6-.4l-.93-.27-1.33-.4-1.07-.67c-.71-.52-1.38-1.1-2-1.73l-.8.53c-.43.25-.88.47-1.33.67l-.8.27-1.07.53h-.4l-.66.27-.8.26-1.07.27-.27.13-.4.14h-2l-.4.13a17 17 0 0 1-2.26.27h-4.93c-2.85.01-5.64-.82-8-2.4l-1.2-1.6-.53-1.73a16.74 16.74 0 0 1 0-4.14v-1.06a104 104 0 0 0 .66-2.54l.4-.8.54-1.2c.69-1.12 1.4-2.23 2.13-3.33l.66-.93.8-1.2.4-.4.4-.53c.23-.39.5-.75.8-1.07l1.87-1.86 2-1.6a35.57 35.57 0 0 1 6.66-3.87c1.76-.51 3.54-.95 5.33-1.33a29.2 29.2 0 0 1 10.67 0c.28.15.55.33.8.53.32.12.63.25.93.4l1.6 1.07 15.6-2.54-11.2 24 .13-.14Z" fill="#fff" fill-rule="nonzero"/>
  <path d="m1085.86 3074.66-.14.66v.4l-.26.4v.27l-.27.4v.8c0 .45.04.9.13 1.33l.4.4 1.07.8.67.27h.66l.54.13h1.6c1.01-.2 2.03-.38 3.06-.53l1.6-.54c1.25-.34 2.46-.83 3.6-1.46l1.86-.8 2.14-1.07.8.8a35.22 35.22 0 0 1-6.13 3.2l-1.2.27c-1.44.4-2.86.84-4.27 1.33a17 17 0 0 1-2.13.4h-.67a1.34 1.34 0 0 0-.4 0l-1.2.27h-1.73l-.27.13h-1.73l-.27.13h-.93c-2.9.04-5.78-.41-8.53-1.33l-1.33-.93a3.8 3.8 0 0 1-.8-1.07c-.27-.4-.4-.8-.4-1.33l-.13-1.33v-2.27l.13-.53v-.4l.4-.67v-.67h.13v-.26l.14-.14 18.12-41.58 16.4-2.67-20.66 47.05v.14Z" fill="#fff" fill-rule="nonzero"/>
  <path d="M1145.97 3031.87a68.66 68.66 0 0 0-4 3.33l-1.33.8c-.68.5-1.4.94-2.14 1.34 0 .26-.13.26-.26.4l-.4.13-.8.53-.27.14-.4.26c-.2.2-.43.37-.66.54l-.67.26-.13.14-.27.13v.13l-.53.27-.14.13h-.13l-.53.27v.13l-.4.13v.14h-.27l-1.6 1.06-.4.14-.4.26-.13.27-.4.13-.14.14-5.73-.27c.32-.2.6-.48.8-.8l.27-.4.4-.27.27-.4.4-.4.26-.4.27-.26.27-.4v-.13l.26-.14.14-.26.26-.14v-.26l.14-.14.26-.4s0-.26.27-.26v-.54l.4-.4v-.26l.26-.54.14-.4c.23-.32.41-.68.53-1.06 0-.27 0-.4.27-.67l.13-.67.27-.66.13-.67v-.27h15.73v.27ZM1118.9 3070l.67-.53c1.13-.81 2.2-1.7 3.2-2.67l.53-.26.4-.54.4-.26.53-.54.4-.53c.27 0 .4-.27.67-.4l1.33-1.33.14-.4.4-.14c0-.13 0-.26.26-.26l.4-.54.67-.66.13-.27.53-.53.14-.27.4-.53.53-.54.13-.4.27-.26.13-.27h.14l.13-.4.27-.26v-.27l.26-.27c.39-.63.7-1.3.94-2v-.26l.26-.14v-2l-.66-.66-.27-.14h-.13l-.54-.26a2.74 2.74 0 0 0-.53 0h-.93l-1.2.53a7.6 7.6 0 0 0-1.6 1.33l-.53.54-1.07 1.33a33.31 33.31 0 0 0-5.2 9.2c-.3.65-.57 1.32-.8 2l-.13.53c-.47 1-.87 2.02-1.2 3.06l-.13.67.66-.53m26 6.8-1.07.66-.94.53a4.1 4.1 0 0 0-.53.14l-.4.26-.53.27-.4.13c-.27 0-.4 0-.54.27-.13.06-.26.1-.4.13l-.4.27-1.06.27-.4.26h-.4l-.54.27c-.76.22-1.52.5-2.26.8-.74.23-1.5.4-2.27.53-1.48.36-3 .59-4.53.67-2 .07-4 .2-6 .4h-1.33l-1.33.13h-5.2l-.13-.13h-.94a28.25 28.25 0 0 1-7.73-1.87l-1.46-.8a4 4 0 0 1-1.07-1.33l-.53-1.46a8.24 8.24 0 0 1-.14-2.54v-.66l.14-.27v-.4l.13-.67v-1.2l.13-.66c.1-.2.15-.44.14-.67l.4-.93.26-1.07.67-1.46.67-1.6a37.3 37.3 0 0 1 4-6 10 10 0 0 1 2.26-2.53 34.95 34.95 0 0 1 6.13-4l3.6-1.2a36.51 36.51 0 0 1 10.66-.94c1.26.15 2.5.37 3.74.67l1.33.67 1.06.8.8 1.06c.42.74.65 1.56.67 2.4v.4h-.27v.8a4 4 0 0 1-.66 2.13l-1.34 2.14-1.86 2.13a29.56 29.56 0 0 1-5.6 3.87 60.2 60.2 0 0 1-12 5.33v1.06l-.13.4v2.54l.54 1.06.53.93.93.8 1.2.67 1.33.53 1.6.27c1.24.13 2.5.13 3.74 0 3.19-.19 6.33-.86 9.33-2a56.62 56.62 0 0 0 7.46-3.2v-.13l.93 1.07Z" fill="#fff" fill-rule="nonzero"/>
  <path d="m1155.56 3079.45-.26.8v.54h.66l.14-.27.4-.4.13-.27.27-.26.13-.27.27-.4.26-.67.54-.93c.54-1 1.03-2.02 1.46-3.06l2.14-3.74a61.16 61.16 0 0 0 2.4-3.46c.84-1.03 1.64-2.1 2.4-3.2l1.2-1.6v-.13c.1-1.5.5-2.95 1.2-4.27.6-1.5 1.5-2.86 2.66-4a18.74 18.74 0 0 1 3.46-2.66l2-.8 2.14-.27h.4c.44 0 .89.05 1.33.13l1.6.54.53.4.27.53.26.13v1.74l-.53.53h-.13l-.13.27-.27.13-.67.67h-.13l-.67.53c-.26 0-.4.27-.66.4l-1.07.8-2 1.33-.67.53-.4.27-.4.4c-.69.5-1.36 1.03-2 1.6l-1.2.93-1.06.8v3.07c0 .4.13.93.4 1.33l.67 1.07c.13.4.53.66.93.93.26.4.66.67 1.06.8l1.34.67 1.33.26h3.87l.66-.13c.88-.23 1.77-.4 2.67-.53l.4 1.73h-.54l-.4.13c-.12.07-.26.11-.4.14h-.66v.13h-2.27a27.74 27.74 0 0 1-4-.4 14.26 14.26 0 0 1-6.53-3.73 12.9 12.9 0 0 1-2-3.07h-.13l-.27.27-.26.13c0 .27-.27.4-.4.54a2.7 2.7 0 0 0-.4.53c-.23.34-.5.65-.8.93a4.9 4.9 0 0 0-.4.53l-.54.54-.8 1.33-.93 1.33a52.75 52.75 0 0 1-2.66 4l-1.6 2.67v.26h-.27v.54l-.27.26-.26.54-.27.26v.14l-.13.26-.27.14-.53.8-.4.13c0 .13 0 .27-.27.4h-.27l-.26.27a6.8 6.8 0 0 1-1.33.26h-.27a23.76 23.76 0 0 1-5.07 0h-1.06c-1-.29-1.98-.64-2.93-1.06l-.94-.8-.66-.8-.54-1.07v-2.66l.27-.54v-.26l.27-.67c0-.27 0-.53.26-.67v-1.06l.14-.4 8.53-19.2 16.12-2.66-13.06 29.05h.13Z" fill="#fff" fill-rule="nonzero"/>
  <path d="M1208.21 3031.6c1.05.29 2.07.64 3.07 1.07l1.33.8a5.47 5.47 0 0 1 1.73 2.27c.48.8.76 1.72.8 2.66 0 .4 0 .94-.26 1.34a9.83 9.83 0 0 1-1.34 2.4c-.13.4-.53.66-.93 1.06a9.35 9.35 0 0 1-6.13 2l-1.33-.13a38.8 38.8 0 0 1-1.87-.4c-1-.33-1.96-.83-2.8-1.47l-1.06-1.07a6.8 6.8 0 0 1-1.34-2.4c-.2-.87-.2-1.78 0-2.66l.54-1.33.8-1.2 1.06-1.07a10.27 10.27 0 0 1 6-2v-.13c.67 0 1.33 0 1.73.26m-10.26 42.92v.27l-.13.4v.13l-.14.27-.13.4v.4l-.27.4v1.6c0 .26 0 .4.27.53l.27.53.53.4.4.27 1.47.4c.8.1 1.6.1 2.4 0 .62-.08 1.24-.16 1.86-.27l.67-.26.66-.14.67-.26c.85-.34 1.7-.7 2.53-1.07l.54-.27c.36-.2.72-.42 1.06-.66l.67-.27.53-.26h.13l.4-.4.54-.27h.26l.54-.27c.22-.23.5-.42.8-.53l.93.67a26.25 26.25 0 0 1-7.2 4c-1.59.5-3.19 1-4.8 1.46l-2.4.4-2.66.13c-3.48.2-6.97-.02-10.4-.66l-2-.4-1.46-.8a4.02 4.02 0 0 1-1.07-1.07l-.53-1.2-.13-1.33v-1.07l.13-.13v-.13l.13-.4v-1.87l.27-.13 9.33-20.4 16.26-2.66-10.93 24.52Z" fill="#fff" fill-rule="nonzero"/>
  <path d="m1230.2 3070 .67-.54c.83-.58 1.63-1.2 2.4-1.87.43-.37.88-.72 1.33-1.06l.4-.54.54-.26.4-.54.53-.53.53-.4.54-.53.4-.27.26-.27.13-.26 1.34-1.34.53-.66.27-.27.13-.27.53-.53.8-1.07c.14-.25.32-.47.54-.66v-.27h.13c0-.26.13-.26.27-.4l.26-.53c.41-.9.86-1.8 1.34-2.67l.13-.66v-1.2l-.13-.14v-.13l-.27-.13v-.14l-.27-.13v-.13l-.26-.14h-.27l-.13-.13-.4-.13h-1.34a7.07 7.07 0 0 0-2.8 1.86l-1.2 1.2-.53.67a32.83 32.83 0 0 0-4.53 7.73 53.9 53.9 0 0 1-1.33 3.47l-.27.53a22.5 22.5 0 0 0-1.33 3.86v-.26l.66-.27m26 6.67-1.07.66-.93.53c-.33.1-.64.24-.94.4l-.4.27-.53.13c-.13 0-.27 0-.4.27-.17.06-.35.1-.53.13l-.4.27-.54.13-.4.14-.4.26h-.53l-.53.27c-.73.23-1.44.5-2.13.8-.75.23-1.5.4-2.27.53-1.49.37-3 .6-4.53.67-2.05.06-4.1.2-6.13.4h-1.34l-1.33.13h-5.06l-.27-.13h-.93a31.08 31.08 0 0 1-5.87-1.07l-1.86-.8-1.34-.8a4 4 0 0 1-1.2-1.33l-.4-1.33a8.49 8.49 0 0 1 0-2.53v-1.34l.14-.53v-1.33l.26-.67a1.6 1.6 0 0 0 0-.67c.27-.26.27-.53.4-.93l.4-1.07.67-1.46.67-1.6c1.06-2.1 2.3-4.12 3.73-6l2.53-2.53a33.8 33.8 0 0 1 6.13-4l3.47-1.2a37.47 37.47 0 0 1 10.66-.93c1.26.15 2.5.38 3.73.66l1.33.67 1.07.8.8 1.07.53 1.2v2.26c-.13.8-.4 1.47-.8 2.13-.26.8-.8 1.34-1.33 2.14-.4.8-1.07 1.33-1.86 2.13-1.67 1.5-3.5 2.8-5.47 3.87a58.28 58.28 0 0 1-12 5.33v.4l-.13.4v.66l-.13.27v2.27l.53 1.06.53.93.94.8 1.33.67c.27.27.8.4 1.33.53l1.47.27c1.28.14 2.58.14 3.86 0 2.36-.19 4.68-.63 6.94-1.33a43.56 43.56 0 0 0 9.86-4l.8 1.07h-.13Zm74.1 12.52a4 4 0 0 0-.8 0h-.66c-.44.12-.89.2-1.34.27h-.53l-.53.13c-.46.03-.9.12-1.34.27l-1.06.13-1.07.27c-1.17.2-2.32.48-3.46.8l-.54.13-.4.14-1.06.4-.94.4c-.46.18-.9.4-1.33.66l-.8.8-.53.94c-.16.42-.2.88-.14 1.33l.14.4.26.4s.14.26.4.26l.27.14h.27l.53.26a11.03 11.03 0 0 0 4.66-.27c1.18-.3 2.31-.8 3.34-1.46 1.3-.73 2.52-1.63 3.6-2.66a119.6 119.6 0 0 0 3.73-3.74h-.67m-22.66-24.25c1.6-.47 3.2-.91 4.8-1.34 1.5-.46 2.96-1 4.4-1.6 2.25-.8 4.48-1.69 6.66-2.66l3.2-1.07c7.68-3.3 14.93-7.5 21.6-12.53l2.66-2.93 1.47-3.06c.34-.99.52-2.03.53-3.07 0-1.55-.63-3.04-1.73-4.13l-1.34-1.2-1.6-.93-1.86-.67a16.54 16.54 0 0 0-7.06-.27h-.67l-.67.14c-.18.03-.36.08-.53.13l-.67.13-.53.14-.67.26h-.66l-1.34.54-.53.13-.67.26a38.64 38.64 0 0 0-9.33 5.2 45.5 45.5 0 0 0-9.86 9.73c-1.01 1.7-2.03 3.39-3.06 5.07a103 103 0 0 0-2.4 5.6 38.46 38.46 0 0 0-2 8.8v-.4l1.86-.4m55.58-12.94-6.8 17.33-.4 1.2-.26.4v.13h-.13v.54l-.14.13v.4h-.13l-.53 1.07-.27.8-.4.8-.53.66-.8 1.34a29.13 29.13 0 0 1-2.14 3.33c-.26 0-.4.26-.53.53l-.4.27-1.07 1.06-.8.54h-.13v.13h-.13v.13c2.23-.27 4.45-.58 6.66-.93 4.34-.8 8.59-2.05 12.66-3.73a76.81 76.81 0 0 0 6-2.4v1.33l-3.6 1.87a50.98 50.98 0 0 1-7.2 3.06c-2.4.85-4.8 1.74-7.2 2.67-2.55.74-5.13 1.4-7.72 2l-4 .8-.4.13-.27.27-.4.26-.26.14c-.2.2-.42.39-.67.53-.19.22-.41.4-.67.53l-.8.4-1.33 1.07-.66.4-.94.53-.8.54a34.5 34.5 0 0 1-2.66 1.46l-.8.54-.94.53c-.55.35-1.13.66-1.73.93l-.53.27-.53.13c-.13.1-.26.2-.4.27-.18.05-.36.1-.54.13l-.4.27-.4.13-1.06.4-.94.27c-.86.33-1.75.6-2.66.8l-.67.13h-.4c-.34.14-.7.23-1.06.27-.44.09-.89.13-1.34.13h-1.33c-1.22.02-2.44-.16-3.6-.53a5.07 5.07 0 0 1-1.6-1.07l-.53-.67-.4-.8a4.4 4.4 0 0 1 .13-2.13l.8-1.33 1.07-1.07 1.73-.93a21.5 21.5 0 0 1 3.73-1.73c1.64-.5 3.29-1 4.93-1.47l.4-.27c.68-.08 1.35-.2 2-.4.97-.27 1.95-.5 2.94-.66a17.6 17.6 0 0 0 3.73-.8h.66v-.4l.27-.4v-.13l.27-.14v-.26l.4-.8v-.27h.13c0-.27.13-.27.27-.4v-.27l.26-.26v-.4l.27-.4v-.27l.13-.27v-.4c.26-.42.48-.87.67-1.33l.13-.27v-.26l.14-.27v-.27l.13-.13.27-.53v-.27l.26-.53.14-.13v-.27l.13-.27a30.02 30.02 0 0 1-6 3.6 50.75 50.75 0 0 1-10.13 3.33 63.2 63.2 0 0 1-19.32.4 27.36 27.36 0 0 1-6.4-2.53 12 12 0 0 1-5.86-6.66c-.4-.94-.54-1.87-.8-2.94a4.9 4.9 0 0 1-1.07.14c-.66.15-1.33.24-2 .26l-.4.14h-.54l-.66.26h-.67c-.52.16-1.06.25-1.6.27h-4.26l1.33-3.2h1.2c.44.12.88.2 1.33.27h2v-.14h1.87l.26-.13h1.74l.13-.13h.67l.26-.14h.54v-2.4l.13-.26v-.27h.13v-.26c.19-1.58.64-3.11 1.34-4.54.38-1.09.82-2.16 1.33-3.2a29.66 29.66 0 0 1 2-3.33l1.2-1.6c1.2-1.86 2.66-3.6 4.26-5.33a66.1 66.1 0 0 1 11.33-8.93 76.92 76.92 0 0 1 30.66-10.66c2.8-.53 5.46-.8 8.26-.8h.53l.14-.13h2c1.87.03 3.75.2 5.6.53 1.5.32 2.97.77 4.4 1.33l1.46.94c.53.26.8.66 1.07 1.2.4.26.66.8.8 1.33l.13 1.46c0 .4 0 .8-.27 1.07l-.4 1.2-.66 1.07-.67 1.2a8 8 0 0 1-1.07 1.33c-.26 0-.4.27-.66.53l-.67.67a48.97 48.97 0 0 1-3.6 2.8l-.13.26h-.27l-.13.27-.27.13-.13.14h-.13l-.27.26a175.7 175.7 0 0 1-10.4 6.53l-4 2.14a121.92 121.92 0 0 1-12.4 5.86 686.4 686.4 0 0 0-6.79 2.8l-2.66 1.07-2.67.93-2.4.8-2.67.8c-1.6.4-3.2.85-4.8 1.33l-2.4.8v2.27l.27.53c0 .27.04.54.14.8 0 .67.26 1.33.4 1.73a20.3 20.3 0 0 0 2.66 5.07l1.47 1.33c.53.53 1.2.8 1.86 1.07 1.55.53 3.17.8 4.8.8h1.34l.4-.14a9.1 9.1 0 0 0 1.73-.13l.93-.13c.75-.2 1.5-.38 2.27-.54l.4-.13 1.73-.53a84.78 84.78 0 0 0 6.93-2.93l1.6-.8c1.07-.59 2.1-1.26 3.07-2h.13l.27-.27h.13l.13-.13h.14l.13-.14v-.13h.27l.13-.13 6.93-17.86 17.6-2.94Z" fill="#fff" fill-rule="nonzero"/>
  <path d="m1386.81 3070 1.34-1.08.8-.53c.6-.5 1.19-1.03 1.73-1.6l.53-.26.4-.54.4-.26.54-.54.4-.53c.26 0 .4-.27.66-.4l.8-.8.53-.53.14-.27.4-.27.26-.26.4-.54.67-.66.13-.27.8-.8c.45-.74.94-1.45 1.47-2.13l.13-.27.27-.26v-.27l.27-.27c.38-.63.7-1.3.93-2v-.26l.27-.14.13-.66v-1.2l-.53-.54a.66.66 0 0 0-.27-.26l-.13-.14h-.27l-.13-.13-.4-.13H1398l-1.2.53c-.6.36-1.14.8-1.6 1.33l-.53.67-.53.53-.54.67a28.52 28.52 0 0 0-3.73 6.4l-.8 1.33-.67 1.33-.26.94c-.16.45-.34.9-.54 1.33l-.13.4c-.56 1.24-1 2.54-1.33 3.86v-.26l.66-.27m26 6.67-1.07.66-.93.53c-.33.1-.64.24-.94.4l-.53.27-.4.13c-.27 0-.4 0-.53.27l-.4.13-.4.27-1.07.27-.4.26h-.4l-.53.27c-.77.22-1.53.49-2.27.8l-1.06.27-1.2.26c-1.49.37-3 .6-4.54.67-2 .06-4 .2-6 .4h-1.33l-1.33.13h-5.2l-.13-.13h-.93a31.18 31.18 0 0 1-5.87-1.07l-1.86-.8-1.47-.8-1.07-1.33-.53-1.46a8.24 8.24 0 0 1-.13-2.54v-.66l.13-.27v-.4l.13-.53v-.8c0-.45.04-.9.14-1.34l.13-.26v-.4l.4-.94.27-1.06c.98-2.06 2-4.1 3.06-6.13l2.13-2.94c.71-.92 1.51-1.77 2.4-2.53a33.7 33.7 0 0 1 6.13-4l3.6-1.2c3.5-.82 7.09-1.13 10.67-.93 1.25.16 2.5.38 3.73.67l1.33.66 1.07.8.8 1.07c.42.73.65 1.56.66 2.4v.4h-.26v.8a4 4 0 0 1-.67 2.13l-1.33 2.13-1.87 2.14a27.77 27.77 0 0 1-5.6 3.86 58.5 58.5 0 0 1-12 5.33v1.07l-.13.4v2.53l.54 1.07.53.93.93.8 1.2.67 1.34.53 1.6.27c1.24.13 2.49.13 3.73 0a31.7 31.7 0 0 0 7.06-1.34c3.39-.95 6.65-2.3 9.73-4l.93 1.07v.14Z" fill="#fff" fill-rule="nonzero"/>
  <path d="m1423.47 3079.45-.27.8v.54h.67l.13-.27.27-.13.13-.27c.1-.13.19-.26.27-.4v-.13l.13-.14.13-.26.27-.4.27-.67c.49-.68.94-1.39 1.33-2.13.88-1.9 1.81-3.76 2.8-5.6a69.76 69.76 0 0 0 3.6-5.06l1.33-1.6 1.07-1.6v-.14c.1-1.48.5-2.94 1.2-4.26.58-1.51 1.5-2.88 2.66-4a17.85 17.85 0 0 1 3.47-2.67l2-.8 2.13-.26h.4c.45 0 .9.05 1.33.13l.93.27.67.26.53.4.4.54v.13l.27.53v1.07l-.27.13v.4h-.26v.27h-.27l-.13.27-.27.13-.67.67h-.13l-.66.53-.67.4-1.07.8-2 1.33-.66.53-.4.27-.27.4c-.74.49-1.46 1.02-2.13 1.6a20 20 0 0 0-2.27 1.73v3.07c0 .4.14.93.4 1.33l.67 1.07.93.93c.27.4.67.67 1.07.8l1.33.67 1.33.26h4.14l.53-.13c.88-.22 1.77-.4 2.66-.53l.4 1.73h-.53l-.4.13c-.12.07-.26.11-.4.14h-.67v.13h-2a27.71 27.71 0 0 1-4.13-.4 14.12 14.12 0 0 1-6.53-3.73c-.8-.93-1.47-1.96-2-3.07h-.13l-.93.94a2.7 2.7 0 0 0-.4.53 8.9 8.9 0 0 1-.8.93 4.9 4.9 0 0 0-.4.53l-.54.54c-2.18 3.1-4.22 6.3-6.13 9.6v.26l-.26.13-.54 1.07-.13.13-.13.27-.54.53-.26.4-.4.14c0 .13 0 .26-.27.4h-.27l-.26.26c-.44.14-.88.23-1.34.27h-.26c-.8.12-1.6.17-2.4.13-.9.01-1.78-.03-2.67-.13h-1.06c-1-.29-1.98-.65-2.94-1.07l-.93-.8-.66-.8-.54-1.06v-2.53l.27-.54v-.26l.27-.67c0-.27 0-.53.26-.67v-1.06l.14-.4 8.53-19.2 16.26-2.66-13.2 29.05h-.13Z" fill="#fff" fill-rule="nonzero"/>
  <path d="m1484.51 3066.8.14-.4.26-.54.14-.53.26-.4.27-.54.13-.4c.12-.36.25-.71.4-1.06l.13-.54.14-.4v-.26c.12-.32.25-.63.4-.94v-.4l.26-.53v-2.66l.14-.27v-1.07c.05-.66.05-1.33 0-2l-1.2-2.4c-.13-.26-.27-.4-.53-.4l-.54-.4h-1.33c-.2.12-.37.25-.53.4-.27 0-.4.27-.54.54l-.4.66-.26.94-.4 1.2v5.46l.26.27v.13l.14.93.26.8.14.8.26.8.8 1.87c.25.7.56 1.36.94 2v-.13l.26-.54m-8.53-15.46-10.66 23.33-.27.66-.4.67v.4c0 .27-.13.4-.26.4v.53l-.14.4v1.47l.14.66.4.54.53.4.4.4.8.26c.47.16.97.24 1.46.27l1.74-.13c.53 0 1.2-.27 1.73-.54l.8-.26.8-.4c1.03-.74 2.06-1.5 3.07-2.27l.8-.67c.68-.6 1.3-1.27 1.86-2a27.37 27.37 0 0 0 3.07-4.13l.53-.66.4-.67.13-.27.27-.26.13-.27.27-.4c-.7-.83-1.33-1.72-1.87-2.66a21.49 21.49 0 0 1-2.66-5.74c-.19-1.1-.23-2.22-.14-3.33v-1.86c.14-1.13.6-2.2 1.34-3.07a9.84 9.84 0 0 1 2.13-2.27l1.47-.66c1.16-.37 2.37-.6 3.6-.67 1.22.02 2.44.24 3.6.67l1.46.8 1.33 1.06.94 1.34c.4.4.53.93.8 1.46.94 3.33.61 6.9-.94 10a37.69 37.69 0 0 1-1.86 3.6 88.99 88.99 0 0 1-2.54 4c.22.1.44.19.67.26l.4.27h.27l2 .8.8.27c.44.14.88.28 1.33.4h.66l.67.26.67.14h.8l.66.13h4.67l-.27 2h-2a2 2 0 0 1-.66.27h-.94l-.4-.14h-.53l-.27-.13h-.26l-.67-.13-.4-.14a11.5 11.5 0 0 1-2.13-.53 23.34 23.34 0 0 1-4.67-2.13l-.66-.27-.4-.27-.27-.13h-.13v.13l-.14.14h-.13v.13l-.27.27h-.26v.13a46 46 0 0 1-4.67 3.73l-.93.67a25.3 25.3 0 0 1-5.86 3.2 32.77 32.77 0 0 1-6.67 1.73 40.8 40.8 0 0 1-15.2-.4c-.66 0-1.33-.27-1.86-.53a5.33 5.33 0 0 1-2.27-2.14l-.4-1.33-.13-1.46v-.94l.13-.53.27-.53v-.67l.13-.67c.12-.55.3-1.08.54-1.6l8-17.86 16.52-2.66v.13Z" fill="#fff" fill-rule="nonzero"/>
  <path d="M1537.83 3053.73c-.14 0-.27 0-.4-.27l-.54-.26-.4-.14-.26-.26h-.27l-.4-.27h-.27l-.26-.13-.14-.14h-.53l-.27-.13a7.58 7.58 0 0 0-1.33-.13 4 4 0 0 0-1.33 0l-.53.26h-.54a2.7 2.7 0 0 0-.66.27l-.4.27c-.21.08-.4.22-.54.4l-.53.26-.13.27-.27.13v.27c-.27 0-.27 0-.4.27l-.27.26-.13.27h-.13l-.14.4-.26.13v.27l-.27.13-.13.27-.14.13c-.24.3-.46.6-.66.94l-.67 1.06-.67 1.33-2 3.6a69.34 69.34 0 0 1-2.26 4.67 51.44 51.44 0 0 0-2.53 7.2c-.12.88-.07 1.79.13 2.66 0 .27.27.53.4.67l.53.53.67.53.67.4c.62.06 1.24.1 1.86.14h1.87l.13-.14h.4c.25-.15.52-.29.8-.4h.27l.4-.26h.4c.21-.1.44-.2.66-.27v-.13c.27 0 .27-.14.4-.27h.4l.14-.13.26-.14h.14l.13-.13.27-.13h.26l.14-.27h.13l.13-.13-.26-1.87v-1.2l.13-.4.13-.26.14-.4v-.27l.26-.13v-.67l.27-.27v-.26l.13-.14 8.53-17.86h-.4m6.13 20.26-.4.67-.13.53-.13.4-.14.27c-.1.2-.14.44-.13.67v.4c-.02.44.02.9.13 1.33l.4.4.54.4c.13.26.4.26.66.4l.67.26.8.14h2.53c2.75-.5 5.43-1.3 8-2.4h.13l.27-.14h.27l.26-.26.27-.13h.27v-.27h.53l.4-.27c.17-.1.35-.2.53-.26h.13l.27-.27h.27v-.13l.26-.14.8.8-.8.54-.66.53c-1.46.93-3.03 1.7-4.67 2.26a34.2 34.2 0 0 1-7.73 2.14h-2.26l-.14.13h-.93l-.4.13h-1.33l-.54.14h-.93c-2 0-4-.14-6-.4l-.8-.27-1.33-.4c-.4-.2-.8-.43-1.2-.67a14.5 14.5 0 0 1-1.86-1.73l-.8.53c-.48.25-.97.48-1.47.67l-.8.27-.13.13-.8.4h-.54l-.66.27-.67.26-1.06.27-.27.13-.4.14h-2l-.4.13c-.8.15-1.6.24-2.4.27h-4.8l-2.13-.27a14 14 0 0 1-5.86-2.27l-1.34-1.33-.4-1.86a18.66 18.66 0 0 1 0-5.2l.14-1.07.13-.27v-.26l.4-.94.4-.8c0-.4.27-.8.53-1.2 1.56-2.6 3.3-5.1 5.2-7.46l.4-.53c.27 0 .4-.27.53-.4l.94-.93c.53-.67 1.33-1.2 1.86-1.6a36.34 36.34 0 0 1 6.67-3.87c2.62-.74 5.3-1.32 8-1.73a32.5 32.5 0 0 1 7.99.53c.32.1.63.24.93.4.32.12.63.26.94.4.5.33 1 .69 1.46 1.07l15.6-2.54-11.07 24v-.14Z" fill="#fff" fill-rule="nonzero"/>
  <path d="M1585.4 3031.6c1.06.28 2.08.64 3.07 1.07l1.34.8 1.06 1.07a7.1 7.1 0 0 1 1.34 2.4c.25.87.25 1.8 0 2.66l-.54 1.33-.8 1.2-1.06 1.07a9.2 9.2 0 0 1-6 2l-1.33-.13a44.2 44.2 0 0 1-2-.4 9.04 9.04 0 0 1-2.67-1.47 7.48 7.48 0 0 1-2.4-3.46 5.05 5.05 0 0 1 0-2.67c0-.53.27-.93.54-1.33l.66-1.2 1.07-1.07a10 10 0 0 1 6.13-2v-.13c.53 0 1.07 0 1.6.26m-10.26 42.92v.67l-.27.13v.27a2.8 2.8 0 0 0-.13.8l-.27.4v1.6l.53 1.06.54.4.53.27 1.33.4c.8.1 1.6.1 2.4 0a51.2 51.2 0 0 0 3.2-.67l.67-.26c.85-.34 1.7-.69 2.53-1.07l.53-.27c.37-.2.73-.42 1.07-.66.3-.14.62-.28.93-.4l.27-.13h.13c.23-.32.56-.55.93-.67h.27l.53-.27c.23-.23.5-.42.8-.53l.94.67a26.24 26.24 0 0 1-7.07 4c-1.59.5-3.19 1-4.8 1.46l-2.53.4-2.66.13c-3.48.2-6.97-.02-10.4-.66l-2-.4-1.47-.8a4.02 4.02 0 0 1-1.06-1.07l-.54-1.2-.13-1.33v-1.07l.13-.13v-.13l.14-.4v-1.87l.26-.13 9.33-20.4 16.27-2.66-10.93 24.52Z" fill="#fff" fill-rule="nonzero"/>
  <path d="m1613.67 3059.86.4-.4.26-.4c.32-.47.68-.92 1.07-1.33l.13-.13.13-.27v-.27l.27-.4.27-.53.13-.53v-1.34c.06-.44.06-.89 0-1.33l-.27-.27v-.53h-.13l-.13-.27a6.46 6.46 0 0 0-.54-.4l-.53-.4-.4-.13a4.04 4.04 0 0 0-.93 0l-.4.13c-.2.11-.37.25-.53.4l-.27.27v.27l-.27.26-.13.27v3.07c-.01.23.03.46.13.66v.4l.14.27.53 1.6c.24.61.46 1.24.67 1.86v-.13l.4-.27m-12 19.73h.13l.4-.4.27-.13.27-.27.13-.27.27-.13v-.13l.13-.27v-.27l.27-.13v-1.2l.26-.13v-1.2l-.13-.27v-.26l-.13-.67c0-.27 0-.4-.27-.67v-.26l-.13-.4-.27-.4v-.54c-.4-.69-.75-1.4-1.07-2.13l-.26.27h-.14l-.26.13v.13l-.14.14-.26.13v.13l-.54.27-.26.27h-.27v.13l-.27.13h-.13l-.27.27-.13.27h-.27v.13l-.26.13-.14.14h-.26a3 3 0 0 0-.54.53l-.53.27-.4.4h-.26l-.54.4-.4.26-.26.27-.8.4-.4.4h-.14v.13l-.26.14-.14.13 8.4 4v.13m28.52-3.06-.4.4-.26.13-.14.13-.26.13-.14.14h-.26l-.14.26-2.26 1.07a84.7 84.7 0 0 1-4.4 2l-1.07.4-1.2.27-.66.13-.67.27c-.94.08-1.87.22-2.8.4a24.8 24.8 0 0 1-3.73.26h-1.73a4.02 4.02 0 0 1-1.07-.26h-1.47a2.5 2.5 0 0 0-.93-.27h-.93l-1.07-.13c-.97-.27-1.94-.49-2.93-.67h-.53l-.27.13h-.4l-.13.14c-.26.07-.53.12-.8.13l-.54.13h-.4l-.26.14h-1.87v.13h-.13l-.27.13h-.93v.14h-.53l-.27.13h-.53v.13h-.4c-.5.03-1-.06-1.47-.26l-.53-.27a.67.67 0 0 1-.4-.4l-.4-.4a3.2 3.2 0 0 1-.67-1.33v-.67h-.13v-.27h-.14v-.8l-.13-.26v-.8h.13v-.93l.27-.27.27-.13.4-.27.4-.4.13-.27.53-.4.67-.4.8-.53h.13l.14-.27h.26v-.13h.27l.27-.13.13-.14.27-.13.26-.27.27-.13.4-.4.53-.27.67-.66.4-.14.26-.26 1.07-.8.27-.14.13-.26.53-.54c.15-.06.29-.15.4-.26l.27-.27h.13l.4-.27.14-.26h.26v-.13l-.13-.67a6.9 6.9 0 0 1-.4-1.07v-.4l-.13-.4v-.53l-.14-.4v-4.53l.67-2.27 1.2-2.13a14.26 14.26 0 0 1 3.47-3.47l2.4-1.2 2.66-.66c1.41-.2 2.84-.25 4.26-.14l.94.14c.4 0 .66.26.93.4l.67.4.53.66.4.67c.26.54.4 1.13.4 1.73v.4l-.13.4v.54l-.27.53-.27.93c-.25.46-.51.9-.8 1.34l-.8 1.06c-.29.33-.6.64-.93.93-.45.61-.94 1.19-1.46 1.74v.26l.26.4.27.8.26.4.27.27.13.53.27.27v.53l.27.4.13.4.27.4.13.8.27.67v2.26a7.45 7.45 0 0 1-.67 3.34 11.05 11.05 0 0 1-2.4 2.66 16.4 16.4 0 0 1-4.13 2.4 24.4 24.4 0 0 1-5.6 1.87l.67.26.67.14h.66c.37.1.73.23 1.07.4h.53l.67.13h5.46l1.07-.13 1.33-.14c.82-.1 1.62-.28 2.4-.53.75-.24 1.5-.46 2.27-.67l1.6-.66a129 129 0 0 0 4.93-2.27l1.06-.53.94-.67.93.94h.13Z" fill="#fff" fill-rule="nonzero"/>
  <defs>
    <linearGradient id="b" x1="0" y1="0" x2="1" y2="0" gradientUnits="userSpaceOnUse" gradientTransform="rotate(64.59 331.36 267.4) scale(3975.27)">
      <stop offset="0" stop-color="#2c3e8e"/>
      <stop offset=".15" stop-color="#326880"/>
      <stop offset=".3" stop-color="#377d69"/>
      <stop offset=".6" stop-color="#8c8c26"/>
      <stop offset="1" stop-color="#806e12"/>
    </linearGradient>
    <linearGradient id="c" x1="0" y1="0" x2="1" y2="0" gradientUnits="userSpaceOnUse" gradientTransform="rotate(90 3626 5960.03) scale(960.349)">
      <stop offset="0" stop-opacity=".5"/>
      <stop offset=".45" stop-opacity=".11"/>
      <stop offset="1" stop-opacity="0"/>
    </linearGradient>
    <linearGradient id="d" x1="0" y1="0" x2="1" y2="0" gradientUnits="userSpaceOnUse" gradientTransform="matrix(0 830.147 -1390.3 0 10649.7 2291.2)">
      <stop offset="0" stop-color="#fff4b5" stop-opacity=".23"/>
      <stop offset=".46" stop-color="#f4f0c9" stop-opacity=".17"/>
      <stop offset="1" stop-color="#d7e5fc" stop-opacity=".03"/>
    </linearGradient>
    <linearGradient id="e" x1="0" y1="0" x2="1" y2="0" gradientUnits="userSpaceOnUse" gradientTransform="matrix(-1138.23 -672.056 590.84 -1096.07 9755.03 2523.86)">
      <stop offset="0" stop-opacity=".62"/>
      <stop offset=".55" stop-opacity=".18"/>
      <stop offset="1" stop-opacity="0"/>
    </linearGradient>
    <linearGradient id="f" x1="0" y1="0" x2="1" y2="0" gradientUnits="userSpaceOnUse" gradientTransform="rotate(-90 4.48 113.63) scale(502.596)">
      <stop offset="0" stop-color="#1f2956"/>
      <stop offset=".3" stop-color="#007856"/>
      <stop offset=".6" stop-color="#898915"/>
      <stop offset="1" stop-color="#c4ad3b"/>
    </linearGradient>
    <linearGradient id="g" x1="0" y1="0" x2="1" y2="0" gradientUnits="userSpaceOnUse" gradientTransform="rotate(90 -13.57 -65.88) scale(504.159)">
      <stop offset="0" stop-color="#10162f"/>
      <stop offset=".1" stop-color="#1b5d7a"/>
      <stop offset=".3" stop-color="#106d53"/>
      <stop offset=".6" stop-color="#6b6b22"/>
      <stop offset="1" stop-color="#746418"/>
    </linearGradient>
    <linearGradient id="h" x1="0" y1="0" x2="1" y2="0" gradientUnits="userSpaceOnUse" gradientTransform="rotate(68.05 33.4 -100.22) scale(556.793)">
      <stop offset="0" stop-color="#a9b3de"/>
      <stop offset=".52" stop-color="#d7cd97"/>
      <stop offset="1" stop-color="#e8d67d"/>
    </linearGradient>
  </defs>
</svg>
