<svg xmlns="http://www.w3.org/2000/svg" xml:space="preserve" style="fill-rule:evenodd;clip-rule:evenodd;stroke-linejoin:round;stroke-miterlimit:2" viewBox="0 0 335 125">
  <path d="M4.64 1.33h5.87L6.91 18.7h9.06l-.9 4.28H.14l4.5-21.66ZM21.1 6.82h5.64L23.4 23h-5.65L21.1 6.82ZM22.51.08h5.65l-.87 4.1h-5.65l.87-4.1ZM38.38 23h-6.36L29.38 6.81H35l1.12 11.52h.06l5.68-11.52h6.02L38.38 23ZM54.83 6.82l-.62 3.32h.07c.9-1.9 2.7-3.7 5-3.7.74 0 1.6.1 2.35.41l-1.27 4.94c-.71-.56-1.52-.69-2.58-.69-2.36 0-3.75 2.05-4.16 4.44L52.04 23h-5.59l2.52-11.95c.28-1.4.52-2.76.68-4.22h5.18Zm20.15 15.64c-1.96.6-4.04.9-5.65.9-5.4 0-8.32-3.32-8.32-7.38 0-3.76 2.48-9.53 9.68-9.53 4.26 0 7.45 2.14 7.45 7.04 0 .66-.18 2.08-.4 3.05H66.3c.06 1.73.93 3.1 4.34 3.1 1.5 0 3.51-.37 5.06-1.12l-.71 3.94Zm-1.5-9.09c0-1.74-.67-3.2-2.72-3.2a4.13 4.13 0 0 0-4.13 3.2h6.86Zm-1.23-13h5.8v.68l-5.12 3.78h-3.66v-.37l2.98-4.1Zm19.02 8.87c.22-.96.28-1.77.35-2.42h5.12L96.3 9.4h.06a7.42 7.42 0 0 1 5.81-2.95c3.97 0 6.02 3.04 6.02 6.67 0 5.3-2.67 10.25-8.5 10.25-2.46 0-4.04-1.06-5.22-3.08l-2.05 9.22h-5.65l4.5-20.27Zm6.93 9.84c2.63 0 4.22-2.51 4.22-5.03 0-1.98-.9-3.32-2.67-3.32-2.64 0-4.22 2.92-4.22 5.06 0 1.65.8 3.3 2.67 3.3Zm22.38 1.65-.07-.07v.07c-1.18 1.86-3.26 2.63-5.43 2.63-3.47 0-5.4-1.55-5.4-4.68 0-3.98 3.97-5.93 8.9-5.93 1.13 0 2.24.1 3.02.16.06-.22.06-.44.06-.66 0-1.15-1.15-2.08-2.98-2.08-2.02 0-3.38.31-5.24 1.28l.55-4.07a17.5 17.5 0 0 1 5.93-.93c3.85 0 7.02 1.52 7.02 5.5 0 2.54-1.43 6.17-2.05 11.04h-4.56l.24-2.26Zm-3.73-1.09c2.4 0 3.82-1.64 4.22-3.82-.46-.1-1.14-.1-1.49-.1-2.67-.08-4.62.88-4.62 2.3 0 .75.71 1.62 1.9 1.62Zm19.9-12.82-.62 3.32h.06c.9-1.9 2.7-3.7 5-3.7.74 0 1.61.1 2.35.41l-1.27 4.94c-.71-.56-1.52-.69-2.57-.69-2.36 0-3.76 2.05-4.16 4.44L133.95 23h-5.58l2.51-11.95c.28-1.4.53-2.76.68-4.22h5.19ZM.44 45.04H334.6v79.04H.44z" style="fill:#004990;fill-rule:nonzero"/>
  <path d="m135.08 84.7.01-1.12H.44v1.98H135.1l-.01-.85Zm64.8-1.12.02 1.13c0 .28-.01.57-.03.85H334.6v-1.98H199.87Z" style="fill:#fff;fill-rule:nonzero"/>
  <path d="M199.9 84.66a32.4 32.4 0 1 1-64.82 0 32.4 32.4 0 1 1 64.82 0Z" style="fill:#ed1b2d;fill-rule:nonzero"/>
  <path d="m157.22 88.88 2.3-2.3 25.67-1.15 1.15-1.15h-25.3l-13.8-16.1 46 15.33-15.33 15.35h-30.67l3.08-3.08 25.67-1.14 1.13-1.16h-24.51l2.3-2.3 25.68-1.15 1.15-1.15h-24.52ZM17.6 59.38h3.5c3 0 5.73.87 5.73 4.16 0 3.22-2.35 4.38-5.3 4.38h-1.17v5.22H17.6V59.38Zm2.76 6.37h.96c1.39 0 2.63-.45 2.63-2.04 0-1.6-1.21-2.16-2.63-2.16h-.96v4.2Zm19.46-6.61c4.32 0 6.74 2.92 6.74 7.08s-2.38 7.16-6.74 7.16c-4.43 0-6.75-2.94-6.75-7.16 0-4.22 2.35-7.08 6.75-7.08Zm0 12.07c2.8 0 3.86-2.5 3.86-4.99 0-2.42-1.12-4.9-3.86-4.9-2.75 0-3.88 2.48-3.88 4.9 0 2.49 1.05 5 3.88 5Zm21.6-9.31a7.2 7.2 0 0 0-2.81-.58c-.94 0-2.17.4-2.17 1.9 0 2.39 6.03 1.38 6.03 6 0 3.02-2.38 4.16-5.16 4.16-1.5 0-2.18-.2-3.54-.53l.27-2.49c.95.52 2.02.86 3.1.86 1.06 0 2.45-.54 2.45-1.78 0-2.63-6.03-1.53-6.03-6.1 0-3.08 2.38-4.2 4.8-4.2 1.2 0 2.3.16 3.3.5l-.24 2.27Zm11-.35h-3.94v-2.17h10.65v2.17h-3.95v11.6h-2.76v-11.6Zm13.39-2.17h8.14v2.17h-5.38v3.38h4.9v2.18h-4.9v3.87H94v2.16h-8.2V59.38Zm23.3 2.52a7.18 7.18 0 0 0-2.79-.58c-.96 0-2.18.4-2.18 1.9 0 2.39 6.04 1.38 6.04 6 0 3.02-2.4 4.16-5.18 4.16-1.5 0-2.16-.2-3.52-.53l.26-2.49c.94.52 2.03.86 3.1.86 1.05 0 2.45-.54 2.45-1.78 0-2.63-6.03-1.53-6.03-6.1 0-3.08 2.4-4.2 4.81-4.2 1.2 0 2.3.16 3.3.5l-.26 2.27Zm-81.29 47.66c-.99.23-2.07.44-3.12.44-4.45 0-7.54-2.23-7.54-6.9 0-4.7 2.87-7.34 7.54-7.34.91 0 2.12.17 3.11.57l-.19 2.32c-1.04-.58-2-.72-2.98-.72-2.83 0-4.61 2.17-4.61 4.99 0 2.8 1.73 4.9 4.67 4.9 1.08 0 2.38-.23 3.03-.56l.1 2.3ZM38.73 96h3.14l5.4 13.75h-3.06l-1.18-3.15h-5.58l-1.2 3.15H33.4L38.74 96Zm1.54 2.75h-.03l-2 5.7h4l-1.97-5.7ZM53.84 96h3.4l5.23 10.29h.04v-10.3h2.66v13.76h-3.39l-5.25-10.28h-.05v10.28h-2.64V96Zm23.26 0h3.11l5.4 13.75h-3.06l-1.16-3.15H75.8l-1.2 3.15h-2.86L77.1 96Zm1.53 2.75h-.05l-2 5.7h4.04l-2-5.7ZM92.33 96h3.78c4.2 0 7.93 1.41 7.93 6.87 0 5.47-3.72 6.88-7.93 6.88h-3.78V96Zm2.75 11.59h1.55c2.3 0 4.54-1.72 4.54-4.72s-2.24-4.71-4.54-4.71h-1.54v9.43ZM115.44 96h3.13l5.4 13.75h-3.07l-1.17-3.15h-5.58l-1.2 3.15h-2.87L115.44 96Zm1.52 2.75h-.03l-2 5.7h4.03l-2-5.7Zm105.57-25.8c-1.01.24-2.1.43-3.14.43-4.45 0-7.55-2.22-7.55-6.88 0-4.71 2.87-7.36 7.55-7.36.92 0 2.11.19 3.1.57l-.18 2.33a5.72 5.72 0 0 0-2.97-.72c-2.85 0-4.63 2.16-4.63 4.98 0 2.8 1.74 4.92 4.68 4.92a7.7 7.7 0 0 0 3.03-.58l.1 2.31Zm10.9-13.57h3.12l5.4 13.76h-3.04L237.72 70h-5.59l-1.2 3.15h-2.86l5.36-13.76Zm1.52 2.76h-.02l-2 5.68h4.01l-1.99-5.68Zm13.58-2.76h3.38l5.26 10.3h.03v-10.3h2.64v13.76h-3.36l-5.27-10.3h-.04v10.3h-2.64V59.38Zm23.27 0h3.11l5.4 13.76h-3.06l-1.2-3.15h-5.57l-1.2 3.15h-2.85l5.36-13.76Zm1.52 2.76h-.05l-2 5.68h4.02l-1.97-5.68Zm13.7-2.76h3.76c4.21 0 7.95 1.42 7.95 6.88 0 5.47-3.74 6.88-7.95 6.88h-3.76V59.38Zm2.76 11.6h1.54a4.5 4.5 0 0 0 4.52-4.72c0-3-2.22-4.7-4.52-4.7h-1.54v9.42Zm20.35-11.6h3.12l5.4 13.76h-3.05L314.42 70h-5.58l-1.2 3.15h-2.87l5.36-13.76Zm1.53 2.76h-.04l-2 5.68h4.03l-2-5.68ZM212.28 96h3.48c3 0 5.74.86 5.74 4.15 0 3.21-2.34 4.39-5.3 4.39h-1.16v5.2h-2.76V96Zm2.76 6.36h.96c1.37 0 2.62-.45 2.62-2.05 0-1.6-1.2-2.15-2.62-2.15h-.96v4.2Zm19.43-6.6c4.32 0 6.75 2.91 6.75 7.07 0 4.17-2.37 7.17-6.75 7.17-4.41 0-6.73-2.95-6.73-7.17s2.37-7.07 6.73-7.07Zm0 12.06c2.83 0 3.87-2.49 3.87-4.99 0-2.42-1.12-4.9-3.87-4.9-2.74 0-3.86 2.48-3.86 4.9 0 2.5 1.04 5 3.86 5Zm21.6-9.31a7.03 7.03 0 0 0-2.8-.58c-.94 0-2.16.4-2.16 1.92 0 2.37 6.03 1.37 6.03 5.98 0 3.02-2.38 4.17-5.16 4.17-1.5 0-2.17-.2-3.52-.54l.24-2.48a6.7 6.7 0 0 0 3.12.84c1.05 0 2.44-.53 2.44-1.77 0-2.62-6.03-1.53-6.03-6.09 0-3.09 2.38-4.2 4.81-4.2 1.18 0 2.3.15 3.3.5l-.27 2.25Zm11.03-.35h-3.95V96h10.65v2.16h-3.94v11.59h-2.75V98.16Z" style="fill:#fff;fill-rule:nonzero"/>
</svg>
