<?xml version="1.0" encoding="UTF-8" standalone="no"?>
<!DOCTYPE svg PUBLIC "-//W3C//DTD SVG 1.1//EN" "http://www.w3.org/Graphics/SVG/1.1/DTD/svg11.dtd">
<svg viewBox="0 40 2550 3260" xmlns="http://www.w3.org/2000/svg" xml:space="preserve" fill-rule="evenodd" clip-rule="evenodd" stroke-linejoin="round" stroke-miterlimit="2">
  <g transform="translate(-5675.47)">
    <path d="M5675.47 0h2550v3300h-2550z"/>
    <clipPath id="a">
      <path d="M5675.47 0h2550v3300h-2550z"/>
    </clipPath>
    <g clip-path="url(#a)">
      <path fill="url(#b)" d="M-17.51-37.21h2588.8v3366.39H-17.51z" transform="translate(5675.47)"/>
      <path fill="url(#c)" d="M-17.51-37.21h2588.8v3366.39H-17.51z" transform="translate(5675.47)"/>
      <path fill="none" d="M5657.96-37.21h2588.8v3366.39h-2588.8z"/>
      <path fill="url(#d)" d="M6309.38 2217.25h234.09v1112.83h-234.09z" transform="matrix(1.00086 0 0 .91448 -24.44 284.8)"/>
      <path d="m423.73 1910.68 5.26-145.54 1037.87 228.18L1724.47 2184l-414.41 117.11-886.33-390.43Z" fill="url(#e)" transform="translate(5214.24 239.12)"/>
      <path d="m6540.7 2421.85 4.38 716.17 410.37.23-2.07-863.8-412.68 147.4Z" fill="url(#f)" transform="matrix(1 0 0 1.02669 -17.04 -49.74)"/>
      <path d="M0-48.17a64.04 64.04 0 0 0-11.22-21.28 62.5 62.5 0 0 0-18.81-15.56c-7.64-4.18-16.61-7.23-26.9-8.99a198.6 198.6 0 0 0-11.86-1.67c-3.67-.4-7.01-.65-10.02-.77a98.66 98.66 0 0 0-8.05-.02c-2.34.1-4.33.29-5.96.54l-70.24 28.61a53.6 53.6 0 0 1 5.23-.6c2.05-.13 4.4-.2 7.07-.18 2.65.03 5.6.14 8.83.38 3.22.23 6.73.57 10.51 1.06 9.15 1.18 17.16 3.46 24 6.72a53.53 53.53 0 0 1 16.95 12.4 50.16 50.16 0 0 1 10.18 17.4 66.84 66.84 0 0 1 3.44 21.94 86.14 86.14 0 0 1-.26 6.61 74.75 74.75 0 0 1-.77 6.23 64.7 64.7 0 0 1-1.9 8.09 55.75 55.75 0 0 1-2.88 7.32 48.56 48.56 0 0 1-4.73 7.82A45.25 45.25 0 0 1-99.86 39.3a52.12 52.12 0 0 1-7.39 3.83 60.77 60.77 0 0 1-8.4 2.83 73.51 73.51 0 0 1-13.68 2.2 102.32 102.32 0 0 1-4.44.22l74.2-1.92a98.7 98.7 0 0 0 9.78-.75c3.7-.5 7.23-1.21 10.56-2.14a63.82 63.82 0 0 0 9.38-3.42 56.18 56.18 0 0 0 8.22-4.61 52.42 52.42 0 0 0 16.6-18.29A60.28 60.28 0 0 0-.9 8.1a70 70 0 0 0 2.63-9.27 82.27 82.27 0 0 0 1.41-8.67 98.58 98.58 0 0 0 .56-7.73c.05-1.33.07-2.68.07-4.05 0-9.7-1.27-18.59-3.77-26.55" fill="url(#g)" fill-rule="nonzero" transform="translate(7323.72 1205.92) scale(4.16667)"/>
      <path d="M0-48.17a64.04 64.04 0 0 0-11.22-21.28 62.5 62.5 0 0 0-18.81-15.56c-7.64-4.18-16.61-7.23-26.9-8.99a198.6 198.6 0 0 0-11.86-1.67c-3.67-.4-7.01-.65-10.02-.77a98.66 98.66 0 0 0-8.05-.02c-2.34.1-4.33.29-5.96.54l-70.24 28.61a53.6 53.6 0 0 1 5.23-.6c2.05-.13 4.4-.2 7.07-.18 2.65.03 5.6.14 8.83.38 3.22.23 6.73.57 10.51 1.06 9.15 1.18 17.16 3.46 24 6.72a53.53 53.53 0 0 1 16.95 12.4 50.16 50.16 0 0 1 10.18 17.4 66.84 66.84 0 0 1 3.44 21.94 86.14 86.14 0 0 1-.26 6.61 74.75 74.75 0 0 1-.77 6.23 64.7 64.7 0 0 1-1.9 8.09 55.75 55.75 0 0 1-2.88 7.32 48.56 48.56 0 0 1-4.73 7.82A45.25 45.25 0 0 1-99.86 39.3a52.12 52.12 0 0 1-7.39 3.83 60.77 60.77 0 0 1-8.4 2.83 73.51 73.51 0 0 1-13.68 2.2 102.32 102.32 0 0 1-4.44.22l74.2-1.92a98.7 98.7 0 0 0 9.78-.75c3.7-.5 7.23-1.21 10.56-2.14a63.82 63.82 0 0 0 9.38-3.42 56.18 56.18 0 0 0 8.22-4.61 52.42 52.42 0 0 0 16.6-18.29A60.28 60.28 0 0 0-.9 8.1a70 70 0 0 0 2.63-9.27 82.27 82.27 0 0 0 1.41-8.67 98.58 98.58 0 0 0 .56-7.73c.05-1.33.07-2.68.07-4.05 0-9.7-1.27-18.59-3.77-26.55" fill="url(#h)" fill-rule="nonzero" transform="translate(7323.72 1205.92) scale(4.16667)"/>
      <path d="M7323.72 1005.2c-10.46-33.39-26.11-63.1-46.77-88.67-20.9-25.88-47.06-47.67-78.36-64.8-31.85-17.45-69.21-30.16-112.05-37.47a827.5 827.5 0 0 0-49.43-6.97 618.02 618.02 0 0 0-41.77-3.2c-12.61-.5-23.8-.5-33.53-.1a225.7 225.7 0 0 0-24.84 2.28l-292.65 119.2a210.3 210.3 0 0 1 21.76-2.47c8.54-.57 18.36-.87 29.46-.77 11.04.1 23.32.58 36.83 1.54a782.1 782.1 0 0 1 43.77 4.45c38.12 4.9 71.48 14.42 100.03 28 28.14 13.37 51.72 30.75 70.61 51.67 18.71 20.71 32.91 45 42.41 72.45 9.45 27.33 14.3 57.92 14.3 91.46a358.9 358.9 0 0 1-1.07 27.56 311.47 311.47 0 0 1-3.19 25.94 269.62 269.62 0 0 1-3.48 17.25 250 250 0 0 1-4.48 16.45 216.53 216.53 0 0 1-11.96 30.5 202.33 202.33 0 0 1-9.15 16.9 188.55 188.55 0 0 1-35.96 43.4 195.83 195.83 0 0 1-26.56 19.9 216.29 216.29 0 0 1-30.78 15.96 253.2 253.2 0 0 1-35.01 11.8 306.31 306.31 0 0 1-39.27 7.41 338.22 338.22 0 0 1-17.74 1.75 426.34 426.34 0 0 1-18.5.91l309.16-7.98a411.25 411.25 0 0 0 20.84-1.06 385.08 385.08 0 0 0 19.93-2.09 319.24 319.24 0 0 0 44.01-8.92 266.5 266.5 0 0 0 39.07-14.21 234.07 234.07 0 0 0 34.23-19.22 218.43 218.43 0 0 0 57.5-57.33 234.45 234.45 0 0 0 11.67-18.87c3.62-6.53 6.99-13.3 10.09-20.32a272.56 272.56 0 0 0 7.13-17.86c2.19-6.1 4.2-12.39 6.03-18.83a315.65 315.65 0 0 0 4.93-19.8 342.8 342.8 0 0 0 3.83-20.75 378.33 378.33 0 0 0 3.5-31.25 466.78 466.78 0 0 0 1.18-33.2c0-40.45-5.32-77.46-15.72-110.65" fill="none"/>
      <path d="M0-31.88c11.11.13 20.93-1.45 29.37-4.56a54.78 54.78 0 0 0 20.91-13.47c5.56-5.8 9.83-12.96 12.7-21.35 2.84-8.33 4.33-17.93 4.33-28.74 0-9.71-1.28-18.6-3.77-26.56a64.05 64.05 0 0 0-11.23-21.28 62.48 62.48 0 0 0-18.8-15.55c-7.65-4.19-16.61-7.24-26.9-9-4.26-.72-8.22-1.27-11.86-1.66-3.67-.4-7.01-.65-10.02-.77a98.68 98.68 0 0 0-8.05-.02c-2.35.1-4.34.29-5.96.54v139.27a60.1 60.1 0 0 0 6.1 1.41c2.14.39 4.41.7 6.83.94 2.4.25 4.96.43 7.69.56 2.71.12 5.59.2 8.66.24m103.2-160.57a130.76 130.76 0 0 1 12.57 20.08 153.65 153.65 0 0 1 9.45 23.14c2.58 8.12 4.6 16.69 5.98 25.6 1.37 8.87 2.1 18.1 2.1 27.62 0 9.5-.56 18.62-1.64 27.27a174.54 174.54 0 0 1-4.85 24.7 137.34 137.34 0 0 1-8.03 21.93 109.51 109.51 0 0 1-11.25 18.9 111.74 111.74 0 0 1-19.16 19.85 121.02 121.02 0 0 1-24.05 15.03 152.97 152.97 0 0 1-29.16 10.28 212.08 212.08 0 0 1-34.6 5.4 211.94 211.94 0 0 1-15.97.72 143.2 143.2 0 0 1-13.87-.52v168.7l-99.15 25.57V-273.7c8.47.55 17.64 1.4 27.55 2.6a664.8 664.8 0 0 1 31.22 4.62 810.93 810.93 0 0 1 34.53 6.74 987.89 987.89 0 0 1 37.34 8.88 292.13 292.13 0 0 1 34.81 11.17 194.05 194.05 0 0 1 27.6 13.42 143.7 143.7 0 0 1 21.73 15.7 123.64 123.64 0 0 1 16.85 18.12" fill="url(#i)" fill-rule="nonzero" transform="translate(7059.15 1532.51) scale(4.16667)"/>
      <path d="M0-31.88c11.11.13 20.93-1.45 29.37-4.56a54.78 54.78 0 0 0 20.91-13.47c5.56-5.8 9.83-12.96 12.7-21.35 2.84-8.33 4.33-17.93 4.33-28.74 0-9.71-1.28-18.6-3.77-26.56a64.05 64.05 0 0 0-11.23-21.28 62.48 62.48 0 0 0-18.8-15.55c-7.65-4.19-16.61-7.24-26.9-9-4.26-.72-8.22-1.27-11.86-1.66-3.67-.4-7.01-.65-10.02-.77a98.68 98.68 0 0 0-8.05-.02c-2.35.1-4.34.29-5.96.54v139.27a60.1 60.1 0 0 0 6.1 1.41c2.14.39 4.41.7 6.83.94 2.4.25 4.96.43 7.69.56 2.71.12 5.59.2 8.66.24m103.2-160.57a130.76 130.76 0 0 1 12.57 20.08 153.65 153.65 0 0 1 9.45 23.14c2.58 8.12 4.6 16.69 5.98 25.6 1.37 8.87 2.1 18.1 2.1 27.62 0 9.5-.56 18.62-1.64 27.27a174.54 174.54 0 0 1-4.85 24.7 137.34 137.34 0 0 1-8.03 21.93 109.51 109.51 0 0 1-11.25 18.9 111.74 111.74 0 0 1-19.16 19.85 121.02 121.02 0 0 1-24.05 15.03 152.97 152.97 0 0 1-29.16 10.28 212.08 212.08 0 0 1-34.6 5.4 211.94 211.94 0 0 1-15.97.72 143.2 143.2 0 0 1-13.87-.52v168.7l-99.15 25.57V-273.7c8.47.55 17.64 1.4 27.55 2.6a664.8 664.8 0 0 1 31.22 4.62 810.93 810.93 0 0 1 34.53 6.74 987.89 987.89 0 0 1 37.34 8.88 292.13 292.13 0 0 1 34.81 11.17 194.05 194.05 0 0 1 27.6 13.42 143.7 143.7 0 0 1 21.73 15.7 123.64 123.64 0 0 1 16.85 18.12" fill="url(#j)" fill-rule="nonzero" transform="translate(7059.15 1532.51) scale(4.16667)"/>
      <path d="M7059.15 1399.66c46.3.55 87.2-6.03 122.37-18.99 34.49-12.7 63.66-31.61 87.13-56.12 23.18-24.19 40.95-53.99 52.9-88.94 11.87-34.71 18.07-74.74 18.07-119.78 0-40.45-5.34-77.46-15.73-110.64-10.46-33.38-26.11-63.1-46.77-88.67-20.9-25.88-47.06-47.67-78.36-64.8-31.85-17.44-69.21-30.16-112.05-37.46a829.49 829.49 0 0 0-49.43-6.97 623.6 623.6 0 0 0-41.76-3.2c-12.62-.51-23.81-.5-33.54-.1-9.78.41-18.07 1.21-24.85 2.27v580.3a256.3 256.3 0 0 0 25.43 5.87c8.93 1.6 18.39 2.9 28.47 3.92a594.66 594.66 0 0 0 32.04 2.31c11.3.53 23.29.85 36.08 1m430-669.03c19.36 25.3 36.93 53.38 52.38 83.7a640.3 640.3 0 0 1 39.37 96.38 708.27 708.27 0 0 1 24.9 106.64 755.7 755.7 0 0 1 8.75 115.1c0 39.63-2.3 77.59-6.82 113.65-4.53 36.17-11.29 70.54-20.2 102.88-8.98 32.52-20.15 63.08-33.47 91.4-13.43 28.55-29.07 54.9-46.88 78.79a465.6 465.6 0 0 1-79.82 82.65c-30.23 24.41-63.7 45.26-100.19 62.66-37.28 17.78-77.85 32.03-121.52 42.83-44.75 11.08-92.89 18.56-144.2 22.52-11.6.9-23 1.6-34.08 2.1-11.15.5-22 .8-32.45.88-10.51.09-20.63-.05-30.27-.4a478.5 478.5 0 0 1-27.52-1.76v702.88l-413.12 106.57V392.07a2074.7 2074.7 0 0 1 114.81 10.88 2689.9 2689.9 0 0 1 130.1 19.23 3378.88 3378.88 0 0 1 143.85 28.06 4116.2 4116.2 0 0 1 155.6 37.03c53.37 13.77 101.55 29.28 145.05 46.55 42.47 16.86 80.67 35.48 115 55.88 33.66 20 63.73 41.81 90.54 65.46a515.18 515.18 0 0 1 70.2 75.47" fill="none"/>
      <path d="M-226.17 425.04h77.51L134.7 127.6l-5.29-75.81-355.58 373.26Z" fill="url(#k)" fill-rule="nonzero" transform="scale(-4.16666 4.16666) rotate(-43.61 -665.28 2191.52)"/>
      <path d="M-226.17 425.04h77.51L134.7 127.6l-5.29-75.81-355.58 373.26Z" fill="url(#l)" fill-rule="nonzero" transform="scale(-4.16666 4.16666) rotate(-43.61 -665.28 2191.52)"/>
      <path d="m6524.02 2540.1-233.84-222.75V605.64l233.84-213.56V2540.1Z" fill="none"/>
    </g>
  </g>
  <path d="M928.15 3072.52a22.92 22.92 0 0 1-7.34-6.66 15.06 15.06 0 0 1-2.26-5.73c-.17-2.82.05-5.64.67-8.4a19.73 19.73 0 0 1 6.13-10l5.46-4a93.6 93.6 0 0 1 27.72-8.92l1.34-.14 1.33-.26 1.33-.14c1.34-.14 2.67-.31 4-.53 4.12-.47 8.26-.64 12.4-.53h2.13c.57.1 1.15.15 1.73.13h1.74c.44.07.88.12 1.33.13h.93c.3.09.62.13.93.14h.14l.13.26h.13l.27.14v.26h.13v.8l-.13.27h-.53v.27l-.27.13v.13l-.27.14-.4.4h-.13l-.13.13-.27.13-.67.67-.13.26h-.27v.27h-.13v.27l-.53.26-.13.27-.27.27-.27.13-.13.13c-1.8 2.16-3.58 4.34-5.33 6.54a177.09 177.09 0 0 0-9.73 15.86 151.9 151.9 0 0 0-3.6 8.53 23.57 23.57 0 0 0-1.87 7.6 24.13 24.13 0 0 0 0 4l.54 1.46.8 1.33.93 1.33c.74.75 1.66 1.3 2.66 1.6l1.74.4h1.86a20.4 20.4 0 0 0 12.13-4 32.24 32.24 0 0 0 6.53-7.2 67.87 67.87 0 0 0 8.27-14.79l.66-2.66a47.98 47.98 0 0 0 2.67-11.6 22.3 22.3 0 0 0-.27-4v-.53c.02-.45-.03-.9-.13-1.33v-.54l-.27-.66-.13-.8c-.16-.5-.33-.99-.53-1.47l-.4-1.07c-.43-.9-.87-1.78-1.34-2.66v-.67l.4-.13a6.7 6.7 0 0 0 1.07-.27h1.33l.4-.13h1.07c1.98-.05 3.96.22 5.86.8l2.4 1.2a9.73 9.73 0 0 1 4.8 5.73c.81 2.12 1.09 4.41.8 6.66v1.87l-.13.53c-.09.4-.13.8-.14 1.2-.1.63-.24 1.25-.4 1.87l-.26.53v.67l-.14.53-.26.54v.53a40.68 40.68 0 0 1-6.27 12 54.12 54.12 0 0 1-23.72 18.65 43.72 43.72 0 0 1-28 0 14.36 14.36 0 0 1-3.46-1.86c-1.06-.8-2-1.47-2.8-2.4a12.82 12.82 0 0 1-2.13-2.67l-1.07-2.93a13.3 13.3 0 0 1-.4-3.33 21.86 21.86 0 0 1 4.67-13.6c1.07-1.33 2.27-2.93 3.6-4.26a109.69 109.69 0 0 1 19.6-15.2l.66-.26.8-.4.53-.4.67-.27.53-.4.67-.27.26-.26h.4l.27-.14.27-.26.66-.27c.26-.19.53-.36.8-.53l.27-.13h.27l.26-.27.67-.27.67-.4.26-.13h.27l.26-.27h.14v-.26h.13v-.4l-.13-.14h-.27v-.13h-4l-.26.13h-.8a3.97 3.97 0 0 0-.67 0h-.53l-.67.14h-1.73l-.54.13h-.53c-6.07.69-12.08 1.8-18 3.33a86.12 86.12 0 0 0-18.65 8.13 145.91 145.91 0 0 0-6.27 4.4c-.82.53-1.58 1.16-2.26 1.87l-.8.8c-.13.1-.26.19-.4.26l-.8.8a9.3 9.3 0 0 0-.67.8c-.97 1.37-2 2.7-3.06 4a28.3 28.3 0 0 0-2 4.67c.01.22-.03.46-.14.66-.28 1.73-.23 3.5.14 5.2l.66 1.6c.54.94 1.17 1.84 1.87 2.66.77.93 1.67 1.74 2.67 2.4l1.46.94v-.14l-1.33 1.07.27.13Zm121.02-18.79-.13-.27-.4-.13-.54-.27a9.08 9.08 0 0 1-.66-.4l-.27-.13h-.27l-.26-.13h-.14l-.13-.14h-.4l-.4-.13a7.46 7.46 0 0 0-1.33-.13 4 4 0 0 0-1.34 0l-.53.26h-.53c-.19.07-.37.16-.54.27l-.4.27c-.26 0-.4.13-.66.4l-.4.26-.4.4-.8.8-.13.27-.27.4-.13.13-.14.27-.26.13v.27l-.27.13-.67.94a42.47 42.47 0 0 0-2 3.6 266.5 266.5 0 0 0-5.33 11.19 21.4 21.4 0 0 0-.8 4c-.02.58.02 1.16.14 1.73l.4.67 1.33 1.06.66.4c.58.06 1.16.1 1.74.14h1.86l.27-.14h.27l.4-.26h.4l.4-.27h.4c.3-.16.6-.3.93-.4l.4-.4h.4l.27-.13.13-.14h.27v-.13l.26-.13h.27l.4-.4-.14-1.87v-1.6l.14-.26.26-.4v-.27l.14-.13v-.67l.26-.13v-.4l.27-.14 8.4-17.86h-.27m6 20.26c-.4.81-.71 1.66-.93 2.54v.4c-.02.44.02.9.13 1.33l.4.4.53.4.67.4.8.26.67.14h2.66a35.98 35.98 0 0 0 7.33-2.14l.53-.26h.27l.13-.14h.27l.27-.13v-.13l.4-.13.26-.27h.4l.27-.27c.17-.1.35-.2.53-.26h.27l.13-.27h.27l.27-.13.13-.14.93.8-.8.54c-.47.32-.96.64-1.46.93l-.8.4-1.6.66c-1.08.52-2.2.97-3.33 1.34-1.09.43-2.2.79-3.34 1.06l-.93.14c-.6.2-1.23.33-1.87.4h-2.26l-.13.13h-.27a2.74 2.74 0 0 0-.53 0l-.4.13h-1.47l-.4.14h-.93c-2 0-4.01-.14-6-.4l-.93-.27-1.34-.4-1.06-.67c-.71-.52-1.38-1.1-2-1.73l-.8.53c-.44.25-.88.47-1.33.67l-.8.27-1.07.53h-.4l-.67.27-.8.26-1.06.27-.27.13-.4.14h-2l-.4.13c-.75.14-1.5.23-2.26.27h-4.94c-2.84.01-5.63-.82-8-2.4l-1.2-1.6-.53-1.73a16.74 16.74 0 0 1 0-4.14v-1.06a104 104 0 0 0 .67-2.54l.4-.8.53-1.2c.7-1.12 1.4-2.23 2.14-3.33l.66-.93.8-1.2.4-.4.4-.53c.22-.39.5-.75.8-1.07l1.87-1.86 2-1.6a35.57 35.57 0 0 1 6.66-3.87c1.76-.51 3.54-.95 5.33-1.33a29.2 29.2 0 0 1 10.67 0c.28.15.54.33.8.53.31.12.63.25.93.4l1.6 1.07 15.6-2.54-11.2 24 .13-.14Z" fill="#fff" fill-rule="nonzero"/>
  <path d="m1086.35 3074.66-.13.66v.4l-.27.4v.27l-.26.4v.8c0 .45.04.9.13 1.33l.4.4 1.07.8.66.27h.67l.53.13h1.6c1.02-.2 2.04-.38 3.07-.53l1.6-.54c1.25-.34 2.46-.83 3.6-1.46l1.86-.8 2.14-1.07.8.8a35.22 35.22 0 0 1-6.14 3.2l-1.2.27c-1.43.4-2.85.84-4.26 1.33a17 17 0 0 1-2.13.4h-.67a1.34 1.34 0 0 0-.4 0l-1.2.27h-1.73l-.27.13h-1.73l-.27.13h-.93c-2.9.04-5.78-.41-8.53-1.33l-1.33-.93a3.8 3.8 0 0 1-.8-1.07c-.27-.4-.4-.8-.4-1.33l-.14-1.33v-2.27l.14-.53v-.4l.4-.67v-.67h.13v-.26l.13-.14 18.13-41.58 16.4-2.67-20.67 47.05v.14Z" fill="#fff" fill-rule="nonzero"/>
  <path d="M1146.47 3031.87a68.66 68.66 0 0 0-4 3.33l-1.34.8c-.67.5-1.39.94-2.13 1.34 0 .26-.13.26-.26.4l-.4.13-.8.53-.27.14-.4.26c-.21.2-.43.37-.67.54l-.66.26-.14.14-.26.13v.13l-.54.27-.13.13h-.13l-.54.27v.13l-.4.13v.14h-.26l-1.6 1.06-.4.14-.4.26-.13.27-.4.13-.14.14-5.73-.27c.32-.2.6-.48.8-.8l.27-.4.4-.27.26-.4.4-.4.27-.4.27-.26.26-.4v-.13l.27-.14.13-.26.27-.14v-.26l.13-.14.27-.4s0-.26.27-.26v-.54l.4-.4v-.26l.26-.54.14-.4c.23-.32.4-.68.53-1.06 0-.27 0-.4.27-.67l.13-.67.27-.66.13-.67v-.27h15.73v.27ZM1119.4 3070l.67-.53c1.12-.81 2.2-1.7 3.2-2.67l.53-.26.4-.54.4-.26.53-.54.4-.53c.27 0 .4-.27.67-.4l1.33-1.33.13-.4.4-.14c0-.13 0-.26.27-.26l.4-.54.67-.66.13-.27.53-.53.14-.27.4-.53.53-.54.13-.4.27-.26.13-.27h.13l.14-.4.26-.26v-.27l.27-.27c.38-.63.7-1.3.93-2v-.26l.27-.14v-2l-.67-.66-.26-.14h-.14l-.53-.26a2.74 2.74 0 0 0-.53 0h-.93l-1.2.53a7.6 7.6 0 0 0-1.6 1.33l-.54.54-1.06 1.33a33.31 33.31 0 0 0-5.2 9.2c-.3.65-.57 1.32-.8 2l-.13.53c-.47 1-.87 2.02-1.2 3.06l-.14.67.67-.53m25.99 6.8-1.07.66-.93.53a4.1 4.1 0 0 0-.53.14l-.4.26-.54.27-.4.13c-.26 0-.4 0-.53.27-.13.06-.26.1-.4.13l-.4.27-1.06.27-.4.26h-.4l-.54.27c-.77.22-1.52.5-2.26.8-.75.23-1.5.4-2.27.53-1.49.36-3 .59-4.53.67-2 .07-4 .2-6 .4h-1.33l-1.33.13h-5.2l-.14-.13h-.93a28.25 28.25 0 0 1-7.73-1.87l-1.47-.8a4 4 0 0 1-1.06-1.33l-.53-1.46a8.24 8.24 0 0 1-.14-2.54v-.66l.14-.27v-.4l.13-.67v-1.2l.13-.66c.1-.2.15-.44.14-.67l.4-.93.26-1.07.67-1.46.66-1.6a37.3 37.3 0 0 1 4-6 10 10 0 0 1 2.27-2.53 34.95 34.95 0 0 1 6.13-4l3.6-1.2a36.51 36.51 0 0 1 10.66-.94c1.26.15 2.5.37 3.73.67l1.34.67 1.06.8.8 1.06c.42.74.65 1.56.67 2.4v.4h-.27v.8a4 4 0 0 1-.66 2.13l-1.34 2.14-1.86 2.13a29.56 29.56 0 0 1-5.6 3.87 60.2 60.2 0 0 1-12 5.33v1.06l-.13.4v2.54l.53 1.06.54.93.93.8 1.2.67 1.33.53 1.6.27c1.24.13 2.5.13 3.73 0 3.2-.19 6.34-.86 9.33-2a56.62 56.62 0 0 0 7.47-3.2v-.13l.93 1.07Z" fill="#fff" fill-rule="nonzero"/>
  <path d="m1156.06 3079.45-.26.8v.54h.66l.14-.27.4-.4.13-.27.27-.26.13-.27.27-.4.26-.67.54-.93c.54-1 1.03-2.02 1.46-3.06l2.13-3.74a61.16 61.16 0 0 0 2.4-3.46c.85-1.03 1.65-2.1 2.4-3.2l1.2-1.6v-.13c.1-1.5.5-2.95 1.2-4.27a11.7 11.7 0 0 1 2.67-4 18.74 18.74 0 0 1 3.46-2.66l2-.8 2.13-.27h.4c.45 0 .9.05 1.34.13l1.6.54.53.4.27.53.26.13v1.74l-.53.53h-.13l-.14.27-.26.13-.67.67h-.13l-.67.53c-.27 0-.4.27-.67.4l-1.06.8-2 1.33-.67.53-.4.27-.4.4c-.7.5-1.36 1.03-2 1.6l-1.2.93-1.06.8v3.07c0 .4.13.93.4 1.33l.66 1.07c.14.4.54.66.94.93.26.4.66.67 1.06.8l1.34.67 1.33.26h3.86l.67-.13c.88-.23 1.77-.4 2.67-.53l.4 1.73h-.54l-.4.13c-.12.07-.26.11-.4.14h-.66v.13h-2.27a27.74 27.74 0 0 1-4-.4 14.26 14.26 0 0 1-6.53-3.73 12.9 12.9 0 0 1-2-3.07h-.13l-.27.27-.26.13c0 .27-.27.4-.4.54a2.7 2.7 0 0 0-.4.53c-.23.34-.5.65-.8.93-.15.17-.29.35-.4.53l-.54.54-.8 1.33-.93 1.33a52.75 52.75 0 0 1-2.67 4l-1.6 2.67v.26h-.26v.54l-.27.26-.26.54-.27.26v.14l-.13.26-.27.14-.53.8-.4.13c0 .13 0 .27-.27.4h-.27l-.26.27c-.44.13-.88.22-1.34.26h-.26a23.76 23.76 0 0 1-5.07 0h-1.06c-1-.29-1.98-.64-2.94-1.06l-.93-.8-.67-.8-.53-1.07v-2.66l.27-.54v-.26l.26-.67c0-.27 0-.53.27-.67v-1.06l.13-.4 8.53-19.2 16.13-2.66-13.06 29.05h.13Z" fill="#fff" fill-rule="nonzero"/>
  <path d="M1208.71 3031.6c1.05.29 2.07.64 3.07 1.07l1.33.8a5.47 5.47 0 0 1 1.73 2.27c.48.8.76 1.72.8 2.66 0 .4 0 .94-.27 1.34a9.83 9.83 0 0 1-1.33 2.4c-.13.4-.53.66-.93 1.06a9.35 9.35 0 0 1-6.13 2l-1.34-.13c-.62-.12-1.24-.25-1.86-.4a9.5 9.5 0 0 1-2.8-1.47l-1.07-1.07a6.8 6.8 0 0 1-1.33-2.4c-.2-.87-.2-1.78 0-2.66l.53-1.33.8-1.2 1.07-1.07a10.27 10.27 0 0 1 6-2v-.13c.66 0 1.33 0 1.73.26m-10.26 42.92v.27l-.14.4v.13l-.13.27-.13.4v.4l-.27.4v1.6c0 .26 0 .4.27.53l.26.53.54.4.4.27 1.46.4c.8.1 1.6.1 2.4 0 .63-.08 1.25-.16 1.87-.27l.66-.26.67-.14.67-.26c.85-.34 1.7-.7 2.53-1.07l.53-.27c.37-.2.73-.42 1.07-.66l.67-.27.53-.26h.13l.4-.4.54-.27h.26l.54-.27c.22-.23.5-.42.8-.53l.93.67a26.25 26.25 0 0 1-7.2 4c-1.6.5-3.2 1-4.8 1.46l-2.4.4-2.66.13c-3.48.2-6.97-.02-10.4-.66l-2-.4-1.46-.8a4.02 4.02 0 0 1-1.07-1.07l-.53-1.2-.14-1.33v-1.07l.14-.13v-.13l.13-.4v-1.87l.27-.13 9.33-20.4 16.26-2.66-10.93 24.52Z" fill="#fff" fill-rule="nonzero"/>
  <path d="m1230.7 3070 .67-.54c.83-.58 1.63-1.2 2.4-1.87.43-.37.88-.72 1.33-1.06l.4-.54.53-.26.4-.54.54-.53.53-.4.53-.53.4-.27.27-.27.13-.26 1.34-1.34.53-.66.27-.27.13-.27.53-.53.8-1.07c.14-.25.32-.47.53-.66v-.27h.14c0-.26.13-.26.26-.4l.27-.53c.4-.9.85-1.8 1.33-2.67l.14-.66v-1.2l-.14-.14v-.13l-.26-.13v-.14l-.27-.13v-.13l-.27-.14h-.26l-.14-.13-.4-.13h-1.33a7.07 7.07 0 0 0-2.8 1.86l-1.2 1.2-.53.67a32.83 32.83 0 0 0-4.53 7.73 53.9 53.9 0 0 1-1.33 3.47l-.27.53a22.5 22.5 0 0 0-1.33 3.86v-.26l.66-.27m26 6.67-1.07.66-.94.53c-.32.1-.63.24-.93.4l-.4.27-.53.13c-.14 0-.27 0-.4.27-.18.06-.35.1-.54.13l-.4.27-.53.13-.4.14-.4.26h-.53l-.53.27c-.73.23-1.44.5-2.14.8-.74.23-1.5.4-2.26.53-1.49.37-3 .6-4.53.67-2.05.06-4.1.2-6.14.4h-1.33l-1.33.13h-5.07l-.26-.13h-.94a31.08 31.08 0 0 1-5.86-1.07l-1.87-.8-1.33-.8a4 4 0 0 1-1.2-1.33l-.4-1.33a8.49 8.49 0 0 1 0-2.53v-1.34l.13-.53v-1.33l.27-.67a1.6 1.6 0 0 0 0-.67c.27-.26.27-.53.4-.93l.4-1.07.67-1.46.66-1.6a38.8 38.8 0 0 1 3.74-6l2.53-2.53a33.46 33.46 0 0 1 6.13-4l3.47-1.2a37.47 37.47 0 0 1 10.66-.93c1.25.15 2.5.38 3.73.66l1.33.67 1.07.8.8 1.07.53 1.2v2.26c-.13.8-.4 1.47-.8 2.13-.26.8-.8 1.34-1.33 2.14-.4.8-1.07 1.33-1.87 2.13-1.66 1.5-3.5 2.8-5.46 3.87a58.28 58.28 0 0 1-12 5.33v.4l-.13.4v.66l-.13.27v2.27l.53 1.06.53.93.94.8 1.33.67c.27.27.8.4 1.33.53l1.47.27c1.28.14 2.58.14 3.86 0 2.36-.19 4.68-.63 6.93-1.33a43.56 43.56 0 0 0 9.87-4l.8 1.07h-.14Zm74.1 12.52a4 4 0 0 0-.8 0h-.67c-.44.12-.88.2-1.33.27h-.53l-.54.13c-.45.03-.9.12-1.33.27l-1.06.13-1.07.27c-1.17.2-2.33.48-3.47.8l-.53.13-.4.14-1.07.4-.93.4c-.46.18-.9.4-1.33.66l-.8.8-.53.94c-.16.42-.2.88-.14 1.33l.14.4.26.4s.14.26.4.26l.27.14h.27l.53.26a11.03 11.03 0 0 0 4.66-.27c1.18-.3 2.3-.8 3.34-1.46 1.3-.73 2.51-1.63 3.6-2.66a119.6 119.6 0 0 0 3.73-3.74h-.67m-22.66-24.25c1.6-.47 3.2-.91 4.8-1.34 1.5-.46 2.96-1 4.4-1.6a95.2 95.2 0 0 0 6.66-2.66l3.2-1.07a104.4 104.4 0 0 0 21.6-12.53l2.66-2.93 1.46-3.06a9.5 9.5 0 0 0 .54-3.07 5.87 5.87 0 0 0-1.73-4.13l-1.34-1.2-1.6-.93-1.86-.67a16.54 16.54 0 0 0-7.06-.27h-.67l-.67.14c-.18.03-.36.08-.53.13l-.67.13-.53.14-.67.26h-.67l-1.33.54-.53.13-.67.26a38.64 38.64 0 0 0-9.33 5.2c-3.76 2.72-7.1 6-9.86 9.73-1.01 1.7-2.03 3.39-3.07 5.07a103 103 0 0 0-2.4 5.6 39 39 0 0 0-2 8.8v-.4l1.87-.4m55.58-12.94-6.8 17.33-.4 1.2-.26.4v.13h-.14v.54l-.13.13v.4h-.13l-.54 1.07-.26.8-.4.8-.54.66-.8 1.34a29.13 29.13 0 0 1-2.13 3.33c-.26 0-.4.26-.53.53l-.4.27-1.07 1.06-.8.54h-.13v.13h-.13v.13a187 187 0 0 0 6.66-.93c4.34-.8 8.58-2.05 12.66-3.73a76.81 76.81 0 0 0 6-2.4v1.33l-3.6 1.87a50.98 50.98 0 0 1-7.2 3.06c-2.4.85-4.8 1.74-7.2 2.67-2.55.74-5.13 1.4-7.72 2l-4 .8-.4.13-.27.27-.4.26-.26.14c-.2.2-.42.39-.67.53-.19.22-.41.4-.67.53l-.8.4-1.33 1.07-.67.4-.93.53-.8.54a34.5 34.5 0 0 1-2.66 1.46l-.8.54-.94.53c-.55.35-1.13.66-1.73.93l-.53.27-.54.13c-.12.1-.26.2-.4.27-.17.05-.35.1-.53.13l-.4.27-.4.13-1.07.4-.93.27c-.86.33-1.76.6-2.66.8l-.67.13h-.4c-.34.14-.7.23-1.07.27a6.6 6.6 0 0 1-1.33.13h-1.33c-1.22.02-2.44-.16-3.6-.53a5.07 5.07 0 0 1-1.6-1.07l-.53-.67-.4-.8a4.4 4.4 0 0 1 .13-2.13l.8-1.33 1.07-1.07 1.73-.93a21.5 21.5 0 0 1 3.73-1.73c1.64-.5 3.28-1 4.93-1.47l.4-.27c.68-.08 1.35-.2 2-.4.96-.27 1.94-.5 2.93-.66 1.27-.13 2.52-.4 3.74-.8h.66v-.4l.27-.4v-.13l.26-.14v-.26l.4-.8v-.27h.14c0-.27.13-.27.26-.4v-.27l.27-.26v-.4l.27-.4v-.27l.13-.27v-.4c.25-.42.48-.87.67-1.33l.13-.27v-.26l.13-.27v-.27l.14-.13.26-.53v-.27l.27-.53.13-.13v-.27l.14-.27a30.02 30.02 0 0 1-6 3.6 50.75 50.75 0 0 1-10.13 3.33 63.2 63.2 0 0 1-19.33.4 27.36 27.36 0 0 1-6.4-2.53 12 12 0 0 1-5.86-6.66c-.4-.94-.53-1.87-.8-2.94-.35.09-.7.13-1.07.14-.65.15-1.32.24-2 .26l-.4.14h-.53l-.66.26h-.67c-.52.16-1.06.25-1.6.27h-4.26l1.33-3.2h1.2c.44.12.88.2 1.33.27h2v-.14h1.87l.26-.13h1.74l.13-.13h.66l.27-.14h.53v-2.4l.14-.26v-.27h.13v-.26c.19-1.58.64-3.11 1.33-4.54.38-1.09.83-2.16 1.34-3.2a29.66 29.66 0 0 1 2-3.33l1.2-1.6c1.2-1.86 2.66-3.6 4.26-5.33a66.1 66.1 0 0 1 11.33-8.93 76.92 76.92 0 0 1 30.66-10.66c2.8-.53 5.46-.8 8.26-.8h.53l.14-.13h2c1.87.03 3.74.2 5.6.53 1.5.32 2.97.77 4.4 1.33l1.46.94c.53.26.8.66 1.06 1.2.4.26.67.8.8 1.33l.14 1.46c0 .4 0 .8-.27 1.07l-.4 1.2-.67 1.07-.66 1.2c-.31.48-.67.92-1.07 1.33-.27 0-.4.27-.67.53l-.66.67a48.97 48.97 0 0 1-3.6 2.8l-.13.26h-.27l-.13.27-.27.13-.13.14h-.14l-.26.26a175.7 175.7 0 0 1-10.4 6.53l-4 2.14a121.92 121.92 0 0 1-12.4 5.86 686.4 686.4 0 0 0-6.8 2.8l-2.66 1.07-2.66.93-2.4.8-2.67.8c-1.6.4-3.2.85-4.8 1.33l-2.4.8v2.27l.27.53c0 .27.04.54.14.8 0 .67.26 1.33.4 1.73a20.3 20.3 0 0 0 2.66 5.07l1.47 1.33c.53.53 1.2.8 1.86 1.07 1.55.53 3.17.8 4.8.8h1.33l.4-.14c.58.01 1.16-.03 1.74-.13l.93-.13c.75-.2 1.5-.38 2.27-.54l.4-.13 1.73-.53a84.78 84.78 0 0 0 6.93-2.93l1.6-.8c1.07-.59 2.1-1.26 3.06-2h.14l.26-.27h.14l.13-.13h.13l.14-.14v-.13h.26l.14-.13 6.93-17.86 17.6-2.94Z" fill="#fff" fill-rule="nonzero"/>
  <path d="m1387.31 3070 1.34-1.08.8-.53c.6-.5 1.19-1.03 1.73-1.6l.53-.26.4-.54.4-.26.53-.54.4-.53c.27 0 .4-.27.67-.4l.8-.8.53-.53.14-.27.4-.27.26-.26.4-.54.67-.66.13-.27.8-.8c.45-.74.93-1.45 1.47-2.13l.13-.27.27-.26v-.27l.26-.27c.4-.63.7-1.3.94-2v-.26l.26-.14.14-.66v-1.2l-.54-.54a.66.66 0 0 0-.26-.26l-.14-.14h-.26l-.14-.13-.4-.13h-1.46l-1.2.53c-.6.36-1.14.8-1.6 1.33l-.53.67-.54.53-.53.67a28.52 28.52 0 0 0-3.73 6.4l-.8 1.33-.67 1.33-.26.94c-.16.45-.34.9-.54 1.33l-.13.4c-.56 1.24-1 2.54-1.33 3.86v-.26l.66-.27m26 6.67-1.07.66-.94.53c-.32.1-.63.24-.93.4l-.53.27-.4.13c-.27 0-.4 0-.54.27l-.4.13-.4.27-1.06.27-.4.26h-.4l-.53.27c-.77.22-1.53.49-2.27.8l-1.07.27-1.2.26c-1.48.37-3 .6-4.53.67-2 .06-4 .2-6 .4h-1.33l-1.33.13h-5.2l-.13-.13h-.94a31.18 31.18 0 0 1-5.86-1.07l-1.87-.8-1.46-.8-1.07-1.33-.53-1.46a8.24 8.24 0 0 1-.13-2.54v-.66l.13-.27v-.4l.13-.53v-.8c0-.45.04-.9.13-1.34l.14-.26v-.4l.4-.94.26-1.06c.99-2.06 2.01-4.1 3.07-6.13l2.13-2.94a16.4 16.4 0 0 1 2.4-2.53 33.7 33.7 0 0 1 6.13-4l3.6-1.2a37.5 37.5 0 0 1 10.66-.93c1.26.16 2.5.38 3.74.67l1.33.66 1.07.8.8 1.07c.41.73.64 1.56.66 2.4v.4h-.26v.8a4 4 0 0 1-.67 2.13l-1.33 2.13-1.87 2.14a27.77 27.77 0 0 1-5.6 3.86 58.5 58.5 0 0 1-12 5.33v1.07l-.13.4v2.53l.54 1.07.53.93.93.8 1.2.67 1.33.53 1.6.27c1.24.13 2.5.13 3.74 0a31.7 31.7 0 0 0 7.06-1.34c3.39-.95 6.65-2.3 9.73-4l.93 1.07v.14Z" fill="#fff" fill-rule="nonzero"/>
  <path d="m1423.97 3079.45-.27.8v.54h.67l.13-.27.27-.13.13-.27c.1-.13.19-.26.27-.4v-.13l.13-.14.13-.26.27-.4.26-.67c.5-.68.94-1.39 1.34-2.13.88-1.9 1.81-3.76 2.8-5.6a69.76 69.76 0 0 0 3.6-5.06l1.33-1.6 1.06-1.6v-.14c.1-1.48.51-2.94 1.2-4.26.59-1.51 1.5-2.88 2.67-4a17.85 17.85 0 0 1 3.47-2.67l2-.8 2.13-.26h.4c.44 0 .89.05 1.33.13l.93.27.67.26.53.4.4.54v.13l.27.53v1.07l-.27.13v.4h-.26v.27h-.27l-.13.27-.27.13-.67.67h-.13l-.67.53-.66.4-1.07.8-2 1.33-.67.53-.4.27-.26.4c-.75.49-1.46 1.02-2.13 1.6-.8.52-1.56 1.1-2.27 1.73v3.07c0 .4.13.93.4 1.33l.67 1.07.93.93c.27.4.67.67 1.07.8l1.33.67 1.33.26h4.13l.54-.13c.88-.22 1.77-.4 2.66-.53l.4 1.73h-.53l-.4.13c-.13.07-.26.11-.4.14h-.67v.13h-2a27.71 27.71 0 0 1-4.13-.4 14.12 14.12 0 0 1-6.53-3.73 13.5 13.5 0 0 1-2-3.07h-.13l-.94.94a2.7 2.7 0 0 0-.4.53c-.24.33-.5.64-.8.93-.14.17-.28.35-.4.53l-.53.54c-2.18 3.1-4.23 6.3-6.13 9.6v.26l-.27.13-.53 1.07-.13.13-.14.27-.53.53-.26.4-.4.14c0 .13 0 .26-.27.4h-.27l-.26.26c-.44.14-.88.23-1.34.27h-.26c-.8.12-1.6.17-2.4.13-.9.01-1.78-.03-2.67-.13h-1.06c-1-.29-1.98-.65-2.94-1.07l-.93-.8-.67-.8-.53-1.06v-2.53l.27-.54v-.26l.26-.67c0-.27 0-.53.27-.67v-1.06l.13-.4 8.53-19.2 16.26-2.66-13.2 29.05h-.12Z" fill="#fff" fill-rule="nonzero"/>
  <path d="m1485.01 3066.8.13-.4.27-.54.13-.53.27-.4.27-.54.13-.4c.12-.36.25-.71.4-1.06l.13-.54.14-.4v-.26c.12-.32.25-.63.4-.94v-.4l.26-.53v-2.66l.14-.27v-1.07c.05-.66.05-1.33 0-2l-1.2-2.4c-.14-.26-.27-.4-.54-.4l-.53-.4h-1.33c-.2.12-.38.25-.54.4-.26 0-.4.27-.53.54l-.4.66-.27.94-.4 1.2v5.46l.27.27v.13l.13.93.27.8.13.8.27.8.8 1.87c.25.7.56 1.36.93 2v-.13l.27-.54m-8.53-15.46-10.66 23.33-.27.66-.4.67v.4c0 .27-.13.4-.27.4v.53l-.13.4v1.47l.13.66.4.54.54.4.4.4.8.26c.47.16.96.24 1.46.27l1.74-.13c.53 0 1.2-.27 1.73-.54l.8-.26.8-.4c1.03-.74 2.05-1.5 3.06-2.27l.8-.67c.69-.6 1.31-1.27 1.87-2a27.37 27.37 0 0 0 3.06-4.13l.54-.66.4-.67.13-.27.27-.26.13-.27.27-.4c-.7-.83-1.33-1.72-1.87-2.66a21.49 21.49 0 0 1-2.66-5.74c-.19-1.1-.24-2.22-.14-3.33v-1.86c.14-1.13.6-2.2 1.34-3.07a9.84 9.84 0 0 1 2.13-2.27l1.46-.66c1.17-.37 2.38-.6 3.6-.67 1.23.02 2.45.24 3.6.67l1.47.8 1.33 1.06.93 1.34c.4.4.54.93.8 1.46.95 3.33.62 6.9-.93 10a37.69 37.69 0 0 1-1.87 3.6 88.99 88.99 0 0 1-2.53 4c.22.1.44.19.67.26l.4.27h.26l2 .8.8.27c.44.14.89.28 1.34.4h.66l.67.26.67.14h.8l.66.13h4.67l-.27 2h-2c-.2.13-.43.22-.67.27h-.93l-.4-.14h-.53l-.27-.13h-.26l-.67-.13-.4-.14a11.5 11.5 0 0 1-2.13-.53 23.34 23.34 0 0 1-4.67-2.13l-.67-.27-.4-.27-.26-.13h-.13v.13l-.14.14h-.13v.13l-.27.27h-.26v.13a46 46 0 0 1-4.67 3.73l-.93.67a25.3 25.3 0 0 1-5.87 3.2 32.77 32.77 0 0 1-6.66 1.73 40.8 40.8 0 0 1-15.2-.4c-.66 0-1.33-.27-1.86-.53a5.33 5.33 0 0 1-2.27-2.14l-.4-1.33-.13-1.46v-.94l.13-.53.27-.53v-.67l.13-.67c.12-.55.3-1.08.54-1.6l8-17.86 16.52-2.66v.13Z" fill="#fff" fill-rule="nonzero"/>
  <path d="M1538.32 3053.73c-.13 0-.26 0-.4-.27l-.53-.26-.4-.14-.27-.26h-.26l-.4-.27h-.27l-.26-.13-.14-.14h-.53l-.27-.13a7.58 7.58 0 0 0-1.33-.13 4 4 0 0 0-1.33 0l-.54.26h-.53c-.23.06-.46.15-.67.27l-.4.27c-.2.08-.39.22-.53.4l-.53.26-.14.27-.26.13v.27c-.27 0-.27 0-.4.27l-.27.26-.13.27h-.14l-.13.4-.26.13v.27l-.27.13-.13.27-.14.13c-.24.3-.46.6-.66.94l-.67 1.06-.67 1.33-2 3.6a69.34 69.34 0 0 1-2.26 4.67 51.44 51.44 0 0 0-2.53 7.2c-.12.88-.08 1.79.13 2.66 0 .27.26.53.4.67l.53.53.67.53.66.4c.63.06 1.25.1 1.87.14h1.87l.13-.14h.4c.25-.15.52-.29.8-.4h.27l.4-.26h.4c.21-.1.43-.2.66-.27v-.13c.27 0 .27-.14.4-.27h.4l.13-.13.27-.14h.13l.14-.13.26-.13h.27l.13-.27h.14l.13-.13-.27-1.87v-1.2l.14-.4.13-.26.13-.4v-.27l.27-.13v-.67l.27-.27v-.26l.13-.14 8.53-17.86h-.4m6.13 20.26-.4.67-.13.53-.13.4-.14.27c-.1.2-.14.44-.13.67v.4c-.02.44.02.9.13 1.33l.4.4.54.4c.13.26.4.26.66.4l.67.26.8.14h2.53c2.75-.5 5.43-1.3 8-2.4h.13l.27-.14h.26l.27-.26.27-.13h.26v-.27h.54l.4-.27c.16-.1.34-.2.53-.26h.13l.27-.27h.27v-.13l.26-.14.8.8-.8.54-.66.53c-1.46.93-3.03 1.7-4.67 2.26a34.2 34.2 0 0 1-7.73 2.14h-2.27l-.13.13h-.93l-.4.13h-1.33l-.54.14h-.93c-2 0-4-.14-6-.4l-.8-.27-1.33-.4c-.4-.2-.8-.43-1.2-.67-.67-.52-1.3-1.1-1.87-1.73l-.8.53c-.47.25-.96.48-1.46.67l-.8.27-.13.13-.8.4h-.54a7.6 7.6 0 0 0-.66.27l-.67.26-1.07.27-.26.13-.4.14h-2l-.4.13c-.8.15-1.6.24-2.4.27h-4.8l-2.13-.27c-2.1-.3-4.1-1.08-5.87-2.27l-1.33-1.33-.4-1.86a18.66 18.66 0 0 1 0-5.2l.13-1.07.14-.27v-.26l.4-.94.4-.8c0-.4.26-.8.53-1.2 1.56-2.6 3.3-5.1 5.2-7.46l.4-.53c.26 0 .4-.27.53-.4l.93-.93c.54-.67 1.34-1.2 1.87-1.6a36.34 36.34 0 0 1 6.66-3.87c2.63-.74 5.3-1.32 8-1.73a32.5 32.5 0 0 1 8 .53c.32.1.63.24.93.4.32.12.63.26.93.4.5.33 1 .69 1.47 1.07l15.6-2.54-11.07 24v-.14Z" fill="#fff" fill-rule="nonzero"/>
  <path d="M1585.9 3031.6c1.05.28 2.08.64 3.07 1.07l1.34.8 1.06 1.07a6.9 6.9 0 0 1 1.33 2.4c.26.87.26 1.8 0 2.66l-.53 1.33-.8 1.2-1.06 1.07a9.2 9.2 0 0 1-6 2l-1.34-.13c-.67-.12-1.33-.25-2-.4a9.04 9.04 0 0 1-2.66-1.47 7.48 7.48 0 0 1-2.4-3.46 5.05 5.05 0 0 1 0-2.67c0-.53.27-.93.53-1.33l.67-1.2 1.07-1.07a10 10 0 0 1 6.13-2v-.13c.53 0 1.06 0 1.6.26m-10.27 42.92v.67l-.26.13v.27a2.8 2.8 0 0 0-.14.8l-.26.4v1.6l.53 1.06.53.4.54.27 1.33.4c.8.1 1.6.1 2.4 0a51.2 51.2 0 0 0 3.2-.67l.66-.26c.86-.34 1.7-.69 2.54-1.07l.53-.27c.37-.2.72-.42 1.07-.66a13 13 0 0 1 .93-.4l.27-.13h.13c.23-.32.56-.55.93-.67h.27l.53-.27c.22-.23.5-.42.8-.53l.93.67a26.24 26.24 0 0 1-7.06 4c-1.6.5-3.2 1-4.8 1.46l-2.53.4-2.67.13c-3.48.2-6.97-.02-10.4-.66l-2-.4-1.46-.8a4.02 4.02 0 0 1-1.06-1.07l-.54-1.2-.13-1.33v-1.07l.13-.13v-.13l.14-.4v-1.87l.26-.13 9.33-20.4 16.26-2.66-10.93 24.52Z" fill="#fff" fill-rule="nonzero"/>
  <path d="m1614.16 3059.86.4-.4.27-.4c.32-.47.68-.92 1.07-1.33l.13-.13.13-.27v-.27l.27-.4.27-.53.13-.53v-1.34c.06-.44.06-.89 0-1.33l-.27-.27v-.53h-.13l-.13-.27a6.46 6.46 0 0 0-.54-.4l-.53-.4-.4-.13a4.04 4.04 0 0 0-.93 0l-.4.13c-.2.11-.38.25-.54.4l-.26.27v.27l-.27.26-.13.27v3.07c-.02.23.03.46.13.66v.4l.13.27.54 1.6c.24.61.46 1.24.66 1.86v-.13l.4-.27m-12 19.73h.14l.4-.4.27-.13.26-.27.14-.27.26-.13v-.13l.14-.27v-.27l.26-.13v-1.2l.27-.13v-1.2l-.13-.27v-.26l-.14-.67c0-.27 0-.4-.26-.67v-.26l-.14-.4-.26-.4v-.54c-.4-.69-.75-1.4-1.07-2.13l-.27.27h-.13l-.27.13v.13l-.13.14-.27.13v.13l-.53.27-.26.27h-.27v.13l-.27.13h-.13l-.27.27-.13.27h-.27v.13l-.26.13-.14.14h-.26a3 3 0 0 0-.54.53l-.53.27-.4.4h-.27l-.53.4-.4.26-.27.27-.8.4-.4.4h-.13v.13l-.27.14-.13.13 8.4 4v.13m28.52-3.06-.4.4-.27.13-.13.13-.27.13-.13.14h-.27l-.13.26-2.26 1.07a84.7 84.7 0 0 1-4.4 2l-1.07.4-1.2.27-.67.13-.66.27c-.94.08-1.87.22-2.8.4a24.8 24.8 0 0 1-3.73.26h-1.74a4.02 4.02 0 0 1-1.06-.26h-1.47a2.5 2.5 0 0 0-.93-.27h-.93l-1.07-.13c-.97-.27-1.95-.49-2.93-.67h-.54l-.26.13h-.4l-.14.14c-.25.07-.52.12-.8.13l-.53.13h-.4l-.26.14h-1.87v.13h-.13l-.27.13h-.93v.14h-.54l-.26.13h-.54v.13h-.4c-.5.03-1-.06-1.46-.26l-.54-.27a.67.67 0 0 1-.4-.4l-.4-.4a3.2 3.2 0 0 1-.66-1.33v-.67h-.13v-.27h-.14v-.8l-.13-.26v-.8h.13v-.93l.27-.27.27-.13.4-.27.4-.4.13-.27.53-.4.67-.4.8-.53h.13l.13-.27h.27v-.13h.27l.26-.13.14-.14.26-.13.27-.27.27-.13.4-.4.53-.27.67-.66.4-.14.26-.26 1.07-.8.27-.14.13-.26.53-.54c.15-.06.29-.15.4-.26l.27-.27h.13l.4-.27.13-.26h.27v-.13l-.13-.67a6.9 6.9 0 0 1-.4-1.07v-.4l-.14-.4v-.53l-.13-.4v-4.53l.67-2.27 1.2-2.13a14.26 14.26 0 0 1 3.46-3.47l2.4-1.2 2.67-.66c1.41-.2 2.84-.25 4.26-.14l.94.14c.4 0 .66.26.93.4l.67.4.53.66.4.67c.26.54.4 1.13.4 1.73v.4l-.14.4v.54l-.26.53-.27.93c-.25.46-.52.9-.8 1.34l-.8 1.06c-.3.33-.6.64-.93.93-.45.61-.94 1.19-1.47 1.74v.26l.27.4.27.8.26.4.27.27.13.53.27.27v.53l.27.4.13.4.27.4.13.8.27.67v2.26a7.45 7.45 0 0 1-.67 3.34 11.05 11.05 0 0 1-2.4 2.66c-1.25 1-2.65 1.8-4.13 2.4a24.4 24.4 0 0 1-5.6 1.87l.67.26.66.14h.67c.37.1.73.23 1.07.4h.53l.67.13h5.46l1.07-.13 1.33-.14c.81-.1 1.62-.28 2.4-.53.75-.24 1.5-.46 2.26-.67l1.6-.66c1.66-.72 3.3-1.48 4.94-2.27l1.06-.53.93-.67.94.94h.13Z" fill="#fff" fill-rule="nonzero"/>
  <defs>
    <linearGradient id="b" x1="0" y1="0" x2="1" y2="0" gradientUnits="userSpaceOnUse" gradientTransform="rotate(51.99) scale(4141.05)">
      <stop offset="0" stop-color="#107070"/>
      <stop offset="1" stop-color="#ed2121"/>
    </linearGradient>
    <linearGradient id="c" x1="0" y1="0" x2="1" y2="0" gradientUnits="userSpaceOnUse" gradientTransform="rotate(65.89 309.11 356.23) scale(3890.93)">
      <stop offset="0" stop-color="#18a68c"/>
      <stop offset=".15" stop-color="#189f70"/>
      <stop offset=".3" stop-color="#438a4e"/>
      <stop offset=".6" stop-color="#954c1b"/>
      <stop offset=".8" stop-color="#992126"/>
      <stop offset="1" stop-color="#9b132a"/>
    </linearGradient>
    <linearGradient id="d" x1="0" y1="0" x2="1" y2="0" gradientUnits="userSpaceOnUse" gradientTransform="scale(855.07 935.844) rotate(90 2.54 4.94)">
      <stop offset="0" stop-color="#581d00" stop-opacity=".5"/>
      <stop offset=".51" stop-color="#170800" stop-opacity=".13"/>
      <stop offset="1" stop-opacity="0"/>
    </linearGradient>
    <linearGradient id="e" x1="0" y1="0" x2="1" y2="0" gradientUnits="userSpaceOnUse" gradientTransform="rotate(-163.91 927.63 962.93) scale(1135.468)">
      <stop offset="0" stop-color="#791637"/>
      <stop offset=".48" stop-color="#1c050d" stop-opacity=".24"/>
      <stop offset="1" stop-opacity="0"/>
    </linearGradient>
    <linearGradient id="f" x1="0" y1="0" x2="1" y2="0" gradientUnits="userSpaceOnUse" gradientTransform="scale(2025.24 766.554) rotate(90 .18 3.25)">
      <stop offset="0" stop-color="#ff9580" stop-opacity=".5"/>
      <stop offset=".58" stop-color="#e0cec6" stop-opacity=".16"/>
      <stop offset="1" stop-color="#d1e8e7" stop-opacity="0"/>
    </linearGradient>
    <linearGradient id="g" x1="0" y1="0" x2="1" y2="0" gradientUnits="userSpaceOnUse" gradientTransform="rotate(51.99) scale(4141.05)">
      <stop offset="0" stop-color="#107070"/>
      <stop offset="1" stop-color="#ed2121"/>
    </linearGradient>
    <linearGradient id="h" x1="0" y1="0" x2="1" y2="0" gradientUnits="userSpaceOnUse" gradientTransform="rotate(-90 -9 82.57) scale(186.972)">
      <stop offset="0" stop-color="#108989"/>
      <stop offset="1" stop-color="#8e2f27"/>
    </linearGradient>
    <linearGradient id="i" x1="0" y1="0" x2="1" y2="0" gradientUnits="userSpaceOnUse" gradientTransform="rotate(51.99) scale(4141.05)">
      <stop offset="0" stop-color="#107070"/>
      <stop offset="1" stop-color="#ed2121"/>
    </linearGradient>
    <linearGradient id="j" x1="0" y1="0" x2="1" y2="0" gradientUnits="userSpaceOnUse" gradientTransform="rotate(78.94 99.42 -213.75) scale(497.1032)">
      <stop offset="0" stop-color="#5cd5d5"/>
      <stop offset="1" stop-color="#e8857c"/>
    </linearGradient>
    <linearGradient id="k" x1="0" y1="0" x2="1" y2="0" gradientUnits="userSpaceOnUse" gradientTransform="rotate(51.99) scale(4141.05)">
      <stop offset="0" stop-color="#107070"/>
      <stop offset="1" stop-color="#ed2121"/>
    </linearGradient>
    <linearGradient id="l" x1="0" y1="0" x2="1" y2="0" gradientUnits="userSpaceOnUse" gradientTransform="scale(-506.913 506.913) rotate(46.39 -.25 -.25)">
      <stop offset="0" stop-color="#148671"/>
      <stop offset="1" stop-color="#913222"/>
    </linearGradient>
  </defs>
</svg>
