<?xml version="1.0" encoding="UTF-8" standalone="no"?>
<!DOCTYPE svg PUBLIC "-//W3C//DTD SVG 1.1//EN" "http://www.w3.org/Graphics/SVG/1.1/DTD/svg11.dtd">
<svg width="100%" height="100%" viewBox="0 0 87 87" version="1.1" xmlns="http://www.w3.org/2000/svg" xmlns:xlink="http://www.w3.org/1999/xlink" xml:space="preserve" xmlns:serif="http://www.serif.com/" style="fill-rule:evenodd;clip-rule:evenodd;">
    <g transform="matrix(1,0,0,1,1.56155,1.56155)">
        <circle cx="41.5" cy="41.5" r="41" style="fill:rgb(53,158,193);stroke:rgb(63,102,116);stroke-width:2px;"/>
    </g>
    <g transform="matrix(1,0,0,1,1.56155,1.56155)">
        <rect x="20" y="17" width="43" height="33" style="fill:none;"/>
    </g>
    <g transform="matrix(1,0,0,1,1.56155,9.06152)">
        <path d="M24.962,62.145C24.548,62.145 24.173,62.068 23.837,61.915C23.502,61.759 23.237,61.533 23.041,61.237C22.848,60.942 22.751,60.58 22.751,60.151C22.751,59.781 22.822,59.477 22.964,59.239C23.106,59 23.298,58.811 23.539,58.672C23.781,58.533 24.051,58.428 24.349,58.356C24.647,58.286 24.951,58.231 25.261,58.195C25.653,58.149 25.971,58.112 26.215,58.084C26.46,58.053 26.637,58.003 26.748,57.935C26.859,57.867 26.914,57.756 26.914,57.602L26.914,57.572C26.914,57.2 26.809,56.912 26.599,56.707C26.392,56.503 26.082,56.401 25.67,56.401C25.241,56.401 24.903,56.496 24.656,56.686C24.411,56.874 24.242,57.082 24.149,57.313L22.951,57.04C23.093,56.642 23.301,56.321 23.573,56.077C23.849,55.83 24.166,55.651 24.524,55.54C24.882,55.426 25.258,55.369 25.653,55.369C25.914,55.369 26.191,55.401 26.484,55.463C26.779,55.523 27.055,55.634 27.311,55.795C27.569,55.957 27.781,56.189 27.946,56.49C28.11,56.788 28.193,57.176 28.193,57.653L28.193,62L26.948,62L26.948,61.105L26.897,61.105C26.815,61.27 26.691,61.432 26.526,61.591C26.362,61.75 26.15,61.882 25.892,61.987C25.633,62.092 25.323,62.145 24.962,62.145ZM25.24,61.122C25.592,61.122 25.893,61.053 26.143,60.913C26.396,60.774 26.587,60.592 26.718,60.368C26.852,60.141 26.919,59.898 26.919,59.639L26.919,58.795C26.873,58.841 26.785,58.884 26.654,58.923C26.526,58.96 26.38,58.993 26.215,59.021C26.051,59.047 25.89,59.071 25.734,59.094C25.578,59.114 25.447,59.131 25.342,59.145C25.095,59.176 24.869,59.229 24.664,59.303C24.462,59.376 24.301,59.483 24.178,59.622C24.059,59.759 24,59.94 24,60.168C24,60.483 24.116,60.722 24.349,60.884C24.582,61.043 24.879,61.122 25.24,61.122ZM29.89,64.454L29.89,55.455L31.134,55.455L31.134,56.516L31.241,56.516C31.315,56.379 31.421,56.222 31.56,56.043C31.699,55.864 31.893,55.707 32.14,55.574C32.387,55.438 32.714,55.369 33.12,55.369C33.648,55.369 34.12,55.503 34.535,55.77C34.949,56.037 35.275,56.422 35.511,56.925C35.749,57.428 35.868,58.033 35.868,58.74C35.868,59.447 35.751,60.054 35.515,60.56C35.279,61.063 34.955,61.45 34.543,61.723C34.131,61.993 33.661,62.128 33.133,62.128C32.735,62.128 32.41,62.061 32.157,61.928C31.907,61.794 31.711,61.638 31.569,61.459C31.427,61.28 31.317,61.121 31.241,60.981L31.164,60.981L31.164,64.454L29.89,64.454ZM31.138,58.727C31.138,59.188 31.205,59.591 31.339,59.938C31.472,60.284 31.665,60.555 31.918,60.751C32.171,60.945 32.481,61.041 32.847,61.041C33.228,61.041 33.546,60.94 33.802,60.739C34.057,60.534 34.251,60.257 34.381,59.908C34.515,59.558 34.582,59.165 34.582,58.727C34.582,58.295 34.516,57.908 34.386,57.564C34.258,57.22 34.065,56.949 33.806,56.75C33.55,56.551 33.231,56.452 32.847,56.452C32.478,56.452 32.165,56.547 31.91,56.737C31.657,56.928 31.465,57.193 31.334,57.534C31.204,57.875 31.138,58.273 31.138,58.727ZM40.117,62.132C39.472,62.132 38.917,61.994 38.451,61.719C37.988,61.44 37.63,61.05 37.377,60.547C37.127,60.041 37.002,59.449 37.002,58.77C37.002,58.099 37.127,57.509 37.377,56.997C37.63,56.486 37.982,56.087 38.434,55.8C38.888,55.513 39.42,55.369 40.028,55.369C40.397,55.369 40.755,55.43 41.101,55.553C41.448,55.675 41.759,55.867 42.035,56.128C42.31,56.389 42.528,56.729 42.687,57.146C42.846,57.561 42.925,58.065 42.925,58.659L42.925,59.111L37.722,59.111L37.722,58.156L41.677,58.156C41.677,57.821 41.609,57.524 41.472,57.266C41.336,57.004 41.144,56.798 40.897,56.648C40.653,56.497 40.366,56.422 40.036,56.422C39.678,56.422 39.366,56.51 39.099,56.686C38.834,56.859 38.63,57.087 38.485,57.368C38.343,57.646 38.272,57.949 38.272,58.276L38.272,59.021C38.272,59.459 38.349,59.831 38.502,60.138C38.658,60.445 38.876,60.679 39.154,60.841C39.432,61 39.758,61.08 40.13,61.08C40.371,61.08 40.591,61.045 40.79,60.977C40.989,60.906 41.161,60.801 41.306,60.662C41.451,60.523 41.562,60.351 41.638,60.146L42.844,60.364C42.748,60.719 42.574,61.03 42.324,61.297C42.077,61.561 41.766,61.767 41.391,61.915C41.019,62.06 40.594,62.132 40.117,62.132ZM44.339,62L44.339,55.455L45.571,55.455L45.571,56.494L45.639,56.494C45.758,56.142 45.968,55.865 46.269,55.663C46.573,55.459 46.917,55.356 47.301,55.356C47.38,55.356 47.474,55.359 47.582,55.365C47.693,55.371 47.779,55.378 47.842,55.386L47.842,56.605C47.791,56.591 47.7,56.575 47.569,56.558C47.438,56.538 47.308,56.528 47.177,56.528C46.876,56.528 46.607,56.592 46.372,56.72C46.139,56.845 45.954,57.02 45.818,57.244C45.681,57.466 45.613,57.719 45.613,58.003L45.613,62L44.339,62ZM51.467,62.132C50.834,62.132 50.288,61.989 49.831,61.702C49.376,61.412 49.027,61.013 48.783,60.504C48.538,59.996 48.416,59.413 48.416,58.757C48.416,58.092 48.541,57.506 48.791,56.997C49.041,56.486 49.393,56.087 49.848,55.8C50.302,55.513 50.838,55.369 51.454,55.369C51.952,55.369 52.395,55.462 52.784,55.646C53.173,55.828 53.487,56.084 53.726,56.413C53.967,56.743 54.111,57.128 54.156,57.568L52.916,57.568C52.848,57.261 52.692,56.997 52.447,56.776C52.206,56.554 51.882,56.443 51.476,56.443C51.121,56.443 50.81,56.537 50.542,56.724C50.278,56.909 50.072,57.173 49.925,57.517C49.777,57.858 49.703,58.261 49.703,58.727C49.703,59.205 49.775,59.617 49.92,59.963C50.065,60.31 50.27,60.578 50.534,60.769C50.801,60.959 51.115,61.054 51.476,61.054C51.717,61.054 51.936,61.01 52.132,60.922C52.331,60.831 52.497,60.702 52.631,60.534C52.767,60.367 52.862,60.165 52.916,59.929L54.156,59.929C54.111,60.352 53.973,60.73 53.743,61.063C53.513,61.395 53.204,61.656 52.818,61.847C52.435,62.037 51.984,62.132 51.467,62.132ZM51.007,61.966L51.842,61.966L51.774,62.315C52.021,62.355 52.237,62.455 52.422,62.614C52.606,62.773 52.699,63.013 52.699,63.334C52.702,63.717 52.535,64.028 52.2,64.267C51.868,64.506 51.386,64.625 50.756,64.625L50.73,63.913C51.025,63.913 51.264,63.871 51.446,63.786C51.631,63.7 51.724,63.563 51.727,63.372C51.73,63.182 51.659,63.048 51.514,62.972C51.372,62.895 51.145,62.841 50.832,62.81L51.007,61.966ZM59.665,59.286L59.665,55.455L60.943,55.455L60.943,62L59.691,62L59.691,60.867L59.622,60.867C59.472,61.216 59.23,61.507 58.898,61.74C58.568,61.97 58.158,62.085 57.666,62.085C57.246,62.085 56.874,61.993 56.55,61.808C56.229,61.621 55.976,61.344 55.791,60.977C55.61,60.611 55.519,60.158 55.519,59.618L55.519,55.455L56.793,55.455L56.793,59.465C56.793,59.911 56.916,60.266 57.164,60.53C57.411,60.794 57.732,60.926 58.127,60.926C58.365,60.926 58.603,60.867 58.838,60.747C59.077,60.628 59.274,60.447 59.431,60.206C59.59,59.965 59.668,59.658 59.665,59.286Z" style="fill:white;fill-rule:nonzero;"/>
    </g>
    <g transform="matrix(0.485636,0,0,0.485636,13.5712,14.8355)">
        <path d="M12,73.51C12.133,50.35 12.263,27.223 12.39,4.13C12.401,2.603 13.5,1.285 15,1C23.4,-0.75 36.64,-0.31 45.63,3.14C51.96,5.426 57.511,9.467 61.63,14.79C65.881,9.722 71.404,5.874 77.63,3.64C86.12,0.4 99,-0.38 108.23,1C109.798,1.213 110.985,2.558 111,4.14L111,73.8C110.995,75.557 109.547,77 107.79,77C107.783,77 107.777,77 107.77,77C107.521,76.997 107.273,76.966 107.03,76.91C99.148,75.887 91.136,76.636 83.58,79.1C77.998,81.181 72.699,83.956 67.81,87.36C74.685,85.226 81.852,84.18 89.05,84.26C98.287,84.407 107.479,85.574 116.46,87.74L116.46,14.84L119.67,14.84C121.431,14.84 122.88,16.289 122.88,18.05L122.88,91.94C122.88,93.701 121.431,95.15 119.67,95.15C119.33,95.147 118.992,95.09 118.67,94.98C108.996,92.32 99.031,90.866 89,90.65C80.136,90.538 71.351,92.332 63.24,95.91C62.131,96.615 60.709,96.615 59.6,95.91C51.49,92.331 42.704,90.537 33.84,90.65C23.832,90.878 13.89,92.339 4.24,95C3.918,95.11 3.58,95.167 3.24,95.17C3.23,95.17 3.22,95.17 3.21,95.17C1.449,95.17 -0,93.721 -0,91.96C-0,91.953 -0,91.947 0,91.94L0,18.05C-0,16.289 1.449,14.84 3.21,14.84L6.42,14.84L6.42,87.74C15.401,85.574 24.593,84.407 33.83,84.26C41.546,84.169 49.224,85.376 56.54,87.83C51.919,84.092 46.652,81.231 41,79.39C34,77.09 23.32,76.32 15.51,76.99C15.407,77 15.303,77.005 15.199,77.005C13.538,77.005 12.137,75.716 12,74.06C11.99,73.877 11.99,73.693 12,73.51ZM73.64,64.4C73.243,64.696 72.761,64.856 72.266,64.856C71.004,64.856 69.966,63.817 69.966,62.556C69.966,61.725 70.416,60.957 71.14,60.55C74.83,58.259 78.795,56.445 82.94,55.15C87.146,53.726 91.513,52.829 95.94,52.48C95.982,52.478 96.023,52.477 96.065,52.477C97.323,52.477 98.358,53.512 98.358,54.77C98.358,55.981 97.399,56.994 96.19,57.06C92.174,57.396 88.215,58.222 84.4,59.52C80.621,60.685 77.006,62.325 73.64,64.4ZM73.84,46.64C73.472,46.874 73.046,46.998 72.61,46.998C71.352,46.998 70.317,45.963 70.317,44.705C70.317,43.921 70.719,43.19 71.38,42.77C75.062,40.53 79.005,38.75 83.12,37.47C87.259,36.085 91.55,35.205 95.9,34.85C95.913,34.85 95.926,34.85 95.939,34.85C97.201,34.85 98.239,35.888 98.239,37.15C98.239,38.332 97.328,39.332 96.15,39.44C92.191,39.768 88.286,40.574 84.52,41.84C80.777,42.998 77.191,44.61 73.84,46.64ZM73.9,28.94C73.532,29.173 73.105,29.296 72.67,29.296C71.408,29.296 70.369,28.257 70.369,26.995C70.369,26.207 70.774,25.471 71.44,25.05C75.116,22.82 79.052,21.05 83.16,19.78C87.286,18.401 91.564,17.528 95.9,17.18C95.942,17.178 95.983,17.177 96.025,17.177C97.283,17.177 98.318,18.212 98.318,19.47C98.318,20.681 97.359,21.694 96.15,21.76C92.205,22.089 88.313,22.891 84.56,24.15C80.825,25.306 77.245,26.914 73.9,28.94ZM51.74,60.55C52.464,60.957 52.914,61.725 52.914,62.556C52.914,63.817 51.876,64.856 50.614,64.856C50.119,64.856 49.637,64.696 49.24,64.4C45.887,62.328 42.285,60.688 38.52,59.52C34.705,58.222 30.746,57.396 26.73,57.06C25.525,56.989 24.571,55.978 24.571,54.77C24.571,53.512 25.607,52.476 26.865,52.476C26.91,52.476 26.955,52.477 27,52.48C31.427,52.829 35.794,53.726 40,55.15C44.145,56.445 48.11,58.259 51.8,60.55L51.74,60.55ZM51.5,42.77C52.156,43.194 52.554,43.924 52.554,44.705C52.554,45.969 51.514,47.009 50.25,47.009C49.807,47.009 49.372,46.881 49,46.64C45.649,44.61 42.063,42.998 38.32,41.84C34.554,40.574 30.649,39.768 26.69,39.44C25.489,39.359 24.545,38.348 24.545,37.145C24.545,35.883 25.583,34.845 26.845,34.845C26.897,34.845 26.948,34.847 27,34.85C31.35,35.205 35.641,36.085 39.78,37.47C43.895,38.75 47.838,40.53 51.52,42.77L51.5,42.77ZM51.44,25.05C52.176,25.453 52.635,26.228 52.635,27.067C52.635,28.329 51.597,29.367 50.335,29.367C49.857,29.367 49.39,29.218 49,28.94C45.655,26.914 42.075,25.306 38.34,24.15C34.587,22.891 30.695,22.089 26.75,21.76C25.541,21.694 24.582,20.681 24.582,19.47C24.582,18.212 25.617,17.177 26.875,17.177C26.917,17.177 26.958,17.178 27,17.18C31.336,17.528 35.614,18.401 39.74,19.78C43.848,21.05 47.784,22.82 51.46,25.05L51.44,25.05ZM104.56,7C97.14,6.3 86.5,7.12 79.83,9.65C73.631,11.823 68.313,15.974 64.7,21.46L64.7,81.72C69.897,78.158 75.512,75.25 81.42,73.06C88.887,70.668 96.735,69.695 104.56,70.19L104.56,7ZM58.28,81.1L58.28,21.37C54.92,15.44 49.49,11.48 43.35,9.13C36.35,6.46 25.6,5.86 18.79,6.83L18.43,70.39C25.86,70.12 36.12,71.07 42.95,73.3C48.438,75.079 53.611,77.711 58.28,81.1Z" style="fill:white;fill-rule:nonzero;"/>
    </g>
</svg>
