<?xml version="1.0" encoding="UTF-8" standalone="no"?>
<!DOCTYPE svg PUBLIC "-//W3C//DTD SVG 1.1//EN" "http://www.w3.org/Graphics/SVG/1.1/DTD/svg11.dtd">
<svg viewBox="0 40 2550 3260" xmlns="http://www.w3.org/2000/svg" xml:space="preserve" fill-rule="evenodd" clip-rule="evenodd" stroke-linejoin="round" stroke-miterlimit="2">
  <g transform="translate(-5516.33)">
    <path fill="none" d="M5516.33 0h2550v3300h-2550z"/>
    <clipPath id="a">
      <path d="M5516.33 0h2550v3300h-2550z"/>
    </clipPath>
    <g clip-path="url(#a)">
      <path fill="url(#b)" d="M-17.51-37.21h2588.8v3366.39H-17.51z" transform="translate(5516.33)"/>
      <path d="M-206.6 2073.84v-319.29l1931.07 323.81-150.64 156.52-752.58-115.02-50.56 50.76 16.79 301.49-994.09-398.27Z" fill="url(#c)" transform="translate(5685.44 43.29)"/>
      <path d="m3605.42 2217.05-205.03 839.77 255.59 159.34 179.35-749.92-229.91-249.19Z" fill="url(#d)" transform="translate(2649.75)"/>
      <path d="m3486.62 2313.94-42.41 250.54 262.1 744.02 128.05-840.65-347.74-153.91Z" fill="url(#e)" transform="translate(3429.07 -221.05)"/>
      <path d="m4491.26 3101.66-260.21-737.14-395.71 107.23-220.09 881.79 362.61 25.04 89.08-607.13 380.41 945.73 233.45-39.37-83-252.31 160.87 20.28 17.57-971.03 165.92 724.09 194.93-41.18-287.07-979.14-235.98 66.58-126.4 820.17 3.62 36.39Z" fill="url(#f)" transform="translate(2649.75)"/>
      <path d="m0-182.62-16.55 104.6c-1.08 7.8-2.19 15.6-3.3 23.38l-3.33 23.35c-1.1 7.78-2.2 15.52-3.25 23.21a2392.1 2392.1 0 0 0-3.03 22.93l90.71 19.63c1.07-9.75 2.2-19.6 3.37-29.53 1.16-9.88 2.36-19.83 3.58-29.81 1.21-9.95 2.44-19.92 3.67-29.92 1.22-9.94 2.43-19.9 3.62-29.85L93.51-217.1 0-182.62Z" fill="url(#g)" fill-rule="nonzero" transform="translate(7142.03 1742.72) scale(4.16667)"/>
      <path d="M0-37.03a3227.8 3227.8 0 0 1-4.05-28.38 1874.1 1874.1 0 0 1-3.73-28.67 1530.88 1530.88 0 0 1-6.3-62.13l-82.06 22.46a992.58 992.58 0 0 0 5.4 47.02c1 7.36 2.08 14.58 3.2 21.78 1.12 7.18 2.28 14.34 3.5 21.61l20.56 120.26 87.09 42.25L0-37.03Z" fill="url(#h)" fill-rule="nonzero" transform="translate(7160.76 1781.67) scale(4.16667)"/>
      <path d="M0-217.21-24.52-92.7a7616.5 7616.5 0 0 0-11.04 57.76 3558.32 3558.32 0 0 0-9.95 55.64l66.16 30.96c1.9-12.27 3.9-24.82 5.99-37.57a6424.4 6424.4 0 0 1 6.41-38.57 11274.98 11274.98 0 0 1 13.63-78.29l29.8-166.1L0-217.21Z" fill="url(#i)" fill-rule="nonzero" transform="translate(6635.15 1784.1) scale(4.16667)"/>
      <path d="M-321.98 360.88h86.15l342.78-150.25L164 141.82l-485.97 219.06Z" fill="url(#j)" fill-rule="nonzero" transform="scale(-4.16667 4.16667) rotate(-51.92 -688.34 1746.98)"/>
      <path d="m0-287.48 45.05 13.6L-6.1 40.23l-59.32 17.9L-89-98.06c-1.4-9.54-2.75-18.95-4.05-28.38a1890.5 1890.5 0 0 1-3.73-28.67 1531.87 1531.87 0 0 1-6.3-62.13c-1.58 10.74-3.07 21.1-4.55 31.24-1.49 10.17-2.95 20.1-4.45 29.94a2178.6 2178.6 0 0 1-4.68 29.47 1493.1 1493.1 0 0 1-5.29 29.91l-31.99 181.56-100.07 30.2-127.3-517.64 129.35 39.03 33.33 198.92a3990 3990 0 0 1 6.84 41.36 5627 5627 0 0 1 6.38 40.77 9236.3 9236.3 0 0 1 5.83 38.64l5.18 35.05c1.9-12.27 3.9-24.82 5.98-37.57 2.07-12.69 4.22-25.56 6.42-38.57a8402 8402 0 0 1 13.63-78.3l29.8-166.1 72.48 21.88 20.83 155.14a2661.3 2661.3 0 0 1 10.35 88.09c.96 9.42 1.87 18.84 2.76 28.32a4262.58 4262.58 0 0 1 6.95-59.34c1.21-9.95 2.44-19.93 3.67-29.92 1.22-9.94 2.43-19.9 3.62-29.85L0-287.48Z" fill="url(#k)" fill-rule="nonzero" transform="translate(7531.66 2035.97) scale(4.16667)"/>
    </g>
  </g>
  <path d="M929.77 3071.83a22.91 22.91 0 0 1-7.33-6.66 15.06 15.06 0 0 1-2.26-5.73c-.17-2.82.05-5.64.67-8.4a19.73 19.73 0 0 1 6.13-9.99l5.46-4a93.57 93.57 0 0 1 27.72-8.92l1.33-.14 1.33-.26 1.33-.14a69.5 69.5 0 0 0 4-.53c4.11-.47 8.25-.64 12.4-.53h2.13c.57.1 1.15.15 1.73.13h1.73c.44.07.89.12 1.33.13h.94c.3.09.61.13.93.14h.13l.13.26h.14l.26.14v.26h.14v.8l-.14.27h-.53v.26l-.26.14v.13l-.27.13-.4.4h-.13l-.14.14-.26.13-.67.67-.13.26h-.27v.27h-.13v.27l-.54.26-.13.27-.27.27-.26.13-.14.13a369.9 369.9 0 0 0-5.33 6.53 177.05 177.05 0 0 0-9.72 15.86c-1.29 2.8-2.49 5.65-3.6 8.53a23.57 23.57 0 0 0-1.87 7.6 24.12 24.12 0 0 0 0 4l.54 1.46.8 1.33.93 1.33c.74.75 1.65 1.3 2.66 1.6l1.74.4h1.86a20.39 20.39 0 0 0 12.13-4 32.23 32.23 0 0 0 6.53-7.2 67.85 67.85 0 0 0 8.26-14.78l.66-2.67a47.96 47.96 0 0 0 2.67-11.6c.03-1.33-.06-2.67-.27-3.99v-.53c.02-.45-.02-.9-.13-1.34v-.53l-.27-.66-.13-.8c-.15-.5-.33-.99-.53-1.47l-.4-1.07c-.43-.9-.87-1.78-1.33-2.66v-.67l.4-.13a6.6 6.6 0 0 0 1.06-.27h1.33l.4-.13h1.07a18.2 18.2 0 0 1 5.86.8l2.4 1.2a9.73 9.73 0 0 1 4.8 5.73c.81 2.12 1.09 4.4.8 6.66v1.87l-.14.53c-.08.4-.13.8-.13 1.2-.1.63-.24 1.25-.4 1.86l-.27.54v.66l-.13.54-.26.53v.53a40.67 40.67 0 0 1-6.27 12 54.11 54.11 0 0 1-23.72 18.65 43.71 43.71 0 0 1-27.98 0 14.36 14.36 0 0 1-3.47-1.86c-1.06-.8-2-1.47-2.8-2.4a12.82 12.82 0 0 1-2.13-2.67l-1.06-2.93a13.3 13.3 0 0 1-.4-3.33 21.86 21.86 0 0 1 4.66-13.6c1.07-1.33 2.27-2.92 3.6-4.26a109.66 109.66 0 0 1 19.59-15.19l.66-.26.8-.4.54-.4.66-.27.54-.4.66-.27.27-.26h.4l.27-.14.26-.26.67-.27c.26-.19.52-.36.8-.53l.26-.14h.27l.27-.26.66-.27.67-.4.27-.13h.26l.27-.27h.13v-.26h.14v-.4l-.14-.14h-.26v-.13h-4l-.27.13h-.8a3.97 3.97 0 0 0-.66 0h-.54l-.66.14h-1.74l-.53.13h-.53c-6.07.69-12.08 1.8-18 3.33a86.1 86.1 0 0 0-18.65 8.13 145.88 145.88 0 0 0-6.26 4.4c-.83.53-1.58 1.15-2.26 1.86l-.8.8c-.13.1-.26.2-.4.27l-.8.8a8.6 8.6 0 0 0-.67.8c-.97 1.37-2 2.7-3.06 4a28.2 28.2 0 0 0-2 4.66c.01.23-.04.46-.14.66-.28 1.73-.24 3.5.14 5.2l.66 1.6c.54.94 1.17 1.84 1.87 2.67a12.5 12.5 0 0 0 2.66 2.4l1.47.93v-.14l-1.33 1.07.26.13Zm121-18.79-.13-.26-.4-.14-.54-.26a9.08 9.08 0 0 1-.66-.4l-.27-.14h-.27l-.26-.13h-.14l-.13-.13h-.4l-.4-.14a7.46 7.46 0 0 0-1.33-.13 4 4 0 0 0-1.33 0l-.54.27h-.53a2.9 2.9 0 0 0-.53.26l-.4.27c-.27 0-.4.13-.67.4l-.4.27-.4.4-.8.8-.13.26-.27.4-.13.14-.13.26-.27.14v.26l-.27.14-.66.93a42.46 42.46 0 0 0-2 3.6 269.48 269.48 0 0 0-5.33 11.19 21.4 21.4 0 0 0-.8 4c-.03.58.02 1.16.13 1.73l.4.67 1.33 1.06.67.4c.58.06 1.15.1 1.73.14h1.87l.26-.14h.27l.4-.26h.4l.4-.27h.4c.3-.16.61-.3.93-.4l.4-.4h.4l.27-.13.13-.14h.27v-.13l.26-.13h.27l.4-.4-.13-1.87v-1.6l.13-.26.27-.4v-.27l.13-.13v-.67l.27-.13v-.4l.26-.14 8.4-17.85h-.27m6 20.25c-.4.81-.72 1.66-.93 2.53v.4c-.02.45.02.9.13 1.34l.4.4.53.4.67.4.8.26.66.14h2.67a35.97 35.97 0 0 0 7.33-2.14l.53-.26h.27l.13-.14h.27l.26-.13v-.13l.4-.14.27-.26h.4l.27-.27c.16-.1.34-.2.53-.27h.27l.13-.26h.27l.26-.14.14-.13.93.8-.8.53c-.48.33-.97.64-1.47.94l-.8.4-1.6.66c-1.08.52-2.19.96-3.33 1.34-1.08.43-2.2.79-3.33 1.06l-.93.13c-.6.2-1.23.34-1.87.4h-2.26l-.14.14h-.26a2.74 2.74 0 0 0-.53 0l-.4.13h-1.47l-.4.13h-.93c-2 0-4.01-.13-6-.4l-.93-.26-1.33-.4-1.07-.67c-.71-.52-1.38-1.1-2-1.73l-.8.53c-.43.24-.88.47-1.33.67l-.8.27-1.07.53h-.4l-.66.26-.8.27-1.07.27-.27.13-.4.13h-2l-.4.14c-.74.14-1.5.23-2.26.26h-4.93c-2.84.02-5.63-.82-8-2.4l-1.2-1.6-.53-1.73a16.74 16.74 0 0 1 0-4.13v-1.06c.24-.84.46-1.69.67-2.53l.4-.8.53-1.2c.7-1.13 1.4-2.24 2.13-3.34l.67-.93.8-1.2.4-.4.4-.53c.22-.39.49-.74.8-1.07l1.86-1.86 2-1.6a35.56 35.56 0 0 1 6.67-3.87c1.76-.5 3.53-.95 5.33-1.33a29.2 29.2 0 0 1 10.66 0c.28.16.55.34.8.54.31.11.63.24.93.4l1.6 1.06 15.59-2.53-11.2 23.99.14-.14Z" fill="#fff" fill-rule="nonzero"/>
  <path d="m1087.95 3073.97-.14.66v.4l-.26.4v.27l-.27.4v.8c0 .44.04.9.13 1.33l.4.4 1.07.8.67.27h.66l.54.13h1.6c1.01-.2 2.03-.38 3.06-.53l1.6-.54c1.25-.34 2.46-.83 3.6-1.46l1.86-.8 2.13-1.07.8.8a35.22 35.22 0 0 1-6.13 3.2l-1.2.27c-1.43.4-2.85.84-4.26 1.33a17 17 0 0 1-2.13.4h-.67a1.34 1.34 0 0 0-.4 0l-1.2.26h-1.73l-.27.14h-1.73l-.26.13h-.94c-2.9.04-5.78-.41-8.53-1.33l-1.33-.93a4 4 0 0 1-.8-1.07c-.26-.4-.4-.8-.4-1.33l-.13-1.34v-2.26l.13-.53v-.4l.4-.67v-.67h.14v-.26l.13-.14 18.12-41.57 16.4-2.67-20.66 47.04v.14Z" fill="#fff" fill-rule="nonzero"/>
  <path d="M1148.05 3031.19a68.64 68.64 0 0 0-4 3.33l-1.34.8c-.67.5-1.39.94-2.13 1.33 0 .27-.13.27-.26.4l-.4.14-.8.53-.27.13-.4.27c-.21.2-.43.37-.67.53l-.66.27-.14.13-.26.14v.13l-.53.27-.14.13h-.13l-.53.27v.13l-.4.13v.13h-.27l-1.6 1.07-.4.13-.4.27-.13.27-.4.13-.14.13-5.73-.26c.33-.2.6-.48.8-.8l.27-.4.4-.27.27-.4.4-.4.26-.4.27-.26.27-.4v-.14l.26-.13.14-.27.26-.13v-.27l.14-.13.26-.4s0-.27.27-.27v-.53l.4-.4v-.27l.27-.53.13-.4c.23-.32.41-.68.53-1.06 0-.27 0-.4.27-.67l.13-.67.27-.66.13-.67v-.27h15.73v.27Zm-27.06 38.11.67-.53a28.7 28.7 0 0 0 3.2-2.67l.53-.26.4-.54.4-.26.53-.54.4-.53c.27 0 .4-.27.67-.4l1.33-1.33.14-.4.4-.13c0-.14 0-.27.26-.27l.4-.53.67-.67.13-.27.53-.53.14-.27.4-.53.53-.53.13-.4.27-.27.13-.27h.14l.13-.4.27-.26v-.27l.26-.26c.39-.63.7-1.3.94-2v-.27l.26-.13v-2l-.66-.67-.27-.13h-.13l-.54-.27a2.74 2.74 0 0 0-.53 0h-.93l-1.2.54a7.6 7.6 0 0 0-1.6 1.33l-.53.53-1.07 1.33a33.3 33.3 0 0 0-5.2 9.2c-.3.65-.57 1.32-.8 2l-.13.53c-.47 1-.87 2.02-1.2 3.06l-.13.67.66-.53m25.99 6.8-1.07.66-.93.53a4.1 4.1 0 0 0-.53.14l-.4.26-.54.27-.4.13c-.26 0-.4 0-.53.27-.13.05-.26.1-.4.13l-.4.27-1.06.27-.4.26h-.4l-.54.27c-.77.22-1.52.49-2.26.8-.74.23-1.5.4-2.27.53-1.48.36-3 .58-4.53.67-2 .07-4 .2-6 .4H1123l-1.33.13h-5.2l-.13-.13h-.93a28.24 28.24 0 0 1-7.73-1.87l-1.47-.8a4 4 0 0 1-1.06-1.33l-.54-1.47a8.24 8.24 0 0 1-.13-2.53v-.66l.13-.27v-.4l.14-.67v-1.2l.13-.66c.1-.2.15-.44.13-.67l.4-.93.27-1.07.67-1.46.66-1.6a37.3 37.3 0 0 1 4-6 10 10 0 0 1 2.27-2.53 34.94 34.94 0 0 1 6.13-4l3.6-1.2a36.5 36.5 0 0 1 10.65-.93c1.26.14 2.5.37 3.73.67l1.34.66 1.06.8.8 1.07c.42.73.65 1.55.67 2.4v.4h-.27v.8a4 4 0 0 1-.66 2.13l-1.34 2.13-1.86 2.13a29.56 29.56 0 0 1-5.6 3.87 60.2 60.2 0 0 1-12 5.33v1.06l-.12.4v2.53l.53 1.07.53.93.93.8 1.2.67 1.34.53 1.6.27c1.24.13 2.49.13 3.73 0 3.19-.2 6.33-.87 9.32-2a56.61 56.61 0 0 0 7.47-3.2v-.13l.93 1.06Z" fill="#fff" fill-rule="nonzero"/>
  <path d="m1157.64 3078.76-.27.8v.53h.67l.13-.26.4-.4.14-.27.26-.26.14-.27.26-.4.27-.67.53-.93c.54-1 1.03-2.02 1.47-3.06l2.13-3.74a61.14 61.14 0 0 0 2.4-3.46c.84-1.03 1.64-2.1 2.4-3.2l1.2-1.6v-.13c.1-1.5.5-2.94 1.2-4.27.6-1.5 1.5-2.86 2.66-4a18.73 18.73 0 0 1 3.46-2.66l2-.8 2.14-.26h.4c.44 0 .89.05 1.33.13l1.6.53.53.4.27.54.26.13v1.73l-.53.53h-.13l-.14.27-.26.13-.67.67h-.13l-.67.53c-.27 0-.4.27-.67.4l-1.06.8-2 1.33-.67.54-.4.26-.4.4c-.69.5-1.36 1.03-2 1.6l-1.2.94-1.06.8v3.06c0 .4.13.93.4 1.33l.67 1.07c.13.4.53.67.93.93.27.4.67.67 1.06.8l1.34.67 1.33.26h3.86l.67-.13c.88-.23 1.77-.4 2.67-.53l.4 1.73h-.54l-.4.13c-.12.07-.26.11-.4.14h-.66v.13h-2.27a27.73 27.73 0 0 1-4-.4 14.26 14.26 0 0 1-6.53-3.73 12.9 12.9 0 0 1-2-3.07h-.13l-.26.27-.27.13c0 .27-.27.4-.4.54a2.7 2.7 0 0 0-.4.53c-.23.34-.5.65-.8.93-.15.17-.28.35-.4.54l-.53.53-.8 1.33-.94 1.33a52.74 52.74 0 0 1-2.66 4l-1.6 2.67v.26h-.27v.54l-.26.26-.27.54-.27.26v.14l-.13.26-.27.14-.53.8-.4.13c0 .13 0 .26-.26.4h-.27l-.27.26c-.43.14-.88.23-1.33.27h-.27c-.79.12-1.6.17-2.4.13-.89.01-1.78-.03-2.66-.13h-1.07c-1-.29-1.97-.64-2.93-1.07l-.93-.8-.67-.8-.53-1.06v-2.67l.27-.53v-.27l.26-.66c0-.27 0-.53.27-.67v-1.06l.13-.4 8.53-19.2 16.13-2.66-13.06 29.05h.13Z" fill="#fff" fill-rule="nonzero"/>
  <path d="M1210.28 3030.92c1.04.29 2.06.64 3.06 1.07l1.33.8a5.46 5.46 0 0 1 1.73 2.26c.49.81.76 1.73.8 2.67 0 .4 0 .93-.26 1.33a9.83 9.83 0 0 1-1.33 2.4c-.14.4-.54.67-.94 1.07a9.35 9.35 0 0 1-6.13 2l-1.33-.14a34.4 34.4 0 0 1-1.87-.4c-1-.32-1.95-.82-2.8-1.46l-1.06-1.07a6.8 6.8 0 0 1-1.33-2.4c-.2-.87-.2-1.79 0-2.66l.53-1.34.8-1.2 1.07-1.06a10.26 10.26 0 0 1 6-2v-.13c.66 0 1.33 0 1.73.26m-10.27 42.91v.27l-.13.4v.13l-.13.27-.14.4v.4l-.26.4v1.6c0 .26 0 .4.26.53l.27.53.53.4.4.27 1.47.4c.8.1 1.6.1 2.4 0a48.7 48.7 0 0 0 1.86-.27l.67-.26.67-.14.66-.26c.85-.34 1.7-.7 2.53-1.07l.54-.27c.37-.2.72-.42 1.06-.66l.67-.27.53-.27h.14l.4-.4.53-.26h.27l.53-.27c.22-.24.5-.42.8-.53l.93.66a26.24 26.24 0 0 1-7.2 4c-1.59.51-3.19 1-4.8 1.47l-2.4.4-2.66.13a42.6 42.6 0 0 1-10.39-.67l-2-.4-1.46-.8a4.02 4.02 0 0 1-1.07-1.06l-.53-1.2-.14-1.33v-1.07l.14-.13v-.14l.13-.4v-1.86l.27-.13 9.32-20.4 16.26-2.66-10.93 24.52Z" fill="#fff" fill-rule="nonzero"/>
  <path d="m1232.26 3069.3.67-.53c.83-.58 1.63-1.2 2.4-1.87.43-.37.88-.72 1.33-1.06l.4-.54.53-.26.4-.54.54-.53.53-.4.53-.53.4-.27.27-.26.13-.27 1.33-1.33.54-.67.26-.27.14-.26.53-.54.8-1.06c.13-.25.32-.48.53-.67v-.27h.13c0-.26.14-.26.27-.4l.27-.53c.4-.9.85-1.8 1.33-2.66l.13-.67v-1.2l-.13-.13v-.14l-.27-.13v-.13l-.26-.13v-.14l-.27-.13h-.27l-.13-.13-.4-.14h-1.33a7.07 7.07 0 0 0-2.8 1.87l-1.2 1.2-.53.66a32.83 32.83 0 0 0-4.53 7.73c-.4 1.17-.85 2.33-1.34 3.47l-.26.53c-.56 1.24-1 2.54-1.33 3.86v-.26l.66-.27m25.99 6.66-1.07.67-.93.53c-.33.1-.64.24-.93.4l-.4.27-.54.13c-.13 0-.26 0-.4.27-.17.06-.35.1-.53.13l-.4.27-.53.13-.4.14-.4.26h-.54l-.53.27c-.72.23-1.44.5-2.13.8-.74.23-1.5.4-2.27.53-1.48.37-3 .6-4.53.67-2.04.06-4.09.19-6.13.4h-1.33l-1.33.13h-5.07l-.26-.13h-.93a31.07 31.07 0 0 1-5.87-1.07l-1.86-.8-1.34-.8a4 4 0 0 1-1.2-1.33l-.4-1.33a8.49 8.49 0 0 1 0-2.53v-1.34l.14-.53v-1.33l.26-.67a1.6 1.6 0 0 0 0-.67c.27-.26.27-.53.4-.93l.4-1.06.67-1.47.67-1.6c1.06-2.1 2.3-4.11 3.73-6l2.53-2.53a33.5 33.5 0 0 1 6.13-4l3.46-1.2a37.3 37.3 0 0 1 10.66-.93c1.26.16 2.5.38 3.74.67l1.33.67 1.06.8.8 1.06.54 1.2v2.27c-.14.8-.4 1.46-.8 2.13-.27.8-.8 1.33-1.34 2.13-.4.8-1.06 1.33-1.86 2.13-1.67 1.5-3.5 2.8-5.46 3.87a58.27 58.27 0 0 1-12 5.33v.4l-.13.4v.66l-.13.27v2.26l.53 1.07.53.93.94.8 1.33.67c.26.27.8.4 1.33.53l1.47.27c1.28.14 2.58.14 3.86 0 2.35-.19 4.68-.64 6.93-1.33a43.55 43.55 0 0 0 9.86-4l.8 1.06h-.13Zm74.09 12.53a4 4 0 0 0-.8 0h-.67c-.44.11-.88.2-1.33.27h-.53l-.54.13c-.45.02-.9.11-1.33.27l-1.07.13-1.06.27c-1.17.2-2.33.47-3.47.8l-.53.13-.4.13-1.07.4-.93.4c-.46.18-.9.4-1.33.67l-.8.8-.53.93c-.16.43-.2.88-.14 1.33l.14.4.26.4s.14.27.4.27l.27.13h.27l.53.27a11.03 11.03 0 0 0 4.66-.27c1.18-.31 2.3-.8 3.33-1.46a17.79 17.79 0 0 0 3.6-2.67c1.27-1.21 2.52-2.46 3.73-3.73h-.66m-22.66-24.25c1.6-.47 3.2-.91 4.8-1.34a42.8 42.8 0 0 0 4.4-1.6 95.2 95.2 0 0 0 6.66-2.66l3.2-1.07a103.9 103.9 0 0 0 21.59-12.52l2.66-2.93 1.47-3.07c.34-.98.52-2.02.53-3.06 0-1.55-.63-3.04-1.73-4.13l-1.33-1.2-1.6-.94-1.87-.66a16.53 16.53 0 0 0-7.06-.27h-.67l-.66.13-.54.14-.66.13-.54.13-.66.27h-.67l-1.33.53-.53.14-.67.26a38.64 38.64 0 0 0-9.33 5.2c-3.76 2.72-7.1 6-9.86 9.73-1.01 1.7-2.03 3.38-3.06 5.06a95.2 95.2 0 0 0-2.4 5.6 38.46 38.46 0 0 0-2 8.8v-.4l1.86-.4m55.57-12.93-6.8 17.32-.4 1.2-.26.4v.13h-.13v.54l-.14.13v.4h-.13l-.53 1.07-.27.8-.4.8-.53.66-.8 1.33a29.12 29.12 0 0 1-2.14 3.34c-.26 0-.4.26-.53.53l-.4.26-1.06 1.07-.8.53h-.14v.14h-.13v.13c2.23-.27 4.45-.58 6.66-.93 4.34-.8 8.58-2.05 12.66-3.73a76.8 76.8 0 0 0 6-2.4v1.33l-3.6 1.87a50.96 50.96 0 0 1-7.2 3.06c-2.4.85-4.8 1.74-7.2 2.67-2.55.74-5.13 1.4-7.72 2l-4 .8-.4.13-.26.26-.4.27-.27.13c-.2.21-.42.4-.67.54a2 2 0 0 1-.66.53l-.8.4-1.33 1.07-.67.4-.93.53-.8.53a34.5 34.5 0 0 1-2.67 1.47l-.8.53-.93.53c-.56.35-1.13.67-1.73.94l-.54.26-.53.14c-.12.1-.26.19-.4.26l-.53.14-.4.26-.4.14-1.07.4-.93.26c-.87.34-1.76.6-2.67.8l-.66.13h-.4c-.34.15-.7.23-1.07.27a6.6 6.6 0 0 1-1.33.13h-1.33c-1.22.02-2.44-.16-3.6-.53a5.07 5.07 0 0 1-1.6-1.06l-.53-.67-.4-.8a4.4 4.4 0 0 1 .13-2.13l.8-1.34 1.07-1.06 1.73-.93a21.5 21.5 0 0 1 3.73-1.74c1.64-.5 3.28-.99 4.93-1.46l.4-.27c.68-.08 1.34-.21 2-.4.96-.28 1.94-.5 2.93-.66a17.6 17.6 0 0 0 3.73-.8h.67v-.4l.26-.4v-.14l.27-.13v-.27l.4-.8v-.26h.13c0-.27.14-.27.27-.4v-.27l.27-.27v-.4l.26-.4v-.26l.14-.27v-.4c.25-.43.47-.87.66-1.33l.14-.27v-.26l.13-.27v-.27l.13-.13.27-.53v-.27l.27-.53.13-.14v-.26l.13-.27a30.01 30.01 0 0 1-6 3.6 50.74 50.74 0 0 1-10.12 3.33 63.19 63.19 0 0 1-19.32.4 27.35 27.35 0 0 1-6.4-2.53 12.83 12.83 0 0 1-2.66-1.87 11.99 11.99 0 0 1-3.2-4.8c-.4-.93-.54-1.86-.8-2.93-.35.09-.71.13-1.07.14-.66.15-1.32.24-2 .26l-.4.14h-.53l-.67.26h-.66c-.52.16-1.06.25-1.6.27h-4.27l1.34-3.2h1.2c.43.12.88.2 1.33.27h2v-.13h1.86l.27-.14h1.73l.14-.13h.66l.27-.13h.53v-2.4l.13-.27v-.27h.14v-.26c.18-1.58.63-3.1 1.33-4.53a28 28 0 0 1 1.33-3.2c.6-1.16 1.26-2.27 2-3.33l1.2-1.6c1.2-1.87 2.67-3.6 4.26-5.33a66.1 66.1 0 0 1 11.33-8.93 76.9 76.9 0 0 1 30.65-10.66c2.8-.53 5.46-.8 8.26-.8h.53l.14-.13h2c1.87.03 3.75.2 5.6.53 1.5.32 2.97.77 4.4 1.33l1.46.94c.53.26.8.66 1.06 1.2.4.26.67.8.8 1.33l.14 1.46c0 .4 0 .8-.27 1.07l-.4 1.2-.67 1.06-.66 1.2c-.31.48-.67.93-1.07 1.34-.27 0-.4.26-.67.53l-.66.67a48.96 48.96 0 0 1-3.6 2.8l-.13.26h-.27l-.13.27-.27.13-.13.13h-.14l-.26.27c-3.4 2.3-6.86 4.47-10.4 6.53l-4 2.13a121.89 121.89 0 0 1-12.39 5.86l-6.8 2.8-2.66 1.07-2.66.93-2.4.8-2.67.8c-1.6.4-3.2.85-4.8 1.33l-2.4.8v2.27l.27.53c0 .27.04.54.14.8 0 .67.26 1.33.4 1.73.64 1.8 1.54 3.51 2.66 5.07l1.47 1.33c.53.53 1.2.8 1.86 1.07 1.55.53 3.17.8 4.8.8h1.33l.4-.14a9.3 9.3 0 0 0 1.74-.13l.93-.13c.75-.2 1.5-.38 2.26-.54l.4-.13 1.74-.53a84.76 84.76 0 0 0 6.93-2.94l1.6-.8c1.07-.58 2.1-1.25 3.06-2h.13l.27-.26h.13l.14-.13h.13l.13-.14v-.13h.27l.13-.13 6.93-17.86 17.6-2.93Z" fill="#fff" fill-rule="nonzero"/>
  <path d="m1388.84 3069.3 1.33-1.06.8-.54c.61-.5 1.19-1.03 1.73-1.6l.53-.26.4-.54.4-.26.54-.54.4-.53c.26 0 .4-.27.66-.4l.8-.8.54-.53.13-.27.4-.26.26-.27.4-.53.67-.67.13-.27.8-.8c.45-.74.94-1.45 1.47-2.13l.13-.26.27-.27v-.27l.27-.26c.38-.63.7-1.3.93-2v-.27l.27-.13.13-.67v-1.2l-.53-.53a.66.66 0 0 0-.27-.27l-.13-.13h-.27l-.13-.13-.4-.14h-1.47l-1.2.54c-.6.35-1.14.8-1.6 1.33l-.53.66-.53.54-.54.66a28.51 28.51 0 0 0-3.73 6.4l-.8 1.33-.66 1.33-.27.94c-.16.45-.34.9-.53 1.33l-.14.4c-.56 1.24-1 2.54-1.33 3.86v-.26l.67-.27m25.98 6.66-1.06.67-.94.53c-.32.1-.63.24-.93.4l-.53.27-.4.13c-.27 0-.4 0-.54.27l-.4.13-.4.27-1.06.27-.4.26h-.4l-.53.27c-.77.22-1.53.49-2.27.8l-1.07.26-1.2.27c-1.48.37-3 .6-4.53.67-2 .06-4 .2-6 .4h-1.32l-1.34.13h-5.2l-.13-.13h-.93a31.18 31.18 0 0 1-5.86-1.07l-1.87-.8-1.46-.8-1.07-1.33-.53-1.47a8.24 8.24 0 0 1-.14-2.53v-.66l.14-.27v-.4l.13-.53v-.8c-.01-.45.04-.9.13-1.34l.14-.26v-.4l.4-.93.26-1.07c.99-2.06 2-4.1 3.07-6.13l2.13-2.93c.7-.93 1.5-1.78 2.4-2.53a32.95 32.95 0 0 1 6.13-4l3.6-1.2a37.3 37.3 0 0 1 10.66-.93c1.25.15 2.5.37 3.73.66l1.33.67 1.07.8.8 1.06c.41.74.64 1.56.66 2.4v.4h-.26v.8a4 4 0 0 1-.67 2.13l-1.33 2.14-1.87 2.13a27.77 27.77 0 0 1-5.6 3.86 58.22 58.22 0 0 1-11.99 5.33v1.07l-.13.4v2.53l.53 1.07.53.93.94.8 1.2.67 1.33.53 1.6.26c1.24.14 2.49.14 3.73 0 2.4-.17 4.77-.62 7.06-1.33 3.39-.95 6.65-2.3 9.73-4l.93 1.07v.13Z" fill="#fff" fill-rule="nonzero"/>
  <path d="m1425.48 3078.76-.26.8v.53h.66l.13-.26.27-.13.13-.27c.1-.13.2-.26.27-.4v-.13l.13-.14.14-.26.26-.4.27-.67c.5-.68.94-1.4 1.33-2.13.88-1.9 1.82-3.76 2.8-5.6a69.75 69.75 0 0 0 3.6-5.06l1.33-1.6 1.07-1.6v-.13c.1-1.5.5-2.95 1.2-4.27.58-1.5 1.5-2.88 2.66-4a17.85 17.85 0 0 1 3.47-2.66l2-.8 2.13-.27h.4c.45 0 .9.05 1.33.14l.93.26.67.27.53.4.4.53v.14l.27.53v1.06l-.27.14v.4h-.26v.26h-.27l-.13.27-.27.13-.67.67h-.13l-.67.53-.66.4-1.07.8-2 1.33-.66.54-.4.26-.27.4c-.74.49-1.46 1.02-2.13 1.6-.8.53-1.55 1.1-2.27 1.74v3.06c0 .4.14.93.4 1.33l.67 1.07.93.93c.27.4.67.67 1.07.8l1.33.67 1.33.26h4.13l.54-.13c.88-.22 1.77-.4 2.66-.53l.4 1.73h-.53l-.4.13c-.13.07-.26.11-.4.14h-.67v.13h-2a27.7 27.7 0 0 1-4.13-.4 14.12 14.12 0 0 1-6.53-3.73c-.8-.93-1.47-1.96-2-3.07h-.13l-.93.94a2.7 2.7 0 0 0-.4.53c-.24.33-.51.64-.8.93-.15.17-.28.35-.4.54l-.53.53a122.9 122.9 0 0 0-6.13 9.6v.26l-.27.13-.53 1.07-.14.13-.13.27-.53.53-.27.4-.4.13c0 .14 0 .27-.27.4h-.26l-.27.27c-.43.14-.88.23-1.33.27h-.27c-.79.12-1.6.17-2.4.13-.89.01-1.78-.03-2.66-.13h-1.07a25 25 0 0 1-2.93-1.07l-.93-.8-.67-.8-.53-1.06v-2.54l.27-.53v-.27l.26-.66c0-.27 0-.53.27-.67v-1.06l.13-.4 8.53-19.2 16.26-2.66-13.2 29.05h-.13Z" fill="#fff" fill-rule="nonzero"/>
  <path d="m1486.51 3066.1.14-.4.26-.53.14-.53.26-.4.27-.54.13-.4c.12-.36.25-.71.4-1.06l.14-.53.13-.4v-.27c.12-.32.25-.63.4-.93v-.4l.26-.54v-2.66l.14-.27v-1.06c.05-.67.05-1.34 0-2l-1.2-2.4c-.13-.27-.27-.4-.53-.4l-.54-.4h-1.33c-.2.11-.37.24-.53.4-.27 0-.4.27-.54.53l-.4.67-.26.93-.4 1.2v5.46l.26.27v.13l.14.94.26.8.14.8.26.8.8 1.86c.25.7.56 1.36.94 2v-.13l.26-.54m-8.53-15.45-10.66 23.32-.26.66-.4.67v.4c0 .26-.14.4-.27.4v.53l-.13.4v1.47l.13.66.4.54.53.4.4.4.8.26c.48.15.97.24 1.47.27l1.73-.14c.53 0 1.2-.26 1.73-.53l.8-.27.8-.4a96.9 96.9 0 0 0 3.07-2.26l.8-.67c.68-.6 1.3-1.27 1.86-2a27.36 27.36 0 0 0 3.07-4.13l.53-.66.4-.67.13-.27.27-.26.13-.27.27-.4c-.7-.83-1.33-1.72-1.87-2.66a21.48 21.48 0 0 1-2.66-5.73c-.19-1.1-.23-2.22-.13-3.33v-1.87c.13-1.13.6-2.2 1.33-3.07a9.84 9.84 0 0 1 2.13-2.26l1.47-.67c1.16-.37 2.37-.6 3.6-.66 1.22.01 2.44.24 3.6.66l1.46.8 1.33 1.07.93 1.33c.4.4.54.93.8 1.47.95 3.33.62 6.9-.93 10a37.68 37.68 0 0 1-1.87 3.59 88.97 88.97 0 0 1-2.53 4c.22.1.44.19.67.26l.4.27h.27l2 .8.8.27c.43.14.88.27 1.33.4h.66l.67.26.66.14h.8l.67.13h4.66l-.26 2h-2c-.2.13-.43.22-.67.26h-.93l-.4-.13h-.53l-.27-.13h-.27l-.66-.14-.4-.13a11.5 11.5 0 0 1-2.13-.53 23.33 23.33 0 0 1-4.67-2.13l-.66-.27-.4-.27-.27-.13h-.13v.13l-.14.14h-.13v.13l-.27.27h-.26v.13a45.98 45.98 0 0 1-4.67 3.73l-.93.67a25.3 25.3 0 0 1-5.86 3.2 32.76 32.76 0 0 1-6.67 1.73 40.8 40.8 0 0 1-15.19-.4c-.66 0-1.33-.27-1.86-.54a5.33 5.33 0 0 1-2.27-2.13l-.4-1.33-.13-1.47v-.93l.13-.53.27-.53v-.67l.13-.67c.12-.55.3-1.08.54-1.6l8-17.85 16.51-2.67v.14Z" fill="#fff" fill-rule="nonzero"/>
  <path d="M1539.81 3053.04c-.13 0-.26 0-.4-.26l-.53-.27-.4-.13-.26-.27h-.27l-.4-.27h-.27l-.26-.13-.14-.13h-.53l-.27-.14a7.58 7.58 0 0 0-1.33-.13 4 4 0 0 0-1.33 0l-.53.27h-.54c-.23.06-.45.15-.66.26l-.4.27c-.21.09-.4.23-.54.4l-.53.27-.13.26-.27.14v.26c-.27 0-.27 0-.4.27l-.27.27-.13.26h-.13l-.14.4-.26.14v.26l-.27.14-.13.26-.13.14c-.25.29-.47.6-.67.93l-.67 1.06-.66 1.34-2 3.6a69.32 69.32 0 0 1-2.27 4.66 51.43 51.43 0 0 0-2.53 7.2c-.12.88-.07 1.79.13 2.66 0 .27.27.53.4.67l.54.53.66.53.67.4c.62.06 1.24.1 1.86.14h1.87l.13-.14h.4c.26-.16.52-.29.8-.4h.27l.4-.26h.4c.21-.1.44-.2.66-.27v-.13c.27 0 .27-.14.4-.27h.4l.14-.13.26-.14h.14l.13-.13.27-.13h.26l.14-.27h.13l.13-.13-.26-1.87v-1.2l.13-.4.13-.26.14-.4v-.27l.26-.13v-.67l.27-.27v-.26l.13-.14 8.53-17.85h-.4m6.13 20.25-.4.67-.13.53-.14.4-.13.27c-.1.2-.14.43-.13.66v.4c-.03.45.02.9.13 1.34l.4.4.53.4c.14.26.4.26.67.4l.67.26.8.14h2.53a37.4 37.4 0 0 0 8-2.4h.13l.26-.14h.27l.27-.26.26-.14h.27v-.26h.53l.4-.27c.17-.1.35-.2.54-.27h.13l.27-.26h.26v-.14l.27-.13.8.8-.8.53-.67.54a21.8 21.8 0 0 1-4.66 2.26 34.2 34.2 0 0 1-7.73 2.13h-2.27l-.13.14h-.93l-.4.13h-1.33l-.54.13h-.93c-2 0-4-.13-6-.4l-.8-.26-1.33-.4c-.4-.21-.8-.43-1.2-.67a14.5 14.5 0 0 1-1.86-1.73l-.8.53c-.48.25-.97.48-1.47.67l-.8.27-.13.13-.8.4h-.53l-.67.26-.67.27-1.06.27-.27.13-.4.13h-2l-.4.14c-.79.15-1.6.24-2.4.26h-4.8l-2.13-.26a14 14 0 0 1-5.86-2.27l-1.33-1.33-.4-1.87a18.65 18.65 0 0 1 0-5.2l.13-1.06.14-.27v-.26l.4-.93.4-.8c0-.4.26-.8.53-1.2a63.92 63.92 0 0 1 5.2-7.47l.4-.53c.26 0 .4-.27.53-.4l.93-.93c.53-.67 1.33-1.2 1.87-1.6a36.34 36.34 0 0 1 6.66-3.87c2.63-.73 5.3-1.31 8-1.73a32.5 32.5 0 0 1 7.99.54c.32.1.63.23.93.4.32.12.63.25.93.4.51.33 1 .68 1.47 1.06l15.6-2.53-11.07 23.99v-.14Z" fill="#fff" fill-rule="nonzero"/>
  <path d="M1587.39 3030.92c1.04.28 2.07.64 3.06 1.07l1.33.8 1.07 1.07c.6.7 1.04 1.52 1.33 2.4.25.86.25 1.79 0 2.66l-.53 1.33-.8 1.2-1.07 1.07a9.2 9.2 0 0 1-6 2l-1.32-.14a36.3 36.3 0 0 1-2-.4 9.04 9.04 0 0 1-2.67-1.46 7.47 7.47 0 0 1-2.4-3.47 5.05 5.05 0 0 1 0-2.66c0-.54.27-.94.54-1.34l.66-1.2 1.07-1.06a10 10 0 0 1 6.13-2v-.13c.53 0 1.06 0 1.6.26m-10.26 42.91v.67l-.27.13v.27a2.8 2.8 0 0 0-.13.8l-.27.4v1.6l.53 1.06.54.4.53.27 1.33.4c.8.1 1.6.1 2.4 0a50.5 50.5 0 0 0 3.2-.67l.66-.26c.86-.34 1.7-.7 2.54-1.07l.53-.27c.37-.2.72-.42 1.07-.66a13 13 0 0 1 .93-.4l.26-.14h.14c.23-.31.56-.54.93-.66h.27l.53-.27c.22-.24.5-.42.8-.53l.93.66a26.23 26.23 0 0 1-7.06 4c-1.6.52-3.19 1-4.8 1.47l-2.53.4-2.66.13c-3.48.2-6.97-.03-10.4-.67l-2-.4-1.46-.8a4.02 4.02 0 0 1-1.07-1.06l-.53-1.2-.13-1.33v-1.07l.13-.13v-.14l.13-.4v-1.86l.27-.13 9.33-20.4 16.25-2.66-10.92 24.52Z" fill="#fff" fill-rule="nonzero"/>
  <path d="m1615.64 3059.17.4-.4.26-.4c.32-.47.68-.91 1.07-1.33l.13-.13.14-.27v-.26l.26-.4.27-.54.13-.53v-1.33a5.3 5.3 0 0 0 0-1.34l-.26-.26v-.54h-.14l-.13-.26a6.46 6.46 0 0 0-.53-.4l-.54-.4-.4-.13a4.04 4.04 0 0 0-.93 0l-.4.13c-.2.1-.37.24-.53.4l-.27.27v.26l-.27.27-.13.26v3.07c-.01.23.03.46.13.67v.4l.14.26.53 1.6c.24.62.46 1.24.67 1.87v-.14l.4-.26m-12 19.72h.14l.4-.4.26-.13.27-.27.13-.27.27-.13v-.13l.13-.27v-.27l.27-.13v-1.2l.27-.13v-1.2l-.14-.27v-.26l-.13-.67c0-.27 0-.4-.27-.67v-.26l-.13-.4-.27-.4v-.54c-.39-.69-.74-1.4-1.06-2.13l-.27.27h-.13l-.27.13v.13l-.13.14-.27.13v.13l-.53.27-.27.27h-.26v.13l-.27.13h-.13l-.27.27-.13.27h-.27v.13l-.27.13-.13.14h-.27c-.2.15-.38.33-.53.53l-.53.27-.4.4h-.27l-.53.4-.4.26-.27.27-.8.4-.4.4h-.13v.13l-.27.13-.13.14 8.4 4v.13m28.51-3.07-.4.4-.27.14-.13.13-.27.13-.13.14h-.27l-.13.26-2.26 1.07c-1.45.7-2.92 1.37-4.4 2l-1.07.4-1.2.26-.66.14-.67.26c-.94.1-1.87.23-2.8.4a24.8 24.8 0 0 1-3.73.27h-1.73a4.02 4.02 0 0 1-1.07-.27h-1.46a2.8 2.8 0 0 0-.94-.26h-.93l-1.06-.14c-.97-.26-1.95-.48-2.94-.66h-.53l-.27.13h-.4l-.13.13c-.26.08-.53.12-.8.14l-.53.13h-.4l-.27.13h-1.86v.14h-.14l-.26.13h-.94v.13h-.53l-.27.14h-.53v.13h-.4c-.5.02-1-.07-1.46-.27l-.54-.26a.67.67 0 0 1-.4-.4l-.4-.4a3.2 3.2 0 0 1-.66-1.33v-.67h-.14v-.27h-.13v-.8l-.13-.26v-.8h.13v-.94l.27-.26.26-.14.4-.26.4-.4.14-.27.53-.4.67-.4.8-.53h.13l.13-.27h.27v-.13h.27l.26-.13.13-.14.27-.13.27-.27.26-.13.4-.4.54-.27.66-.66.4-.14.27-.26 1.07-.8.26-.14.14-.26.53-.53c.15-.07.29-.16.4-.27l.26-.27h.14l.4-.26.13-.27h.27v-.13l-.14-.67c-.15-.35-.29-.7-.4-1.07v-.4l-.13-.4v-.53l-.13-.4v-4.53l.66-2.26 1.2-2.14a14.26 14.26 0 0 1 3.47-3.46l2.4-1.2 2.66-.67c1.41-.2 2.84-.25 4.27-.13l.93.13c.4 0 .67.27.93.4l.67.4.53.67.4.66c.26.55.4 1.14.4 1.74v.4l-.13.4v.53l-.27.53-.27.94c-.25.45-.51.9-.8 1.33l-.8 1.06c-.29.33-.6.64-.93.94-.45.6-.94 1.18-1.46 1.73v.27l.26.4.27.8.27.4.26.26.14.53.26.27v.53l.27.4.13.4.27.4.13.8.27.67v2.26a7.45 7.45 0 0 1-.67 3.34 11.04 11.04 0 0 1-2.4 2.66 16.4 16.4 0 0 1-4.13 2.4 24.39 24.39 0 0 1-5.6 1.87l.67.26.67.13h.66c.37.1.73.23 1.07.4h.53l.67.14h5.46l1.07-.14 1.33-.13c.82-.1 1.62-.28 2.4-.53.75-.24 1.5-.46 2.27-.67l1.6-.66a129 129 0 0 0 4.93-2.27l1.06-.53.93-.67.94.93h.13Z" fill="#fff" fill-rule="nonzero"/>
  <defs>
    <linearGradient id="b" x1="0" y1="0" x2="1" y2="0" gradientUnits="userSpaceOnUse" gradientTransform="rotate(68.81 299.7 374.62) scale(3746.16)">
      <stop offset="0" stop-color="#e1984e"/>
      <stop offset=".15" stop-color="#d0785b"/>
      <stop offset=".3" stop-color="#b65c77"/>
      <stop offset=".6" stop-color="#5b3e99"/>
      <stop offset=".8" stop-color="#193a77"/>
      <stop offset="1" stop-color="#03396b"/>
    </linearGradient>
    <linearGradient id="c" x1="0" y1="0" x2="1" y2="0" gradientUnits="userSpaceOnUse" gradientTransform="rotate(-123.96 865.85 1039.03) scale(650.826)">
      <stop offset="0" stop-opacity=".36"/>
      <stop offset=".5" stop-opacity=".09"/>
      <stop offset="1" stop-opacity="0"/>
    </linearGradient>
    <linearGradient id="d" x1="0" y1="0" x2="1" y2="0" gradientUnits="userSpaceOnUse" gradientTransform="matrix(-344.403 448.869 -1031.12 -791.141 3792.4 2453.88)">
      <stop offset="0" stop-opacity=".5"/>
      <stop offset=".54" stop-opacity=".14"/>
      <stop offset="1" stop-opacity="0"/>
    </linearGradient>
    <linearGradient id="e" x1="0" y1="0" x2="1" y2="0" gradientUnits="userSpaceOnUse" gradientTransform="matrix(-136.106 817.828 -1878.67 -312.655 3732.93 2442.94)">
      <stop offset="0" stop-opacity=".5"/>
      <stop offset="1" stop-opacity="0"/>
    </linearGradient>
    <linearGradient id="f" x1="0" y1="0" x2="1" y2="0" gradientUnits="userSpaceOnUse" gradientTransform="rotate(72.76 434.65 4004.36) scale(924.794)">
      <stop offset="0" stop-color="#fff" stop-opacity=".18"/>
      <stop offset="1" stop-color="#fff" stop-opacity="0"/>
    </linearGradient>
    <linearGradient id="g" x1="0" y1="0" x2="1" y2="0" gradientUnits="userSpaceOnUse" gradientTransform="rotate(-90 29.59 -2.44) scale(240.408)">
      <stop offset="0" stop-color="#371fba"/>
      <stop offset="1" stop-color="#d3722c"/>
    </linearGradient>
    <linearGradient id="h" x1="0" y1="0" x2="1" y2="0" gradientUnits="userSpaceOnUse" gradientTransform="rotate(-90 53.41 59.35) scale(260.721)">
      <stop offset="0" stop-color="#133e66"/>
      <stop offset="1" stop-color="#501470"/>
    </linearGradient>
    <linearGradient id="i" x1="0" y1="0" x2="1" y2="0" gradientUnits="userSpaceOnUse" gradientTransform="rotate(-90 22.85 28.8) scale(314.786)">
      <stop offset="0" stop-color="#392898"/>
      <stop offset="1" stop-color="#da7025"/>
    </linearGradient>
    <linearGradient id="j" x1="0" y1="0" x2="1" y2="0" gradientUnits="userSpaceOnUse" gradientTransform="matrix(398.26 -312.045 140.66 179.523 -234.27 453.86)">
      <stop offset="0" stop-color="#23258d"/>
      <stop offset=".45" stop-color="#513264"/>
      <stop offset="1" stop-color="#c25101"/>
    </linearGradient>
    <linearGradient id="k" x1="0" y1="0" x2="1" y2="0" gradientUnits="userSpaceOnUse" gradientTransform="rotate(-129.85 2.6 25.93) scale(554.14)">
      <stop offset="0" stop-color="#87b0e9"/>
      <stop offset=".47" stop-color="#a0a7c5"/>
      <stop offset="1" stop-color="#e39168"/>
    </linearGradient>
  </defs>
</svg>
